<?xml version="1.0" encoding="UTF-8"?><svg id="Calque_2" xmlns="http://www.w3.org/2000/svg" viewBox="0 0 56.61 58.12"><defs><style>.cls-1{opacity:.63;}.cls-2{fill:#f6a619;}.cls-3{fill:#1d1d1b;}</style></defs><g id="icone"><g id="balon" class="cls-1"><g><rect class="cls-3" x="38.37" y="52.73" width="1.79" height="1.79" transform="translate(-22.91 30.14) rotate(-33.09)"/><rect class="cls-3" x="39.87" y="51.75" width="1.81" height="1.79" transform="translate(-22.13 30.81) rotate(-33.09)"/><rect class="cls-3" x="41.39" y="50.76" width="1.79" height="1.79" transform="translate(-21.35 31.47) rotate(-33.09)"/><rect class="cls-3" x="42.89" y="49.78" width="1.79" height="1.79" transform="translate(-20.57 32.13) rotate(-33.09)"/><rect class="cls-3" x="44.39" y="48.8" width="1.81" height="1.79" transform="translate(-19.79 32.8) rotate(-33.09)"/><rect class="cls-3" x="45.91" y="47.82" width="1.79" height="1.79" transform="translate(-19.01 33.46) rotate(-33.09)"/><rect class="cls-3" x="32.86" y="54.17" width="1.81" height="1.79" transform="translate(-24.59 27.37) rotate(-33.09)"/><rect class="cls-3" x="34.38" y="53.19" width="1.79" height="1.79" transform="translate(-23.81 28.04) rotate(-33.09)"/><rect class="cls-3" x="35.88" y="52.21" width="1.79" height="1.79" transform="translate(-23.03 28.7) rotate(-33.09)"/><rect class="cls-2" x="37.39" y="51.23" width="1.79" height="1.79" transform="translate(-22.25 29.36) rotate(-33.09)"/><rect class="cls-3" x="38.89" y="50.24" width="1.81" height="1.79" transform="translate(-21.47 30.03) rotate(-33.09)"/><rect class="cls-2" x="40.41" y="49.26" width="1.79" height="1.79" transform="translate(-20.69 30.69) rotate(-33.09)"/><rect class="cls-2" x="41.91" y="48.28" width="1.79" height="1.79" transform="translate(-19.91 31.35) rotate(-33.09)"/><rect class="cls-2" x="43.41" y="47.3" width="1.81" height="1.79" transform="translate(-19.13 32.02) rotate(-33.09)"/><rect class="cls-2" x="44.93" y="46.31" width="1.79" height="1.79" transform="translate(-18.34 32.68) rotate(-33.09)"/><rect class="cls-3" x="46.43" y="45.33" width="1.79" height="1.79" transform="translate(-17.56 33.34) rotate(-33.09)"/><rect class="cls-3" x="47.94" y="44.35" width="1.79" height="1.79" transform="translate(-16.79 34.01) rotate(-33.09)"/><rect class="cls-3" x="49.44" y="43.37" width="1.81" height="1.79" transform="translate(-16 34.67) rotate(-33.09)"/><rect class="cls-3" x="27.37" y="55.6" width="1.79" height="1.81" transform="translate(-26.27 24.6) rotate(-33.09)"/><rect class="cls-3" x="28.87" y="54.62" width="1.79" height="1.81" transform="translate(-25.49 25.26) rotate(-33.09)"/><rect class="cls-3" x="30.38" y="53.64" width="1.79" height="1.81" transform="translate(-24.71 25.93) rotate(-33.09)"/><rect class="cls-2" x="31.88" y="52.66" width="1.81" height="1.81" transform="translate(-23.93 26.59) rotate(-33.09)"/><rect class="cls-2" x="33.4" y="51.67" width="1.79" height="1.81" transform="translate(-23.14 27.26) rotate(-33.09)"/><rect class="cls-2" x="34.9" y="50.69" width="1.79" height="1.81" transform="translate(-22.37 27.92) rotate(-33.09)"/><rect class="cls-2" x="36.4" y="49.71" width="1.79" height="1.81" transform="translate(-21.59 28.58) rotate(-33.09)"/><rect class="cls-3" x="37.91" y="48.73" width="1.81" height="1.81" transform="translate(-20.8 29.24) rotate(-33.09)"/><rect class="cls-2" x="39.42" y="47.74" width="1.79" height="1.81" transform="translate(-20.02 29.91) rotate(-33.09)"/><rect class="cls-2" x="40.93" y="46.76" width="1.79" height="1.81" transform="translate(-19.24 30.57) rotate(-33.09)"/><rect class="cls-2" x="42.43" y="45.78" width="1.81" height="1.81" transform="translate(-18.46 31.24) rotate(-33.09)"/><rect class="cls-2" x="43.95" y="44.8" width="1.79" height="1.81" transform="translate(-17.68 31.9) rotate(-33.09)"/><rect class="cls-2" x="45.45" y="43.82" width="1.79" height="1.81" transform="translate(-16.9 32.56) rotate(-33.09)"/><rect class="cls-2" x="46.95" y="42.84" width="1.79" height="1.81" transform="translate(-16.12 33.22) rotate(-33.09)"/><rect class="cls-2" x="48.46" y="41.85" width="1.81" height="1.81" transform="translate(-15.34 33.89) rotate(-33.09)"/><rect class="cls-3" x="49.97" y="40.87" width="1.79" height="1.81" transform="translate(-14.56 34.55) rotate(-33.09)"/><rect class="cls-3" x="51.48" y="39.89" width="1.79" height="1.81" transform="translate(-13.78 35.22) rotate(-33.09)"/><rect class="cls-3" x="24.87" y="55.08" width="1.81" height="1.79" transform="translate(-26.38 23.16) rotate(-33.09)"/><rect class="cls-2" x="26.39" y="54.1" width="1.79" height="1.79" transform="translate(-25.6 23.82) rotate(-33.09)"/><rect class="cls-2" x="27.89" y="53.12" width="1.79" height="1.79" transform="translate(-24.82 24.48) rotate(-33.09)"/><rect class="cls-2" x="29.39" y="52.14" width="1.79" height="1.79" transform="translate(-24.04 25.14) rotate(-33.09)"/><rect class="cls-2" x="30.9" y="51.15" width="1.81" height="1.79" transform="translate(-23.26 25.81) rotate(-33.09)"/><rect class="cls-2" x="32.41" y="50.17" width="1.79" height="1.79" transform="translate(-22.48 26.47) rotate(-33.09)"/><rect class="cls-2" x="33.92" y="49.19" width="1.79" height="1.79" transform="translate(-21.7 27.14) rotate(-33.09)"/><rect class="cls-2" x="35.42" y="48.21" width="1.79" height="1.79" transform="translate(-20.92 27.8) rotate(-33.09)"/><rect class="cls-3" x="36.92" y="47.23" width="1.81" height="1.79" transform="translate(-20.14 28.46) rotate(-33.09)"/><rect class="cls-2" x="38.44" y="46.24" width="1.79" height="1.79" transform="translate(-19.36 29.13) rotate(-33.09)"/><rect class="cls-2" x="39.94" y="45.26" width="1.79" height="1.79" transform="translate(-18.58 29.79) rotate(-33.09)"/><rect class="cls-2" x="41.45" y="44.28" width="1.81" height="1.79" transform="translate(-17.8 30.45) rotate(-33.09)"/><rect class="cls-2" x="42.96" y="43.29" width="1.79" height="1.79" transform="translate(-17.01 31.12) rotate(-33.09)"/><rect class="cls-2" x="44.47" y="42.31" width="1.79" height="1.79" transform="translate(-16.23 31.78) rotate(-33.09)"/><rect class="cls-2" x="45.97" y="41.33" width="1.79" height="1.79" transform="translate(-15.46 32.44) rotate(-33.09)"/><rect class="cls-2" x="47.47" y="40.35" width="1.81" height="1.79" transform="translate(-14.67 33.11) rotate(-33.09)"/><rect class="cls-2" x="48.99" y="39.37" width="1.79" height="1.79" transform="translate(-13.89 33.77) rotate(-33.09)"/><rect class="cls-2" x="50.49" y="38.39" width="1.79" height="1.79" transform="translate(-13.11 34.43) rotate(-33.09)"/><rect class="cls-3" x="52" y="37.41" width="1.79" height="1.79" transform="translate(-12.33 35.1) rotate(-33.09)"/><rect class="cls-3" x="22.39" y="54.56" width="1.79" height="1.79" transform="translate(-26.5 21.71) rotate(-33.09)"/><rect class="cls-2" x="23.89" y="53.58" width="1.81" height="1.79" transform="translate(-25.72 22.38) rotate(-33.09)"/><rect class="cls-2" x="25.41" y="52.59" width="1.79" height="1.79" transform="translate(-24.94 23.04) rotate(-33.09)"/><rect class="cls-2" x="26.91" y="51.61" width="1.79" height="1.79" transform="translate(-24.16 23.7) rotate(-33.09)"/><rect class="cls-2" x="28.41" y="50.63" width="1.79" height="1.79" transform="translate(-23.38 24.36) rotate(-33.09)"/><rect class="cls-2" x="29.92" y="49.65" width="1.81" height="1.79" transform="translate(-22.6 25.03) rotate(-33.09)"/><rect class="cls-2" x="31.43" y="48.67" width="1.79" height="1.79" transform="translate(-21.82 25.69) rotate(-33.09)"/><rect class="cls-2" x="32.94" y="47.69" width="1.79" height="1.79" transform="translate(-21.04 26.36) rotate(-33.09)"/><rect class="cls-2" x="34.44" y="46.71" width="1.79" height="1.79" transform="translate(-20.26 27.02) rotate(-33.09)"/><rect class="cls-2" x="35.94" y="45.72" width="1.81" height="1.79" transform="translate(-19.48 27.68) rotate(-33.09)"/><rect class="cls-3" x="37.46" y="44.74" width="1.79" height="1.79" transform="translate(-18.7 28.35) rotate(-33.09)"/><rect class="cls-2" x="38.96" y="43.76" width="1.79" height="1.79" transform="translate(-17.92 29.01) rotate(-33.09)"/><rect class="cls-2" x="40.47" y="42.77" width="1.81" height="1.79" transform="translate(-17.13 29.67) rotate(-33.09)"/><rect class="cls-2" x="41.98" y="41.79" width="1.79" height="1.79" transform="translate(-16.35 30.34) rotate(-33.09)"/><rect class="cls-2" x="43.49" y="40.81" width="1.79" height="1.79" transform="translate(-15.57 31) rotate(-33.09)"/><rect class="cls-2" x="44.99" y="39.83" width="1.79" height="1.79" transform="translate(-14.79 31.66) rotate(-33.09)"/><rect class="cls-2" x="46.49" y="38.85" width="1.81" height="1.79" transform="translate(-14.01 32.33) rotate(-33.09)"/><rect class="cls-2" x="48.01" y="37.86" width="1.79" height="1.79" transform="translate(-13.23 32.99) rotate(-33.09)"/><rect class="cls-2" x="49.51" y="36.88" width="1.79" height="1.79" transform="translate(-12.45 33.65) rotate(-33.09)"/><rect class="cls-2" x="51.02" y="35.9" width="1.79" height="1.79" transform="translate(-11.67 34.32) rotate(-33.09)"/><rect class="cls-3" x="52.52" y="34.92" width="1.81" height="1.79" transform="translate(-10.89 34.98) rotate(-33.09)"/><rect class="cls-3" x="19.9" y="54.02" width="1.79" height="1.81" transform="translate(-26.62 20.27) rotate(-33.09)"/><rect class="cls-3" x="21.4" y="53.04" width="1.79" height="1.81" transform="translate(-25.84 20.93) rotate(-33.09)"/><rect class="cls-3" x="22.91" y="52.06" width="1.81" height="1.81" transform="translate(-25.06 21.59) rotate(-33.09)"/><rect class="cls-3" x="24.42" y="51.08" width="1.79" height="1.81" transform="translate(-24.28 22.26) rotate(-33.09)"/><rect class="cls-2" x="25.93" y="50.1" width="1.79" height="1.81" transform="translate(-23.5 22.92) rotate(-33.09)"/><rect class="cls-2" x="27.43" y="49.12" width="1.79" height="1.81" transform="translate(-22.72 23.58) rotate(-33.09)"/><rect class="cls-2" x="28.93" y="48.13" width="1.81" height="1.81" transform="translate(-21.94 24.25) rotate(-33.09)"/><rect class="cls-2" x="30.45" y="47.15" width="1.79" height="1.81" transform="translate(-21.15 24.91) rotate(-33.09)"/><rect class="cls-2" x="31.95" y="46.17" width="1.79" height="1.81" transform="translate(-20.37 25.57) rotate(-33.09)"/><rect class="cls-2" x="33.46" y="45.19" width="1.79" height="1.81" transform="translate(-19.59 26.24) rotate(-33.09)"/><rect class="cls-2" x="34.96" y="44.2" width="1.81" height="1.81" transform="translate(-18.81 26.9) rotate(-33.09)"/><rect class="cls-3" x="36.48" y="43.22" width="1.79" height="1.81" transform="translate(-18.03 27.57) rotate(-33.09)"/><rect class="cls-2" x="37.98" y="42.24" width="1.79" height="1.81" transform="translate(-17.25 28.23) rotate(-33.09)"/><rect class="cls-2" x="39.48" y="41.26" width="1.81" height="1.81" transform="translate(-16.47 28.89) rotate(-33.09)"/><rect class="cls-2" x="41" y="40.27" width="1.79" height="1.81" transform="translate(-15.69 29.56) rotate(-33.09)"/><rect class="cls-2" x="42.5" y="39.29" width="1.79" height="1.81" transform="translate(-14.91 30.22) rotate(-33.09)"/><rect class="cls-2" x="44.01" y="38.31" width="1.79" height="1.81" transform="translate(-14.13 30.88) rotate(-33.09)"/><rect class="cls-2" x="45.51" y="37.33" width="1.81" height="1.81" transform="translate(-13.35 31.55) rotate(-33.09)"/><rect class="cls-2" x="47.02" y="36.35" width="1.79" height="1.81" transform="translate(-12.56 32.21) rotate(-33.09)"/><rect class="cls-3" x="48.53" y="35.37" width="1.79" height="1.81" transform="translate(-11.79 32.87) rotate(-33.09)"/><rect class="cls-3" x="50.03" y="34.39" width="1.79" height="1.81" transform="translate(-11.01 33.53) rotate(-33.09)"/><rect class="cls-3" x="51.53" y="33.4" width="1.81" height="1.81" transform="translate(-10.22 34.2) rotate(-33.09)"/><rect class="cls-3" x="53.05" y="32.42" width="1.79" height="1.81" transform="translate(-9.44 34.86) rotate(-33.09)"/><rect class="cls-3" x="17.41" y="53.5" width="1.79" height="1.79" transform="translate(-26.73 18.82) rotate(-33.09)"/><rect class="cls-2" x="18.92" y="52.52" width="1.79" height="1.79" transform="translate(-25.95 19.49) rotate(-33.09)"/><rect class="cls-2" x="20.42" y="51.54" width="1.79" height="1.79" transform="translate(-25.17 20.15) rotate(-33.09)"/><rect class="cls-2" x="21.92" y="50.56" width="1.81" height="1.79" transform="translate(-24.39 20.81) rotate(-33.09)"/><rect class="cls-2" x="23.44" y="49.57" width="1.79" height="1.79" transform="translate(-23.61 21.48) rotate(-33.09)"/><rect class="cls-3" x="24.94" y="48.59" width="1.79" height="1.79" transform="translate(-22.83 22.14) rotate(-33.09)"/><rect class="cls-2" x="26.45" y="47.61" width="1.79" height="1.79" transform="translate(-22.05 22.8) rotate(-33.09)"/><rect class="cls-2" x="27.95" y="46.63" width="1.81" height="1.79" transform="translate(-21.27 23.47) rotate(-33.09)"/><rect class="cls-2" x="29.47" y="45.65" width="1.79" height="1.79" transform="translate(-20.49 24.13) rotate(-33.09)"/><rect class="cls-2" x="30.97" y="44.67" width="1.79" height="1.79" transform="translate(-19.71 24.79) rotate(-33.09)"/><rect class="cls-2" x="32.47" y="43.69" width="1.79" height="1.79" transform="translate(-18.93 25.45) rotate(-33.09)"/><rect class="cls-2" x="33.97" y="42.7" width="1.81" height="1.79" transform="translate(-18.15 26.12) rotate(-33.09)"/><rect class="cls-3" x="35.49" y="41.72" width="1.79" height="1.79" transform="translate(-17.37 26.78) rotate(-33.09)"/><rect class="cls-2" x="37" y="40.74" width="1.79" height="1.79" transform="translate(-16.59 27.45) rotate(-33.09)"/><rect class="cls-2" x="38.5" y="39.75" width="1.81" height="1.79" transform="translate(-15.8 28.11) rotate(-33.09)"/><rect class="cls-2" x="40.01" y="38.77" width="1.79" height="1.79" transform="translate(-15.02 28.77) rotate(-33.09)"/><rect class="cls-2" x="41.52" y="37.79" width="1.79" height="1.79" transform="translate(-14.24 29.44) rotate(-33.09)"/><rect class="cls-2" x="43.02" y="36.81" width="1.79" height="1.79" transform="translate(-13.46 30.1) rotate(-33.09)"/><rect class="cls-2" x="44.52" y="35.83" width="1.81" height="1.79" transform="translate(-12.68 30.76) rotate(-33.09)"/><rect class="cls-3" x="46.04" y="34.84" width="1.79" height="1.79" transform="translate(-11.9 31.43) rotate(-33.09)"/><rect class="cls-2" x="47.54" y="33.86" width="1.79" height="1.79" transform="translate(-11.12 32.09) rotate(-33.09)"/><rect class="cls-2" x="49.05" y="32.88" width="1.79" height="1.79" transform="translate(-10.34 32.75) rotate(-33.09)"/><rect class="cls-2" x="50.55" y="31.9" width="1.81" height="1.79" transform="translate(-9.56 33.42) rotate(-33.09)"/><rect class="cls-2" x="52.07" y="30.92" width="1.79" height="1.79" transform="translate(-8.78 34.08) rotate(-33.09)"/><rect class="cls-3" x="53.57" y="29.94" width="1.79" height="1.79" transform="translate(-8 34.74) rotate(-33.09)"/><rect class="cls-3" x="16.43" y="52" width="1.79" height="1.79" transform="translate(-26.07 18.04) rotate(-33.09)"/><rect class="cls-2" x="17.94" y="51.02" width="1.79" height="1.79" transform="translate(-25.29 18.71) rotate(-33.09)"/><rect class="cls-2" x="19.44" y="50.04" width="1.79" height="1.79" transform="translate(-24.51 19.37) rotate(-33.09)"/><rect class="cls-2" x="20.94" y="49.05" width="1.81" height="1.79" transform="translate(-23.73 20.03) rotate(-33.09)"/><rect class="cls-2" x="22.46" y="48.07" width="1.79" height="1.79" transform="translate(-22.95 20.7) rotate(-33.09)"/><rect class="cls-3" x="23.96" y="47.09" width="1.79" height="1.79" transform="translate(-22.17 21.36) rotate(-33.09)"/><rect class="cls-2" x="25.47" y="46.11" width="1.79" height="1.79" transform="translate(-21.39 22.02) rotate(-33.09)"/><rect class="cls-2" x="26.97" y="45.13" width="1.81" height="1.79" transform="translate(-20.61 22.69) rotate(-33.09)"/><rect class="cls-2" x="28.49" y="44.14" width="1.79" height="1.79" transform="translate(-19.83 23.35) rotate(-33.09)"/><rect class="cls-2" x="29.99" y="43.16" width="1.79" height="1.79" transform="translate(-19.05 24.01) rotate(-33.09)"/><rect class="cls-2" x="31.49" y="42.18" width="1.79" height="1.79" transform="translate(-18.27 24.67) rotate(-33.09)"/><rect class="cls-2" x="32.99" y="41.2" width="1.81" height="1.79" transform="translate(-17.49 25.34) rotate(-33.09)"/><rect class="cls-3" x="34.51" y="40.21" width="1.79" height="1.79" transform="translate(-16.7 26) rotate(-33.09)"/><rect class="cls-2" x="36.02" y="39.23" width="1.79" height="1.79" transform="translate(-15.92 26.67) rotate(-33.09)"/><rect class="cls-2" x="37.52" y="38.25" width="1.81" height="1.79" transform="translate(-15.14 27.33) rotate(-33.09)"/><rect class="cls-2" x="39.03" y="37.27" width="1.79" height="1.79" transform="translate(-14.36 28) rotate(-33.09)"/><rect class="cls-2" x="40.54" y="36.29" width="1.79" height="1.79" transform="translate(-13.58 28.66) rotate(-33.09)"/><rect class="cls-2" x="42.04" y="35.31" width="1.79" height="1.79" transform="translate(-12.8 29.32) rotate(-33.09)"/><rect class="cls-3" x="43.54" y="34.32" width="1.81" height="1.79" transform="translate(-12.02 29.98) rotate(-33.09)"/><rect class="cls-2" x="45.06" y="33.34" width="1.79" height="1.79" transform="translate(-11.24 30.65) rotate(-33.09)"/><rect class="cls-2" x="46.56" y="32.36" width="1.79" height="1.79" transform="translate(-10.46 31.31) rotate(-33.09)"/><rect class="cls-2" x="48.07" y="31.38" width="1.79" height="1.79" transform="translate(-9.68 31.97) rotate(-33.09)"/><rect class="cls-2" x="49.57" y="30.4" width="1.81" height="1.79" transform="translate(-8.9 32.64) rotate(-33.09)"/><rect class="cls-2" x="51.09" y="29.41" width="1.79" height="1.79" transform="translate(-8.12 33.3) rotate(-33.09)"/><rect class="cls-2" x="52.59" y="28.43" width="1.79" height="1.79" transform="translate(-7.34 33.96) rotate(-33.09)"/><rect class="cls-3" x="54.09" y="27.45" width="1.81" height="1.79" transform="translate(-6.55 34.63) rotate(-33.09)"/><rect class="cls-3" x="15.45" y="50.49" width="1.79" height="1.79" transform="translate(-25.41 17.27) rotate(-33.09)"/><rect class="cls-2" x="16.96" y="49.51" width="1.79" height="1.79" transform="translate(-24.63 17.93) rotate(-33.09)"/><rect class="cls-2" x="18.46" y="48.53" width="1.79" height="1.79" transform="translate(-23.85 18.59) rotate(-33.09)"/><rect class="cls-2" x="19.96" y="47.55" width="1.81" height="1.79" transform="translate(-23.07 19.25) rotate(-33.09)"/><rect class="cls-2" x="21.48" y="46.57" width="1.79" height="1.79" transform="translate(-22.29 19.92) rotate(-33.09)"/><rect class="cls-3" x="22.98" y="45.59" width="1.79" height="1.79" transform="translate(-21.51 20.58) rotate(-33.09)"/><rect class="cls-2" x="24.49" y="44.61" width="1.79" height="1.79" transform="translate(-20.73 21.24) rotate(-33.09)"/><rect class="cls-2" x="25.99" y="43.62" width="1.81" height="1.79" transform="translate(-19.95 21.91) rotate(-33.09)"/><rect class="cls-2" x="27.51" y="42.64" width="1.79" height="1.79" transform="translate(-19.16 22.57) rotate(-33.09)"/><rect class="cls-2" x="29.01" y="41.66" width="1.79" height="1.79" transform="translate(-18.39 23.23) rotate(-33.09)"/><rect class="cls-2" x="30.51" y="40.68" width="1.79" height="1.79" transform="translate(-17.61 23.9) rotate(-33.09)"/><rect class="cls-2" x="32.01" y="39.7" width="1.81" height="1.79" transform="translate(-16.82 24.56) rotate(-33.09)"/><rect class="cls-3" x="33.53" y="38.71" width="1.79" height="1.79" transform="translate(-16.04 25.23) rotate(-33.09)"/><rect class="cls-2" x="35.04" y="37.73" width="1.79" height="1.79" transform="translate(-15.26 25.89) rotate(-33.09)"/><rect class="cls-2" x="36.54" y="36.75" width="1.81" height="1.79" transform="translate(-14.48 26.55) rotate(-33.09)"/><rect class="cls-2" x="38.05" y="35.76" width="1.79" height="1.79" transform="translate(-13.7 27.22) rotate(-33.09)"/><rect class="cls-2" x="39.56" y="34.78" width="1.79" height="1.79" transform="translate(-12.92 27.88) rotate(-33.09)"/><rect class="cls-2" x="41.06" y="33.8" width="1.79" height="1.79" transform="translate(-12.14 28.54) rotate(-33.09)"/><rect class="cls-3" x="42.56" y="32.82" width="1.81" height="1.79" transform="translate(-11.36 29.21) rotate(-33.09)"/><rect class="cls-2" x="44.08" y="31.84" width="1.79" height="1.79" transform="translate(-10.58 29.87) rotate(-33.09)"/><rect class="cls-2" x="45.58" y="30.86" width="1.79" height="1.79" transform="translate(-9.8 30.53) rotate(-33.09)"/><rect class="cls-2" x="47.09" y="29.88" width="1.79" height="1.79" transform="translate(-9.02 31.19) rotate(-33.09)"/><rect class="cls-2" x="48.59" y="28.89" width="1.81" height="1.79" transform="translate(-8.24 31.86) rotate(-33.09)"/><rect class="cls-2" x="50.11" y="27.91" width="1.79" height="1.79" transform="translate(-7.45 32.52) rotate(-33.09)"/><rect class="cls-2" x="51.61" y="26.93" width="1.79" height="1.79" transform="translate(-6.67 33.19) rotate(-33.09)"/><rect class="cls-3" x="53.11" y="25.94" width="1.81" height="1.79" transform="translate(-5.89 33.85) rotate(-33.09)"/><rect class="cls-3" x="12.95" y="49.96" width="1.81" height="1.81" transform="translate(-25.53 15.82) rotate(-33.09)"/><rect class="cls-2" x="14.47" y="48.98" width="1.79" height="1.81" transform="translate(-24.74 16.48) rotate(-33.09)"/><rect class="cls-2" x="15.97" y="48" width="1.79" height="1.81" transform="translate(-23.97 17.14) rotate(-33.09)"/><rect class="cls-2" x="17.48" y="47.02" width="1.79" height="1.81" transform="translate(-23.19 17.81) rotate(-33.09)"/><rect class="cls-2" x="18.98" y="46.03" width="1.81" height="1.81" transform="translate(-22.4 18.47) rotate(-33.09)"/><rect class="cls-2" x="20.5" y="45.05" width="1.79" height="1.81" transform="translate(-21.62 19.14) rotate(-33.09)"/><rect class="cls-3" x="22" y="44.07" width="1.79" height="1.81" transform="translate(-20.84 19.8) rotate(-33.09)"/><rect class="cls-2" x="23.5" y="43.09" width="1.79" height="1.81" transform="translate(-20.06 20.46) rotate(-33.09)"/><rect class="cls-2" x="25" y="42.11" width="1.81" height="1.81" transform="translate(-19.28 21.12) rotate(-33.09)"/><rect class="cls-2" x="26.52" y="41.12" width="1.79" height="1.81" transform="translate(-18.5 21.79) rotate(-33.09)"/><rect class="cls-2" x="28.03" y="40.14" width="1.79" height="1.81" transform="translate(-17.72 22.45) rotate(-33.09)"/><rect class="cls-2" x="29.53" y="39.16" width="1.79" height="1.81" transform="translate(-16.94 23.11) rotate(-33.09)"/><rect class="cls-2" x="31.03" y="38.18" width="1.81" height="1.81" transform="translate(-16.16 23.78) rotate(-33.09)"/><rect class="cls-3" x="32.55" y="37.19" width="1.79" height="1.81" transform="translate(-15.38 24.44) rotate(-33.09)"/><rect class="cls-2" x="34.05" y="36.21" width="1.79" height="1.81" transform="translate(-14.6 25.1) rotate(-33.09)"/><rect class="cls-2" x="35.55" y="35.23" width="1.81" height="1.81" transform="translate(-13.82 25.77) rotate(-33.09)"/><rect class="cls-2" x="37.07" y="34.25" width="1.79" height="1.81" transform="translate(-13.03 26.43) rotate(-33.09)"/><rect class="cls-2" x="38.57" y="33.27" width="1.79" height="1.81" transform="translate(-12.25 27.1) rotate(-33.09)"/><rect class="cls-2" x="40.08" y="32.29" width="1.79" height="1.81" transform="translate(-11.48 27.76) rotate(-33.09)"/><rect class="cls-3" x="41.58" y="31.3" width="1.81" height="1.81" transform="translate(-10.69 28.42) rotate(-33.09)"/><rect class="cls-2" x="43.1" y="30.32" width="1.79" height="1.81" transform="translate(-9.91 29.09) rotate(-33.09)"/><rect class="cls-2" x="44.6" y="29.34" width="1.79" height="1.81" transform="translate(-9.13 29.75) rotate(-33.09)"/><rect class="cls-2" x="46.1" y="28.36" width="1.79" height="1.81" transform="translate(-8.35 30.41) rotate(-33.09)"/><rect class="cls-2" x="47.61" y="27.38" width="1.81" height="1.81" transform="translate(-7.57 31.08) rotate(-33.09)"/><rect class="cls-2" x="49.12" y="26.39" width="1.79" height="1.81" transform="translate(-6.79 31.74) rotate(-33.09)"/><rect class="cls-2" x="50.63" y="25.41" width="1.79" height="1.81" transform="translate(-6.01 32.4) rotate(-33.09)"/><rect class="cls-2" x="52.13" y="24.43" width="1.81" height="1.81" transform="translate(-5.23 33.07) rotate(-33.09)"/><rect class="cls-3" x="53.65" y="23.44" width="1.79" height="1.81" transform="translate(-4.45 33.73) rotate(-33.09)"/><rect class="cls-3" x="11.97" y="48.46" width="1.81" height="1.79" transform="translate(-24.86 15.04) rotate(-33.09)"/><rect class="cls-2" x="13.49" y="47.48" width="1.79" height="1.79" transform="translate(-24.08 15.7) rotate(-33.09)"/><rect class="cls-2" x="14.99" y="46.5" width="1.79" height="1.79" transform="translate(-23.3 16.36) rotate(-33.09)"/><rect class="cls-2" x="16.49" y="45.52" width="1.79" height="1.79" transform="translate(-22.52 17.02) rotate(-33.09)"/><rect class="cls-2" x="17.99" y="44.53" width="1.81" height="1.79" transform="translate(-21.74 17.69) rotate(-33.09)"/><rect class="cls-2" x="19.51" y="43.55" width="1.79" height="1.79" transform="translate(-20.96 18.35) rotate(-33.09)"/><rect class="cls-3" x="21.01" y="42.57" width="1.79" height="1.79" transform="translate(-20.18 19.02) rotate(-33.09)"/><rect class="cls-2" x="22.52" y="41.59" width="1.79" height="1.79" transform="translate(-19.4 19.68) rotate(-33.09)"/><rect class="cls-2" x="24.02" y="40.6" width="1.81" height="1.79" transform="translate(-18.62 20.34) rotate(-33.09)"/><rect class="cls-2" x="25.54" y="39.62" width="1.79" height="1.79" transform="translate(-17.83 21.01) rotate(-33.09)"/><rect class="cls-2" x="27.04" y="38.64" width="1.79" height="1.79" transform="translate(-17.06 21.67) rotate(-33.09)"/><rect class="cls-2" x="28.54" y="37.66" width="1.79" height="1.79" transform="translate(-16.28 22.33) rotate(-33.09)"/><rect class="cls-2" x="30.05" y="36.68" width="1.81" height="1.79" transform="translate(-15.49 23) rotate(-33.09)"/><rect class="cls-3" x="31.56" y="35.69" width="1.79" height="1.79" transform="translate(-14.71 23.66) rotate(-33.09)"/><rect class="cls-2" x="33.07" y="34.71" width="1.79" height="1.79" transform="translate(-13.93 24.32) rotate(-33.09)"/><rect class="cls-2" x="34.57" y="33.73" width="1.81" height="1.79" transform="translate(-13.15 24.99) rotate(-33.09)"/><rect class="cls-2" x="36.09" y="32.74" width="1.79" height="1.79" transform="translate(-12.37 25.65) rotate(-33.09)"/><rect class="cls-2" x="37.59" y="31.76" width="1.79" height="1.79" transform="translate(-11.59 26.31) rotate(-33.09)"/><rect class="cls-2" x="39.09" y="30.78" width="1.79" height="1.79" transform="translate(-10.81 26.98) rotate(-33.09)"/><rect class="cls-3" x="40.6" y="29.8" width="1.81" height="1.79" transform="translate(-10.03 27.64) rotate(-33.09)"/><rect class="cls-2" x="42.11" y="28.82" width="1.79" height="1.79" transform="translate(-9.25 28.31) rotate(-33.09)"/><rect class="cls-2" x="43.62" y="27.84" width="1.79" height="1.79" transform="translate(-8.47 28.97) rotate(-33.09)"/><rect class="cls-2" x="45.12" y="26.86" width="1.79" height="1.79" transform="translate(-7.69 29.63) rotate(-33.09)"/><rect class="cls-2" x="46.62" y="25.87" width="1.81" height="1.79" transform="translate(-6.91 30.29) rotate(-33.09)"/><rect class="cls-2" x="48.14" y="24.89" width="1.79" height="1.79" transform="translate(-6.12 30.96) rotate(-33.09)"/><rect class="cls-2" x="49.64" y="23.91" width="1.79" height="1.79" transform="translate(-5.35 31.62) rotate(-33.09)"/><rect class="cls-2" x="51.15" y="22.92" width="1.81" height="1.79" transform="translate(-4.56 32.29) rotate(-33.09)"/><rect class="cls-3" x="52.66" y="21.94" width="1.79" height="1.79" transform="translate(-3.78 32.95) rotate(-33.09)"/><rect class="cls-3" x="10.99" y="46.96" width="1.81" height="1.79" transform="translate(-24.2 14.26) rotate(-33.09)"/><rect class="cls-2" x="12.51" y="45.97" width="1.79" height="1.79" transform="translate(-23.42 14.92) rotate(-33.09)"/><rect class="cls-2" x="14.01" y="44.99" width="1.79" height="1.79" transform="translate(-22.64 15.58) rotate(-33.09)"/><rect class="cls-2" x="15.51" y="44.01" width="1.79" height="1.79" transform="translate(-21.86 16.25) rotate(-33.09)"/><rect class="cls-2" x="17.01" y="43.03" width="1.81" height="1.79" transform="translate(-21.08 16.91) rotate(-33.09)"/><rect class="cls-2" x="18.53" y="42.04" width="1.79" height="1.79" transform="translate(-20.3 17.58) rotate(-33.09)"/><rect class="cls-3" x="20.03" y="41.06" width="1.79" height="1.79" transform="translate(-19.52 18.24) rotate(-33.09)"/><rect class="cls-2" x="21.54" y="40.08" width="1.79" height="1.79" transform="translate(-18.74 18.9) rotate(-33.09)"/><rect class="cls-2" x="23.04" y="39.1" width="1.81" height="1.79" transform="translate(-17.96 19.56) rotate(-33.09)"/><rect class="cls-2" x="24.56" y="38.12" width="1.79" height="1.79" transform="translate(-17.17 20.23) rotate(-33.09)"/><rect class="cls-2" x="26.06" y="37.14" width="1.79" height="1.79" transform="translate(-16.39 20.89) rotate(-33.09)"/><rect class="cls-2" x="27.56" y="36.16" width="1.79" height="1.79" transform="translate(-15.61 21.55) rotate(-33.09)"/><rect class="cls-2" x="29.07" y="35.17" width="1.81" height="1.79" transform="translate(-14.83 22.22) rotate(-33.09)"/><rect class="cls-3" x="30.58" y="34.19" width="1.79" height="1.79" transform="translate(-14.05 22.88) rotate(-33.09)"/><rect class="cls-2" x="32.09" y="33.21" width="1.79" height="1.79" transform="translate(-13.27 23.54) rotate(-33.09)"/><rect class="cls-2" x="33.59" y="32.22" width="1.81" height="1.79" transform="translate(-12.49 24.21) rotate(-33.09)"/><rect class="cls-2" x="35.11" y="31.24" width="1.79" height="1.79" transform="translate(-11.71 24.87) rotate(-33.09)"/><rect class="cls-2" x="36.61" y="30.26" width="1.79" height="1.79" transform="translate(-10.93 25.54) rotate(-33.09)"/><rect class="cls-2" x="38.11" y="29.28" width="1.79" height="1.79" transform="translate(-10.15 26.2) rotate(-33.09)"/><rect class="cls-3" x="39.62" y="28.3" width="1.81" height="1.79" transform="translate(-9.37 26.86) rotate(-33.09)"/><rect class="cls-2" x="41.13" y="27.31" width="1.79" height="1.79" transform="translate(-8.58 27.53) rotate(-33.09)"/><rect class="cls-2" x="42.64" y="26.33" width="1.79" height="1.79" transform="translate(-7.81 28.19) rotate(-33.09)"/><rect class="cls-2" x="44.14" y="25.35" width="1.79" height="1.79" transform="translate(-7.03 28.85) rotate(-33.09)"/><rect class="cls-2" x="45.64" y="24.37" width="1.81" height="1.79" transform="translate(-6.24 29.52) rotate(-33.09)"/><rect class="cls-2" x="47.16" y="23.39" width="1.79" height="1.79" transform="translate(-5.46 30.18) rotate(-33.09)"/><rect class="cls-2" x="48.66" y="22.41" width="1.79" height="1.79" transform="translate(-4.68 30.84) rotate(-33.09)"/><rect class="cls-2" x="50.17" y="21.42" width="1.81" height="1.79" transform="translate(-3.9 31.51) rotate(-33.09)"/><rect class="cls-3" x="51.68" y="20.44" width="1.79" height="1.79" transform="translate(-3.12 32.17) rotate(-33.09)"/><rect class="cls-3" x="8.51" y="46.44" width="1.79" height="1.79" transform="translate(-24.32 12.81) rotate(-33.09)"/><rect class="cls-2" x="10.01" y="45.45" width="1.81" height="1.79" transform="translate(-23.54 13.48) rotate(-33.09)"/><rect class="cls-2" x="11.53" y="44.47" width="1.79" height="1.79" transform="translate(-22.76 14.14) rotate(-33.09)"/><rect class="cls-2" x="13.03" y="43.49" width="1.79" height="1.79" transform="translate(-21.98 14.8) rotate(-33.09)"/><rect class="cls-2" x="14.53" y="42.51" width="1.79" height="1.79" transform="translate(-21.2 15.47) rotate(-33.09)"/><rect class="cls-2" x="16.03" y="41.52" width="1.81" height="1.79" transform="translate(-20.42 16.13) rotate(-33.09)"/><rect class="cls-2" x="17.55" y="40.54" width="1.79" height="1.79" transform="translate(-19.63 16.8) rotate(-33.09)"/><rect class="cls-3" x="19.06" y="39.56" width="1.79" height="1.79" transform="translate(-18.85 17.46) rotate(-33.09)"/><rect class="cls-2" x="20.56" y="38.58" width="1.79" height="1.79" transform="translate(-18.08 18.12) rotate(-33.09)"/><rect class="cls-2" x="22.06" y="37.6" width="1.81" height="1.79" transform="translate(-17.29 18.78) rotate(-33.09)"/><rect class="cls-2" x="23.58" y="36.61" width="1.79" height="1.79" transform="translate(-16.51 19.45) rotate(-33.09)"/><rect class="cls-2" x="25.08" y="35.63" width="1.79" height="1.79" transform="translate(-15.73 20.11) rotate(-33.09)"/><rect class="cls-2" x="26.58" y="34.65" width="1.79" height="1.79" transform="translate(-14.95 20.77) rotate(-33.09)"/><rect class="cls-2" x="28.09" y="33.67" width="1.81" height="1.79" transform="translate(-14.17 21.44) rotate(-33.09)"/><rect class="cls-3" x="29.6" y="32.69" width="1.79" height="1.79" transform="translate(-13.39 22.1) rotate(-33.09)"/><rect class="cls-2" x="31.11" y="31.71" width="1.79" height="1.79" transform="translate(-12.61 22.76) rotate(-33.09)"/><rect class="cls-2" x="32.61" y="30.72" width="1.81" height="1.79" transform="translate(-11.83 23.43) rotate(-33.09)"/><rect class="cls-2" x="34.13" y="29.74" width="1.79" height="1.79" transform="translate(-11.05 24.09) rotate(-33.09)"/><rect class="cls-2" x="35.63" y="28.76" width="1.79" height="1.79" transform="translate(-10.27 24.76) rotate(-33.09)"/><rect class="cls-2" x="37.13" y="27.78" width="1.79" height="1.79" transform="translate(-9.49 25.42) rotate(-33.09)"/><rect class="cls-3" x="38.64" y="26.79" width="1.81" height="1.79" transform="translate(-8.71 26.08) rotate(-33.09)"/><rect class="cls-2" x="40.15" y="25.81" width="1.79" height="1.79" transform="translate(-7.92 26.75) rotate(-33.09)"/><rect class="cls-2" x="41.66" y="24.83" width="1.79" height="1.79" transform="translate(-7.14 27.41) rotate(-33.09)"/><rect class="cls-2" x="43.16" y="23.85" width="1.79" height="1.79" transform="translate(-6.36 28.07) rotate(-33.09)"/><rect class="cls-2" x="44.66" y="22.87" width="1.81" height="1.79" transform="translate(-5.58 28.74) rotate(-33.09)"/><rect class="cls-2" x="46.18" y="21.88" width="1.79" height="1.79" transform="translate(-4.8 29.4) rotate(-33.09)"/><rect class="cls-2" x="47.68" y="20.9" width="1.79" height="1.79" transform="translate(-4.02 30.06) rotate(-33.09)"/><rect class="cls-2" x="49.19" y="19.92" width="1.81" height="1.79" transform="translate(-3.24 30.73) rotate(-33.09)"/><rect class="cls-2" x="50.7" y="18.93" width="1.79" height="1.79" transform="translate(-2.46 31.39) rotate(-33.09)"/><rect class="cls-3" x="52.21" y="17.95" width="1.79" height="1.79" transform="translate(-1.68 32.05) rotate(-33.09)"/><rect class="cls-3" x="7.52" y="44.92" width="1.79" height="1.81" transform="translate(-23.66 12.03) rotate(-33.09)"/><rect class="cls-2" x="9.02" y="43.94" width="1.81" height="1.81" transform="translate(-22.87 12.7) rotate(-33.09)"/><rect class="cls-2" x="10.54" y="42.95" width="1.79" height="1.81" transform="translate(-22.09 13.36) rotate(-33.09)"/><rect class="cls-2" x="12.04" y="41.97" width="1.79" height="1.81" transform="translate(-21.31 14.02) rotate(-33.09)"/><rect class="cls-2" x="13.55" y="40.99" width="1.79" height="1.81" transform="translate(-20.53 14.68) rotate(-33.09)"/><rect class="cls-2" x="15.05" y="40.01" width="1.81" height="1.81" transform="translate(-19.75 15.35) rotate(-33.09)"/><rect class="cls-2" x="16.57" y="39.02" width="1.79" height="1.81" transform="translate(-18.97 16.01) rotate(-33.09)"/><rect class="cls-3" x="18.07" y="38.04" width="1.79" height="1.81" transform="translate(-18.19 16.68) rotate(-33.09)"/><rect class="cls-2" x="19.57" y="37.06" width="1.79" height="1.81" transform="translate(-17.41 17.34) rotate(-33.09)"/><rect class="cls-2" x="21.08" y="36.08" width="1.81" height="1.81" transform="translate(-16.63 18) rotate(-33.09)"/><rect class="cls-2" x="22.59" y="35.1" width="1.79" height="1.81" transform="translate(-15.85 18.67) rotate(-33.09)"/><rect class="cls-2" x="24.1" y="34.12" width="1.79" height="1.81" transform="translate(-15.07 19.33) rotate(-33.09)"/><rect class="cls-2" x="25.6" y="33.14" width="1.79" height="1.81" transform="translate(-14.29 19.99) rotate(-33.09)"/><rect class="cls-2" x="27.1" y="32.15" width="1.81" height="1.81" transform="translate(-13.51 20.66) rotate(-33.09)"/><rect class="cls-3" x="28.62" y="31.17" width="1.79" height="1.81" transform="translate(-12.72 21.32) rotate(-33.09)"/><rect class="cls-2" x="30.12" y="30.19" width="1.79" height="1.81" transform="translate(-11.94 21.98) rotate(-33.09)"/><rect class="cls-2" x="31.63" y="29.2" width="1.81" height="1.81" transform="translate(-11.16 22.65) rotate(-33.09)"/><rect class="cls-2" x="33.14" y="28.22" width="1.79" height="1.81" transform="translate(-10.38 23.31) rotate(-33.09)"/><rect class="cls-2" x="34.65" y="27.24" width="1.79" height="1.81" transform="translate(-9.6 23.97) rotate(-33.09)"/><rect class="cls-2" x="36.15" y="26.26" width="1.79" height="1.81" transform="translate(-8.82 24.64) rotate(-33.09)"/><rect class="cls-3" x="37.65" y="25.28" width="1.81" height="1.81" transform="translate(-8.04 25.3) rotate(-33.09)"/><rect class="cls-2" x="39.17" y="24.29" width="1.79" height="1.81" transform="translate(-7.26 25.97) rotate(-33.09)"/><rect class="cls-2" x="40.67" y="23.31" width="1.79" height="1.81" transform="translate(-6.48 26.63) rotate(-33.09)"/><rect class="cls-2" x="42.18" y="22.33" width="1.79" height="1.81" transform="translate(-5.7 27.29) rotate(-33.09)"/><rect class="cls-2" x="43.68" y="21.35" width="1.81" height="1.81" transform="translate(-4.92 27.95) rotate(-33.09)"/><rect class="cls-2" x="45.2" y="20.36" width="1.79" height="1.81" transform="translate(-4.14 28.62) rotate(-33.09)"/><rect class="cls-2" x="46.7" y="19.38" width="1.79" height="1.81" transform="translate(-3.36 29.28) rotate(-33.09)"/><rect class="cls-2" x="48.2" y="18.4" width="1.81" height="1.81" transform="translate(-2.57 29.95) rotate(-33.09)"/><rect class="cls-2" x="49.72" y="17.42" width="1.79" height="1.81" transform="translate(-1.79 30.61) rotate(-33.09)"/><rect class="cls-3" x="51.22" y="16.44" width="1.79" height="1.81" transform="translate(-1.01 31.27) rotate(-33.09)"/><rect class="cls-3" x="6.54" y="43.42" width="1.79" height="1.79" transform="translate(-22.99 11.25) rotate(-33.09)"/><rect class="cls-2" x="8.04" y="42.43" width="1.81" height="1.79" transform="translate(-22.21 11.91) rotate(-33.09)"/><rect class="cls-2" x="9.56" y="41.45" width="1.79" height="1.79" transform="translate(-21.43 12.58) rotate(-33.09)"/><rect class="cls-2" x="11.06" y="40.47" width="1.79" height="1.79" transform="translate(-20.65 13.24) rotate(-33.09)"/><rect class="cls-2" x="12.56" y="39.49" width="1.79" height="1.79" transform="translate(-19.87 13.9) rotate(-33.09)"/><rect class="cls-2" x="14.07" y="38.51" width="1.81" height="1.79" transform="translate(-19.09 14.57) rotate(-33.09)"/><rect class="cls-2" x="15.58" y="37.52" width="1.79" height="1.79" transform="translate(-18.3 15.23) rotate(-33.09)"/><rect class="cls-3" x="17.09" y="36.54" width="1.79" height="1.79" transform="translate(-17.52 15.89) rotate(-33.09)"/><rect class="cls-2" x="18.59" y="35.56" width="1.79" height="1.79" transform="translate(-16.75 16.56) rotate(-33.09)"/><rect class="cls-2" x="20.09" y="34.58" width="1.81" height="1.79" transform="translate(-15.96 17.22) rotate(-33.09)"/><rect class="cls-2" x="21.61" y="33.59" width="1.79" height="1.79" transform="translate(-15.18 17.89) rotate(-33.09)"/><rect class="cls-2" x="23.11" y="32.61" width="1.79" height="1.79" transform="translate(-14.4 18.55) rotate(-33.09)"/><rect class="cls-2" x="24.62" y="31.63" width="1.79" height="1.79" transform="translate(-13.62 19.21) rotate(-33.09)"/><rect class="cls-2" x="26.12" y="30.65" width="1.81" height="1.79" transform="translate(-12.84 19.87) rotate(-33.09)"/><rect class="cls-3" x="27.64" y="29.67" width="1.79" height="1.79" transform="translate(-12.06 20.54) rotate(-33.09)"/><rect class="cls-2" x="29.14" y="28.69" width="1.79" height="1.79" transform="translate(-11.28 21.2) rotate(-33.09)"/><rect class="cls-2" x="30.64" y="27.7" width="1.81" height="1.79" transform="translate(-10.5 21.87) rotate(-33.09)"/><rect class="cls-2" x="32.16" y="26.72" width="1.79" height="1.79" transform="translate(-9.72 22.53) rotate(-33.09)"/><rect class="cls-2" x="33.66" y="25.74" width="1.79" height="1.79" transform="translate(-8.94 23.19) rotate(-33.09)"/><rect class="cls-2" x="35.17" y="24.76" width="1.79" height="1.79" transform="translate(-8.16 23.85) rotate(-33.09)"/><rect class="cls-3" x="36.67" y="23.77" width="1.81" height="1.79" transform="translate(-7.38 24.52) rotate(-33.09)"/><rect class="cls-2" x="38.19" y="22.79" width="1.79" height="1.79" transform="translate(-6.59 25.18) rotate(-33.09)"/><rect class="cls-2" x="39.69" y="21.81" width="1.79" height="1.79" transform="translate(-5.81 25.85) rotate(-33.09)"/><rect class="cls-2" x="41.19" y="20.83" width="1.79" height="1.79" transform="translate(-5.04 26.51) rotate(-33.09)"/><rect class="cls-2" x="42.69" y="19.85" width="1.81" height="1.79" transform="translate(-4.25 27.17) rotate(-33.09)"/><rect class="cls-2" x="44.21" y="18.86" width="1.79" height="1.79" transform="translate(-3.47 27.84) rotate(-33.09)"/><rect class="cls-2" x="45.72" y="17.88" width="1.79" height="1.79" transform="translate(-2.69 28.5) rotate(-33.09)"/><rect class="cls-2" x="47.22" y="16.9" width="1.81" height="1.79" transform="translate(-1.91 29.16) rotate(-33.09)"/><rect class="cls-2" x="48.73" y="15.91" width="1.79" height="1.79" transform="translate(-1.13 29.83) rotate(-33.09)"/><rect class="cls-3" x="50.24" y="14.93" width="1.79" height="1.79" transform="translate(-.35 30.49) rotate(-33.09)"/><rect class="cls-3" x="5.56" y="41.91" width="1.79" height="1.79" transform="translate(-22.33 10.47) rotate(-33.09)"/><rect class="cls-3" x="7.06" y="40.93" width="1.81" height="1.79" transform="translate(-21.55 11.13) rotate(-33.09)"/><rect class="cls-3" x="8.58" y="39.95" width="1.79" height="1.79" transform="translate(-20.76 11.8) rotate(-33.09)"/><rect class="cls-3" x="10.08" y="38.97" width="1.79" height="1.79" transform="translate(-19.99 12.46) rotate(-33.09)"/><rect class="cls-3" x="11.58" y="37.99" width="1.79" height="1.79" transform="translate(-19.21 13.12) rotate(-33.09)"/><rect class="cls-3" x="13.09" y="37" width="1.81" height="1.79" transform="translate(-18.42 13.79) rotate(-33.09)"/><rect class="cls-3" x="14.6" y="36.02" width="1.79" height="1.79" transform="translate(-17.64 14.45) rotate(-33.09)"/><rect class="cls-3" x="16.11" y="35.04" width="1.79" height="1.79" transform="translate(-16.86 15.11) rotate(-33.09)"/><rect class="cls-3" x="17.61" y="34.06" width="1.79" height="1.79" transform="translate(-16.08 15.78) rotate(-33.09)"/><rect class="cls-3" x="19.11" y="33.07" width="1.81" height="1.79" transform="translate(-15.3 16.44) rotate(-33.09)"/><rect class="cls-3" x="20.63" y="32.09" width="1.79" height="1.79" transform="translate(-14.52 17.11) rotate(-33.09)"/><rect class="cls-3" x="22.13" y="31.11" width="1.79" height="1.79" transform="translate(-13.74 17.77) rotate(-33.09)"/><rect class="cls-3" x="23.64" y="30.13" width="1.79" height="1.79" transform="translate(-12.96 18.43) rotate(-33.09)"/><rect class="cls-3" x="25.14" y="29.15" width="1.81" height="1.79" transform="translate(-12.18 19.09) rotate(-33.09)"/><rect class="cls-3" x="26.66" y="28.16" width="1.79" height="1.79" transform="translate(-11.4 19.76) rotate(-33.09)"/><rect class="cls-3" x="28.16" y="27.18" width="1.79" height="1.79" transform="translate(-10.62 20.42) rotate(-33.09)"/><rect class="cls-3" x="29.66" y="26.2" width="1.81" height="1.79" transform="translate(-9.84 21.09) rotate(-33.09)"/><rect class="cls-3" x="31.18" y="25.21" width="1.79" height="1.79" transform="translate(-9.05 21.75) rotate(-33.09)"/><rect class="cls-3" x="32.68" y="24.23" width="1.79" height="1.79" transform="translate(-8.27 22.41) rotate(-33.09)"/><rect class="cls-3" x="34.19" y="23.25" width="1.79" height="1.79" transform="translate(-7.5 23.07) rotate(-33.09)"/><rect class="cls-3" x="35.69" y="22.27" width="1.81" height="1.79" transform="translate(-6.71 23.74) rotate(-33.09)"/><rect class="cls-3" x="37.21" y="21.29" width="1.79" height="1.79" transform="translate(-5.93 24.4) rotate(-33.09)"/><rect class="cls-3" x="38.71" y="20.31" width="1.79" height="1.79" transform="translate(-5.15 25.07) rotate(-33.09)"/><rect class="cls-3" x="40.21" y="19.33" width="1.79" height="1.79" transform="translate(-4.37 25.73) rotate(-33.09)"/><rect class="cls-3" x="41.71" y="18.34" width="1.81" height="1.79" transform="translate(-3.59 26.39) rotate(-33.09)"/><rect class="cls-3" x="43.23" y="17.36" width="1.79" height="1.79" transform="translate(-2.81 27.06) rotate(-33.09)"/><rect class="cls-3" x="44.74" y="16.38" width="1.79" height="1.79" transform="translate(-2.03 27.72) rotate(-33.09)"/><rect class="cls-3" x="46.24" y="15.4" width="1.81" height="1.79" transform="translate(-1.25 28.38) rotate(-33.09)"/><rect class="cls-3" x="47.75" y="14.41" width="1.79" height="1.79" transform="translate(-.47 29.05) rotate(-33.09)"/><rect class="cls-3" x="49.26" y="13.43" width="1.79" height="1.79" transform="translate(.31 29.71) rotate(-33.09)"/><rect class="cls-3" x="4.57" y="40.4" width="1.79" height="1.81" transform="translate(-21.66 9.69) rotate(-33.09)"/><rect class="cls-2" x="6.08" y="39.41" width="1.81" height="1.81" transform="translate(-20.88 10.35) rotate(-33.09)"/><rect class="cls-2" x="7.59" y="38.43" width="1.79" height="1.81" transform="translate(-20.1 11.02) rotate(-33.09)"/><rect class="cls-2" x="9.1" y="37.45" width="1.79" height="1.81" transform="translate(-19.32 11.68) rotate(-33.09)"/><rect class="cls-2" x="10.6" y="36.47" width="1.79" height="1.81" transform="translate(-18.54 12.34) rotate(-33.09)"/><rect class="cls-2" x="12.1" y="35.48" width="1.81" height="1.81" transform="translate(-17.76 13.01) rotate(-33.09)"/><rect class="cls-2" x="13.62" y="34.5" width="1.79" height="1.81" transform="translate(-16.98 13.67) rotate(-33.09)"/><rect class="cls-3" x="15.12" y="33.52" width="1.79" height="1.81" transform="translate(-16.2 14.33) rotate(-33.09)"/><rect class="cls-2" x="16.63" y="32.54" width="1.79" height="1.81" transform="translate(-15.42 14.99) rotate(-33.09)"/><rect class="cls-2" x="18.13" y="31.56" width="1.81" height="1.81" transform="translate(-14.64 15.66) rotate(-33.09)"/><rect class="cls-2" x="19.65" y="30.57" width="1.79" height="1.81" transform="translate(-13.85 16.32) rotate(-33.09)"/><rect class="cls-2" x="21.15" y="29.59" width="1.79" height="1.81" transform="translate(-13.08 16.99) rotate(-33.09)"/><rect class="cls-2" x="22.65" y="28.61" width="1.79" height="1.81" transform="translate(-12.3 17.65) rotate(-33.09)"/><polygon class="cls-2" points="26.31 28.8 24.8 29.79 23.81 28.27 23.82 28.26 25.32 27.28 26.31 28.8"/><rect class="cls-3" x="25.67" y="26.65" width="1.79" height="1.81" transform="translate(-10.73 18.98) rotate(-33.09)"/><rect class="cls-2" x="27.18" y="25.67" width="1.79" height="1.81" transform="translate(-9.95 19.64) rotate(-33.09)"/><rect class="cls-2" x="28.68" y="24.68" width="1.81" height="1.81" transform="translate(-9.17 20.3) rotate(-33.09)"/><rect class="cls-2" x="30.2" y="23.7" width="1.79" height="1.81" transform="translate(-8.39 20.97) rotate(-33.09)"/><rect class="cls-2" x="31.7" y="22.72" width="1.79" height="1.81" transform="translate(-7.61 21.63) rotate(-33.09)"/><rect class="cls-2" x="33.2" y="21.74" width="1.79" height="1.81" transform="translate(-6.83 22.29) rotate(-33.09)"/><rect class="cls-3" x="34.7" y="20.75" width="1.81" height="1.81" transform="translate(-6.05 22.96) rotate(-33.09)"/><rect class="cls-2" x="36.22" y="19.77" width="1.79" height="1.81" transform="translate(-5.27 23.62) rotate(-33.09)"/><rect class="cls-2" x="37.73" y="18.79" width="1.79" height="1.81" transform="translate(-4.49 24.28) rotate(-33.09)"/><rect class="cls-2" x="39.23" y="17.81" width="1.79" height="1.81" transform="translate(-3.71 24.95) rotate(-33.09)"/><rect class="cls-2" x="40.73" y="16.83" width="1.81" height="1.81" transform="translate(-2.93 25.61) rotate(-33.09)"/><rect class="cls-2" x="42.25" y="15.84" width="1.79" height="1.81" transform="translate(-2.14 26.28) rotate(-33.09)"/><rect class="cls-2" x="43.75" y="14.86" width="1.79" height="1.81" transform="translate(-1.37 26.94) rotate(-33.09)"/><rect class="cls-2" x="45.25" y="13.88" width="1.81" height="1.81" transform="translate(-.58 27.6) rotate(-33.09)"/><rect class="cls-2" x="46.77" y="12.89" width="1.79" height="1.81" transform="translate(.2 28.27) rotate(-33.09)"/><rect class="cls-3" x="48.27" y="11.91" width="1.79" height="1.81" transform="translate(.98 28.93) rotate(-33.09)"/><rect class="cls-3" x="3.59" y="38.89" width="1.79" height="1.79" transform="translate(-21 8.91) rotate(-33.09)"/><rect class="cls-2" x="5.09" y="37.91" width="1.81" height="1.79" transform="translate(-20.22 9.57) rotate(-33.09)"/><rect class="cls-2" x="6.61" y="36.93" width="1.79" height="1.79" transform="translate(-19.43 10.24) rotate(-33.09)"/><rect class="cls-2" x="8.11" y="35.95" width="1.79" height="1.79" transform="translate(-18.66 10.9) rotate(-33.09)"/><rect class="cls-2" x="9.62" y="34.97" width="1.79" height="1.79" transform="translate(-17.88 11.56) rotate(-33.09)"/><rect class="cls-2" x="11.12" y="33.98" width="1.81" height="1.79" transform="translate(-17.09 12.22) rotate(-33.09)"/><rect class="cls-2" x="12.64" y="33" width="1.79" height="1.79" transform="translate(-16.31 12.89) rotate(-33.09)"/><rect class="cls-3" x="14.14" y="32.02" width="1.79" height="1.79" transform="translate(-15.53 13.55) rotate(-33.09)"/><rect class="cls-2" x="15.64" y="31.04" width="1.79" height="1.79" transform="translate(-14.75 14.21) rotate(-33.09)"/><rect class="cls-2" x="17.15" y="30.05" width="1.81" height="1.79" transform="translate(-13.97 14.88) rotate(-33.09)"/><rect class="cls-2" x="18.66" y="29.07" width="1.79" height="1.79" transform="translate(-13.19 15.54) rotate(-33.09)"/><rect class="cls-2" x="20.17" y="28.09" width="1.79" height="1.79" transform="translate(-12.41 16.2) rotate(-33.09)"/><rect class="cls-2" x="21.67" y="27.11" width="1.79" height="1.79" transform="translate(-11.63 16.87) rotate(-33.09)"/><polygon class="cls-2" points="23.82 28.26 23.81 28.27 22.83 26.77 22.84 26.76 24.34 25.78 25.32 27.28 23.82 28.26"/><rect class="cls-3" x="24.69" y="25.14" width="1.79" height="1.79" transform="translate(-10.07 18.2) rotate(-33.09)"/><rect class="cls-2" x="26.19" y="24.16" width="1.79" height="1.79" transform="translate(-9.29 18.86) rotate(-33.09)"/><rect class="cls-2" x="27.69" y="23.18" width="1.81" height="1.79" transform="translate(-8.51 19.52) rotate(-33.09)"/><rect class="cls-2" x="29.21" y="22.2" width="1.79" height="1.79" transform="translate(-7.72 20.19) rotate(-33.09)"/><rect class="cls-2" x="30.71" y="21.22" width="1.79" height="1.79" transform="translate(-6.95 20.85) rotate(-33.09)"/><rect class="cls-2" x="32.22" y="20.24" width="1.79" height="1.79" transform="translate(-6.17 21.51) rotate(-33.09)"/><rect class="cls-3" x="33.72" y="19.25" width="1.81" height="1.79" transform="translate(-5.38 22.18) rotate(-33.09)"/><rect class="cls-2" x="35.24" y="18.27" width="1.79" height="1.79" transform="translate(-4.6 22.84) rotate(-33.09)"/><rect class="cls-2" x="36.74" y="17.29" width="1.79" height="1.79" transform="translate(-3.82 23.5) rotate(-33.09)"/><rect class="cls-2" x="38.24" y="16.31" width="1.79" height="1.79" transform="translate(-3.04 24.16) rotate(-33.09)"/><rect class="cls-2" x="39.75" y="15.32" width="1.81" height="1.79" transform="translate(-2.26 24.83) rotate(-33.09)"/><rect class="cls-2" x="41.26" y="14.34" width="1.79" height="1.79" transform="translate(-1.48 25.49) rotate(-33.09)"/><rect class="cls-2" x="42.77" y="13.36" width="1.79" height="1.79" transform="translate(-.7 26.16) rotate(-33.09)"/><rect class="cls-2" x="44.27" y="12.38" width="1.81" height="1.79" transform="translate(.08 26.82) rotate(-33.09)"/><rect class="cls-2" x="45.79" y="11.39" width="1.79" height="1.79" transform="translate(.86 27.48) rotate(-33.09)"/><rect class="cls-3" x="47.29" y="10.41" width="1.79" height="1.79" transform="translate(1.64 28.15) rotate(-33.09)"/><rect class="cls-3" x="4.11" y="36.41" width="1.81" height="1.79" transform="translate(-19.55 8.79) rotate(-33.09)"/><rect class="cls-2" x="5.63" y="35.42" width="1.79" height="1.79" transform="translate(-18.77 9.46) rotate(-33.09)"/><rect class="cls-2" x="7.13" y="34.44" width="1.79" height="1.79" transform="translate(-17.99 10.12) rotate(-33.09)"/><rect class="cls-2" x="8.64" y="33.46" width="1.79" height="1.79" transform="translate(-17.21 10.78) rotate(-33.09)"/><rect class="cls-2" x="10.14" y="32.48" width="1.81" height="1.79" transform="translate(-16.43 11.44) rotate(-33.09)"/><rect class="cls-2" x="11.66" y="31.49" width="1.79" height="1.79" transform="translate(-15.65 12.11) rotate(-33.09)"/><rect class="cls-3" x="13.16" y="30.51" width="1.79" height="1.79" transform="translate(-14.87 12.77) rotate(-33.09)"/><rect class="cls-2" x="14.66" y="29.54" width="1.79" height="1.79" transform="translate(-14.09 13.43) rotate(-33.09)"/><rect class="cls-2" x="16.17" y="28.55" width="1.81" height="1.79" transform="translate(-13.31 14.1) rotate(-33.09)"/><rect class="cls-2" x="17.68" y="27.57" width="1.79" height="1.79" transform="translate(-12.53 14.76) rotate(-33.09)"/><rect class="cls-2" x="19.19" y="26.59" width="1.79" height="1.79" transform="translate(-11.75 15.42) rotate(-33.09)"/><rect class="cls-2" x="20.69" y="25.61" width="1.79" height="1.79" transform="translate(-10.97 16.09) rotate(-33.09)"/><polygon class="cls-2" points="22.84 26.76 22.83 26.77 21.85 25.26 23.36 24.27 24.34 25.78 22.84 26.76"/><rect class="cls-3" x="23.71" y="23.64" width="1.79" height="1.79" transform="translate(-9.41 17.42) rotate(-33.09)"/><rect class="cls-2" x="25.21" y="22.66" width="1.79" height="1.79" transform="translate(-8.63 18.08) rotate(-33.09)"/><rect class="cls-2" x="26.71" y="21.68" width="1.81" height="1.79" transform="translate(-7.84 18.74) rotate(-33.09)"/><rect class="cls-2" x="28.23" y="20.69" width="1.79" height="1.79" transform="translate(-7.06 19.41) rotate(-33.09)"/><rect class="cls-2" x="29.73" y="19.71" width="1.79" height="1.79" transform="translate(-6.28 20.07) rotate(-33.09)"/><rect class="cls-2" x="31.24" y="18.73" width="1.79" height="1.79" transform="translate(-5.5 20.73) rotate(-33.09)"/><rect class="cls-3" x="32.74" y="17.75" width="1.81" height="1.79" transform="translate(-4.72 21.4) rotate(-33.09)"/><rect class="cls-2" x="34.26" y="16.76" width="1.79" height="1.79" transform="translate(-3.94 22.06) rotate(-33.09)"/><rect class="cls-2" x="35.76" y="15.78" width="1.79" height="1.79" transform="translate(-3.16 22.72) rotate(-33.09)"/><rect class="cls-2" x="37.26" y="14.8" width="1.79" height="1.79" transform="translate(-2.38 23.38) rotate(-33.09)"/><rect class="cls-2" x="38.77" y="13.82" width="1.81" height="1.79" transform="translate(-1.6 24.05) rotate(-33.09)"/><rect class="cls-2" x="40.28" y="12.84" width="1.79" height="1.79" transform="translate(-.82 24.71) rotate(-33.09)"/><rect class="cls-2" x="41.79" y="11.86" width="1.79" height="1.79" transform="translate(-.04 25.38) rotate(-33.09)"/><rect class="cls-2" x="43.29" y="10.87" width="1.81" height="1.79" transform="translate(.74 26.04) rotate(-33.09)"/><rect class="cls-2" x="44.81" y="9.89" width="1.79" height="1.79" transform="translate(1.53 26.71) rotate(-33.09)"/><rect class="cls-3" x="46.31" y="8.91" width="1.79" height="1.79" transform="translate(2.3 27.37) rotate(-33.09)"/><rect class="cls-3" x="3.13" y="34.9" width="1.81" height="1.79" transform="translate(-18.89 8.01) rotate(-33.09)"/><rect class="cls-2" x="4.65" y="33.92" width="1.79" height="1.79" transform="translate(-18.11 8.68) rotate(-33.09)"/><rect class="cls-2" x="6.15" y="32.94" width="1.79" height="1.79" transform="translate(-17.33 9.34) rotate(-33.09)"/><rect class="cls-2" x="7.66" y="31.96" width="1.79" height="1.79" transform="translate(-16.55 10) rotate(-33.09)"/><rect class="cls-2" x="9.16" y="30.98" width="1.81" height="1.79" transform="translate(-15.77 10.67) rotate(-33.09)"/><rect class="cls-2" x="10.68" y="29.99" width="1.79" height="1.79" transform="translate(-14.99 11.33) rotate(-33.09)"/><rect class="cls-3" x="12.18" y="29.01" width="1.79" height="1.79" transform="translate(-14.21 11.99) rotate(-33.09)"/><rect class="cls-2" x="13.68" y="28.03" width="1.79" height="1.79" transform="translate(-13.43 12.65) rotate(-33.09)"/><rect class="cls-2" x="15.19" y="27.05" width="1.81" height="1.79" transform="translate(-12.65 13.32) rotate(-33.09)"/><rect class="cls-2" x="16.7" y="26.06" width="1.79" height="1.79" transform="translate(-11.87 13.98) rotate(-33.09)"/><rect class="cls-2" x="18.21" y="25.08" width="1.79" height="1.79" transform="translate(-11.09 14.65) rotate(-33.09)"/><rect class="cls-2" x="19.71" y="24.1" width="1.79" height="1.79" transform="translate(-10.31 15.31) rotate(-33.09)"/><rect class="cls-2" x="21.21" y="23.12" width="1.81" height="1.79" transform="translate(-9.53 15.97) rotate(-33.09)"/><rect class="cls-3" x="22.73" y="22.14" width="1.79" height="1.79" transform="translate(-8.74 16.64) rotate(-33.09)"/><rect class="cls-2" x="24.23" y="21.16" width="1.79" height="1.79" transform="translate(-7.96 17.3) rotate(-33.09)"/><rect class="cls-2" x="25.73" y="20.17" width="1.81" height="1.79" transform="translate(-7.18 17.96) rotate(-33.09)"/><rect class="cls-2" x="27.25" y="19.19" width="1.79" height="1.79" transform="translate(-6.4 18.63) rotate(-33.09)"/><rect class="cls-2" x="28.75" y="18.21" width="1.79" height="1.79" transform="translate(-5.62 19.29) rotate(-33.09)"/><rect class="cls-2" x="30.26" y="17.23" width="1.79" height="1.79" transform="translate(-4.84 19.95) rotate(-33.09)"/><rect class="cls-3" x="31.76" y="16.24" width="1.81" height="1.79" transform="translate(-4.06 20.62) rotate(-33.09)"/><rect class="cls-2" x="33.28" y="15.26" width="1.79" height="1.79" transform="translate(-3.28 21.28) rotate(-33.09)"/><rect class="cls-2" x="34.78" y="14.28" width="1.79" height="1.79" transform="translate(-2.5 21.94) rotate(-33.09)"/><rect class="cls-2" x="36.28" y="13.3" width="1.79" height="1.79" transform="translate(-1.72 22.61) rotate(-33.09)"/><rect class="cls-2" x="37.79" y="12.32" width="1.81" height="1.79" transform="translate(-.94 23.27) rotate(-33.09)"/><rect class="cls-2" x="39.3" y="11.33" width="1.79" height="1.79" transform="translate(-.16 23.94) rotate(-33.09)"/><rect class="cls-2" x="40.81" y="10.35" width="1.79" height="1.79" transform="translate(.62 24.6) rotate(-33.09)"/><rect class="cls-2" x="42.31" y="9.37" width="1.81" height="1.79" transform="translate(1.41 25.26) rotate(-33.09)"/><rect class="cls-3" x="43.83" y="8.38" width="1.79" height="1.79" transform="translate(2.19 25.93) rotate(-33.09)"/><rect class="cls-3" x="2.15" y="33.39" width="1.81" height="1.81" transform="translate(-18.23 7.23) rotate(-33.09)"/><rect class="cls-2" x="3.67" y="32.4" width="1.79" height="1.81" transform="translate(-17.45 7.89) rotate(-33.09)"/><rect class="cls-2" x="5.17" y="31.42" width="1.79" height="1.81" transform="translate(-16.67 8.56) rotate(-33.09)"/><rect class="cls-2" x="6.67" y="30.44" width="1.79" height="1.81" transform="translate(-15.89 9.22) rotate(-33.09)"/><rect class="cls-2" x="8.17" y="29.46" width="1.81" height="1.81" transform="translate(-15.11 9.88) rotate(-33.09)"/><rect class="cls-2" x="9.69" y="28.47" width="1.79" height="1.81" transform="translate(-14.32 10.55) rotate(-33.09)"/><rect class="cls-3" x="11.2" y="27.49" width="1.79" height="1.81" transform="translate(-13.54 11.21) rotate(-33.09)"/><rect class="cls-2" x="12.7" y="26.51" width="1.79" height="1.81" transform="translate(-12.77 11.87) rotate(-33.09)"/><rect class="cls-2" x="14.2" y="25.53" width="1.81" height="1.81" transform="translate(-11.98 12.54) rotate(-33.09)"/><rect class="cls-2" x="15.72" y="24.55" width="1.79" height="1.81" transform="translate(-11.2 13.2) rotate(-33.09)"/><rect class="cls-2" x="17.22" y="23.57" width="1.79" height="1.81" transform="translate(-10.42 13.86) rotate(-33.09)"/><rect class="cls-2" x="18.73" y="22.59" width="1.79" height="1.81" transform="translate(-9.64 14.53) rotate(-33.09)"/><rect class="cls-2" x="20.23" y="21.6" width="1.81" height="1.81" transform="translate(-8.86 15.19) rotate(-33.09)"/><rect class="cls-3" x="21.74" y="20.62" width="1.79" height="1.81" transform="translate(-8.08 15.85) rotate(-33.09)"/><rect class="cls-2" x="23.25" y="19.64" width="1.79" height="1.81" transform="translate(-7.3 16.52) rotate(-33.09)"/><rect class="cls-2" x="24.75" y="18.66" width="1.81" height="1.81" transform="translate(-6.52 17.18) rotate(-33.09)"/><rect class="cls-2" x="26.27" y="17.67" width="1.79" height="1.81" transform="translate(-5.74 17.85) rotate(-33.09)"/><rect class="cls-2" x="27.77" y="16.69" width="1.79" height="1.81" transform="translate(-4.96 18.51) rotate(-33.09)"/><rect class="cls-2" x="29.27" y="15.71" width="1.79" height="1.81" transform="translate(-4.18 19.17) rotate(-33.09)"/><rect class="cls-3" x="30.78" y="14.73" width="1.81" height="1.81" transform="translate(-3.4 19.83) rotate(-33.09)"/><rect class="cls-2" x="32.29" y="13.74" width="1.79" height="1.81" transform="translate(-2.61 20.5) rotate(-33.09)"/><rect class="cls-2" x="33.8" y="12.76" width="1.79" height="1.81" transform="translate(-1.83 21.16) rotate(-33.09)"/><rect class="cls-2" x="35.3" y="11.78" width="1.79" height="1.81" transform="translate(-1.06 21.82) rotate(-33.09)"/><rect class="cls-2" x="36.8" y="10.8" width="1.81" height="1.81" transform="translate(-.27 22.49) rotate(-33.09)"/><rect class="cls-2" x="38.32" y="9.82" width="1.79" height="1.81" transform="translate(.51 23.15) rotate(-33.09)"/><rect class="cls-2" x="39.82" y="8.84" width="1.79" height="1.81" transform="translate(1.29 23.81) rotate(-33.09)"/><rect class="cls-2" x="41.33" y="7.85" width="1.81" height="1.81" transform="translate(2.07 24.48) rotate(-33.09)"/><rect class="cls-3" x="42.84" y="6.87" width="1.79" height="1.81" transform="translate(2.85 25.14) rotate(-33.09)"/><rect class="cls-3" x="1.16" y="31.88" width="1.81" height="1.79" transform="translate(-17.56 6.45) rotate(-33.09)"/><rect class="cls-2" x="2.68" y="30.9" width="1.79" height="1.79" transform="translate(-16.78 7.11) rotate(-33.09)"/><rect class="cls-2" x="4.19" y="29.92" width="1.79" height="1.79" transform="translate(-16 7.77) rotate(-33.09)"/><rect class="cls-2" x="5.69" y="28.94" width="1.79" height="1.79" transform="translate(-15.22 8.44) rotate(-33.09)"/><rect class="cls-2" x="7.19" y="27.96" width="1.81" height="1.79" transform="translate(-14.44 9.1) rotate(-33.09)"/><rect class="cls-2" x="8.71" y="26.97" width="1.79" height="1.79" transform="translate(-13.66 9.77) rotate(-33.09)"/><rect class="cls-3" x="10.21" y="25.99" width="1.79" height="1.79" transform="translate(-12.88 10.43) rotate(-33.09)"/><rect class="cls-2" x="11.72" y="25.01" width="1.79" height="1.79" transform="translate(-12.1 11.09) rotate(-33.09)"/><rect class="cls-2" x="13.22" y="24.03" width="1.81" height="1.79" transform="translate(-11.32 11.75) rotate(-33.09)"/><rect class="cls-2" x="14.73" y="23.04" width="1.79" height="1.79" transform="translate(-10.54 12.42) rotate(-33.09)"/><rect class="cls-2" x="16.24" y="22.06" width="1.79" height="1.79" transform="translate(-9.76 13.08) rotate(-33.09)"/><rect class="cls-2" x="17.74" y="21.08" width="1.79" height="1.79" transform="translate(-8.98 13.74) rotate(-33.09)"/><rect class="cls-2" x="19.24" y="20.1" width="1.81" height="1.79" transform="translate(-8.2 14.41) rotate(-33.09)"/><rect class="cls-3" x="20.76" y="19.12" width="1.79" height="1.79" transform="translate(-7.41 15.07) rotate(-33.09)"/><rect class="cls-2" x="22.26" y="18.14" width="1.79" height="1.79" transform="translate(-6.64 15.73) rotate(-33.09)"/><rect class="cls-2" x="23.77" y="17.15" width="1.81" height="1.79" transform="translate(-5.85 16.4) rotate(-33.09)"/><rect class="cls-2" x="25.28" y="16.17" width="1.79" height="1.79" transform="translate(-5.07 17.06) rotate(-33.09)"/><rect class="cls-2" x="26.79" y="15.19" width="1.79" height="1.79" transform="translate(-4.29 17.73) rotate(-33.09)"/><rect class="cls-2" x="28.29" y="14.21" width="1.79" height="1.79" transform="translate(-3.51 18.39) rotate(-33.09)"/><rect class="cls-3" x="29.79" y="13.22" width="1.81" height="1.79" transform="translate(-2.73 19.05) rotate(-33.09)"/><rect class="cls-2" x="31.31" y="12.24" width="1.79" height="1.79" transform="translate(-1.95 19.72) rotate(-33.09)"/><rect class="cls-2" x="32.81" y="11.26" width="1.79" height="1.79" transform="translate(-1.17 20.38) rotate(-33.09)"/><rect class="cls-2" x="34.32" y="10.28" width="1.79" height="1.79" transform="translate(-.39 21.04) rotate(-33.09)"/><rect class="cls-2" x="35.82" y="9.3" width="1.81" height="1.79" transform="translate(.39 21.71) rotate(-33.09)"/><rect class="cls-2" x="37.34" y="8.31" width="1.79" height="1.79" transform="translate(1.17 22.37) rotate(-33.09)"/><rect class="cls-2" x="38.84" y="7.33" width="1.79" height="1.79" transform="translate(1.95 23.03) rotate(-33.09)"/><rect class="cls-2" x="40.34" y="6.35" width="1.81" height="1.79" transform="translate(2.73 23.7) rotate(-33.09)"/><rect class="cls-3" x="41.86" y="5.37" width="1.79" height="1.79" transform="translate(3.52 24.36) rotate(-33.09)"/><rect class="cls-3" x="1.7" y="29.4" width="1.79" height="1.79" transform="translate(-16.12 6.33) rotate(-33.09)"/><rect class="cls-2" x="3.21" y="28.42" width="1.79" height="1.79" transform="translate(-15.34 7) rotate(-33.09)"/><rect class="cls-2" x="4.71" y="27.44" width="1.79" height="1.79" transform="translate(-14.56 7.66) rotate(-33.09)"/><rect class="cls-2" x="6.21" y="26.45" width="1.81" height="1.79" transform="translate(-13.78 8.32) rotate(-33.09)"/><rect class="cls-2" x="7.73" y="25.47" width="1.79" height="1.79" transform="translate(-13 8.99) rotate(-33.09)"/><rect class="cls-3" x="9.23" y="24.49" width="1.79" height="1.79" transform="translate(-12.22 9.65) rotate(-33.09)"/><rect class="cls-2" x="10.74" y="23.51" width="1.79" height="1.79" transform="translate(-11.44 10.31) rotate(-33.09)"/><rect class="cls-2" x="12.24" y="22.52" width="1.81" height="1.79" transform="translate(-10.66 10.98) rotate(-33.09)"/><rect class="cls-2" x="13.75" y="21.54" width="1.79" height="1.79" transform="translate(-9.87 11.64) rotate(-33.09)"/><rect class="cls-2" x="15.26" y="20.56" width="1.79" height="1.79" transform="translate(-9.1 12.3) rotate(-33.09)"/><rect class="cls-2" x="16.76" y="19.58" width="1.79" height="1.79" transform="translate(-8.32 12.96) rotate(-33.09)"/><rect class="cls-2" x="18.26" y="18.6" width="1.81" height="1.79" transform="translate(-7.53 13.63) rotate(-33.09)"/><rect class="cls-3" x="19.78" y="17.61" width="1.79" height="1.79" transform="translate(-6.75 14.29) rotate(-33.09)"/><rect class="cls-2" x="21.28" y="16.63" width="1.79" height="1.79" transform="translate(-5.97 14.96) rotate(-33.09)"/><rect class="cls-2" x="22.79" y="15.65" width="1.81" height="1.79" transform="translate(-5.19 15.62) rotate(-33.09)"/><rect class="cls-2" x="24.3" y="14.67" width="1.79" height="1.79" transform="translate(-4.41 16.29) rotate(-33.09)"/><rect class="cls-2" x="25.81" y="13.69" width="1.79" height="1.79" transform="translate(-3.63 16.95) rotate(-33.09)"/><rect class="cls-2" x="27.31" y="12.71" width="1.79" height="1.79" transform="translate(-2.85 17.61) rotate(-33.09)"/><rect class="cls-3" x="28.81" y="11.72" width="1.81" height="1.79" transform="translate(-2.07 18.27) rotate(-33.09)"/><rect class="cls-2" x="30.33" y="10.74" width="1.79" height="1.79" transform="translate(-1.29 18.94) rotate(-33.09)"/><rect class="cls-2" x="31.83" y="9.76" width="1.79" height="1.79" transform="translate(-.51 19.6) rotate(-33.09)"/><rect class="cls-2" x="33.34" y="8.78" width="1.79" height="1.79" transform="translate(.27 20.26) rotate(-33.09)"/><rect class="cls-2" x="34.84" y="7.79" width="1.81" height="1.79" transform="translate(1.05 20.93) rotate(-33.09)"/><rect class="cls-2" x="36.36" y="6.81" width="1.79" height="1.79" transform="translate(1.84 21.59) rotate(-33.09)"/><rect class="cls-2" x="37.86" y="5.83" width="1.79" height="1.79" transform="translate(2.61 22.25) rotate(-33.09)"/><rect class="cls-3" x="39.36" y="4.85" width="1.81" height="1.79" transform="translate(3.4 22.92) rotate(-33.09)"/><rect class="cls-3" x=".72" y="27.89" width="1.79" height="1.79" transform="translate(-15.46 5.55) rotate(-33.09)"/><rect class="cls-2" x="2.23" y="26.91" width="1.79" height="1.79" transform="translate(-14.68 6.22) rotate(-33.09)"/><rect class="cls-2" x="3.73" y="25.93" width="1.79" height="1.79" transform="translate(-13.9 6.88) rotate(-33.09)"/><rect class="cls-2" x="5.23" y="24.95" width="1.81" height="1.79" transform="translate(-13.12 7.54) rotate(-33.09)"/><rect class="cls-2" x="6.75" y="23.97" width="1.79" height="1.79" transform="translate(-12.34 8.21) rotate(-33.09)"/><rect class="cls-3" x="8.25" y="22.99" width="1.79" height="1.79" transform="translate(-11.56 8.87) rotate(-33.09)"/><rect class="cls-2" x="9.76" y="22.01" width="1.79" height="1.79" transform="translate(-10.78 9.53) rotate(-33.09)"/><rect class="cls-2" x="11.26" y="21.02" width="1.81" height="1.79" transform="translate(-10 10.2) rotate(-33.09)"/><rect class="cls-2" x="12.77" y="20.04" width="1.79" height="1.79" transform="translate(-9.21 10.86) rotate(-33.09)"/><rect class="cls-2" x="14.28" y="19.06" width="1.79" height="1.79" transform="translate(-8.43 11.52) rotate(-33.09)"/><rect class="cls-2" x="15.78" y="18.08" width="1.79" height="1.79" transform="translate(-7.65 12.19) rotate(-33.09)"/><rect class="cls-2" x="17.28" y="17.09" width="1.81" height="1.79" transform="translate(-6.87 12.85) rotate(-33.09)"/><rect class="cls-3" x="18.8" y="16.11" width="1.79" height="1.79" transform="translate(-6.09 13.51) rotate(-33.09)"/><rect class="cls-2" x="20.3" y="15.13" width="1.79" height="1.79" transform="translate(-5.31 14.18) rotate(-33.09)"/><rect class="cls-2" x="21.81" y="14.15" width="1.81" height="1.79" transform="translate(-4.53 14.84) rotate(-33.09)"/><rect class="cls-2" x="23.32" y="13.16" width="1.79" height="1.79" transform="translate(-3.75 15.51) rotate(-33.09)"/><rect class="cls-2" x="24.83" y="12.18" width="1.79" height="1.79" transform="translate(-2.97 16.17) rotate(-33.09)"/><rect class="cls-2" x="26.33" y="11.2" width="1.79" height="1.79" transform="translate(-2.19 16.83) rotate(-33.09)"/><rect class="cls-3" x="27.83" y="10.22" width="1.81" height="1.79" transform="translate(-1.41 17.49) rotate(-33.09)"/><rect class="cls-2" x="29.35" y="9.23" width="1.79" height="1.79" transform="translate(-.62 18.16) rotate(-33.09)"/><rect class="cls-2" x="30.85" y="8.25" width="1.79" height="1.79" transform="translate(.15 18.82) rotate(-33.09)"/><rect class="cls-2" x="32.36" y="7.27" width="1.79" height="1.79" transform="translate(.93 19.48) rotate(-33.09)"/><rect class="cls-2" x="33.86" y="6.29" width="1.81" height="1.79" transform="translate(1.72 20.15) rotate(-33.09)"/><rect class="cls-2" x="35.38" y="5.31" width="1.79" height="1.79" transform="translate(2.5 20.81) rotate(-33.09)"/><rect class="cls-2" x="36.88" y="4.33" width="1.79" height="1.79" transform="translate(3.28 21.47) rotate(-33.09)"/><rect class="cls-3" x="38.38" y="3.34" width="1.81" height="1.79" transform="translate(4.06 22.14) rotate(-33.09)"/><rect class="cls-3" x="1.24" y="25.4" width="1.79" height="1.81" transform="translate(-14.01 5.43) rotate(-33.09)"/><rect class="cls-3" x="2.74" y="24.42" width="1.79" height="1.81" transform="translate(-13.23 6.1) rotate(-33.09)"/><rect class="cls-3" x="4.25" y="23.43" width="1.81" height="1.81" transform="translate(-12.45 6.76) rotate(-33.09)"/><rect class="cls-3" x="5.76" y="22.45" width="1.79" height="1.81" transform="translate(-11.67 7.43) rotate(-33.09)"/><rect class="cls-2" x="7.27" y="21.47" width="1.79" height="1.81" transform="translate(-10.89 8.09) rotate(-33.09)"/><rect class="cls-2" x="8.77" y="20.49" width="1.79" height="1.81" transform="translate(-10.11 8.75) rotate(-33.09)"/><rect class="cls-2" x="10.27" y="19.5" width="1.81" height="1.81" transform="translate(-9.33 9.41) rotate(-33.09)"/><rect class="cls-2" x="11.79" y="18.52" width="1.79" height="1.81" transform="translate(-8.55 10.08) rotate(-33.09)"/><rect class="cls-2" x="13.29" y="17.54" width="1.79" height="1.81" transform="translate(-7.77 10.74) rotate(-33.09)"/><rect class="cls-2" x="14.8" y="16.56" width="1.79" height="1.81" transform="translate(-6.99 11.4) rotate(-33.09)"/><rect class="cls-2" x="16.3" y="15.58" width="1.81" height="1.81" transform="translate(-6.21 12.07) rotate(-33.09)"/><rect class="cls-3" x="17.82" y="14.59" width="1.79" height="1.81" transform="translate(-5.43 12.73) rotate(-33.09)"/><rect class="cls-2" x="19.32" y="13.61" width="1.79" height="1.81" transform="translate(-4.65 13.39) rotate(-33.09)"/><rect class="cls-2" x="20.82" y="12.63" width="1.81" height="1.81" transform="translate(-3.86 14.06) rotate(-33.09)"/><rect class="cls-2" x="22.34" y="11.64" width="1.79" height="1.81" transform="translate(-3.08 14.72) rotate(-33.09)"/><rect class="cls-2" x="23.84" y="10.66" width="1.79" height="1.81" transform="translate(-2.3 15.39) rotate(-33.09)"/><rect class="cls-2" x="25.35" y="9.68" width="1.79" height="1.81" transform="translate(-1.52 16.05) rotate(-33.09)"/><rect class="cls-2" x="26.85" y="8.7" width="1.81" height="1.81" transform="translate(-.74 16.71) rotate(-33.09)"/><rect class="cls-3" x="28.37" y="7.72" width="1.79" height="1.81" transform="translate(.04 17.38) rotate(-33.09)"/><rect class="cls-2" x="29.87" y="6.74" width="1.79" height="1.81" transform="translate(.82 18.04) rotate(-33.09)"/><rect class="cls-2" x="31.37" y="5.76" width="1.79" height="1.81" transform="translate(1.6 18.7) rotate(-33.09)"/><rect class="cls-2" x="32.88" y="4.77" width="1.81" height="1.81" transform="translate(2.38 19.37) rotate(-33.09)"/><rect class="cls-2" x="34.39" y="3.79" width="1.79" height="1.81" transform="translate(3.16 20.03) rotate(-33.09)"/><rect class="cls-3" x="35.9" y="2.81" width="1.79" height="1.81" transform="translate(3.94 20.69) rotate(-33.09)"/><rect class="cls-3" x="1.76" y="22.91" width="1.79" height="1.79" transform="translate(-12.57 5.31) rotate(-33.09)"/><rect class="cls-2" x="3.26" y="21.93" width="1.81" height="1.79" transform="translate(-11.79 5.98) rotate(-33.09)"/><rect class="cls-2" x="4.78" y="20.95" width="1.79" height="1.79" transform="translate(-11.01 6.64) rotate(-33.09)"/><rect class="cls-2" x="6.28" y="19.97" width="1.79" height="1.79" transform="translate(-10.23 7.31) rotate(-33.09)"/><rect class="cls-2" x="7.79" y="18.99" width="1.79" height="1.79" transform="translate(-9.45 7.97) rotate(-33.09)"/><rect class="cls-2" x="9.29" y="18" width="1.81" height="1.79" transform="translate(-8.67 8.63) rotate(-33.09)"/><rect class="cls-2" x="10.81" y="17.02" width="1.79" height="1.79" transform="translate(-7.88 9.3) rotate(-33.09)"/><rect class="cls-2" x="12.31" y="16.04" width="1.79" height="1.79" transform="translate(-7.1 9.96) rotate(-33.09)"/><rect class="cls-2" x="13.81" y="15.06" width="1.79" height="1.79" transform="translate(-6.33 10.62) rotate(-33.09)"/><rect class="cls-2" x="15.32" y="14.07" width="1.81" height="1.79" transform="translate(-5.54 11.29) rotate(-33.09)"/><rect class="cls-3" x="16.83" y="13.09" width="1.79" height="1.79" transform="translate(-4.76 11.95) rotate(-33.09)"/><rect class="cls-2" x="18.34" y="12.11" width="1.79" height="1.79" transform="translate(-3.98 12.61) rotate(-33.09)"/><rect class="cls-2" x="19.84" y="11.13" width="1.81" height="1.79" transform="translate(-3.2 13.28) rotate(-33.09)"/><rect class="cls-2" x="21.36" y="10.14" width="1.79" height="1.79" transform="translate(-2.42 13.94) rotate(-33.09)"/><rect class="cls-2" x="22.86" y="9.16" width="1.79" height="1.79" transform="translate(-1.64 14.6) rotate(-33.09)"/><rect class="cls-2" x="24.36" y="8.18" width="1.79" height="1.79" transform="translate(-.86 15.27) rotate(-33.09)"/><rect class="cls-2" x="25.87" y="7.2" width="1.81" height="1.79" transform="translate(-.08 15.93) rotate(-33.09)"/><rect class="cls-2" x="27.38" y="6.21" width="1.79" height="1.79" transform="translate(.7 16.6) rotate(-33.09)"/><rect class="cls-3" x="28.89" y="5.23" width="1.79" height="1.79" transform="translate(1.48 17.26) rotate(-33.09)"/><rect class="cls-3" x="30.39" y="4.25" width="1.79" height="1.79" transform="translate(2.26 17.92) rotate(-33.09)"/><rect class="cls-3" x="31.89" y="3.27" width="1.81" height="1.79" transform="translate(3.04 18.58) rotate(-33.09)"/><rect class="cls-3" x="33.41" y="2.29" width="1.79" height="1.79" transform="translate(3.83 19.25) rotate(-33.09)"/><rect class="cls-3" x="2.28" y="20.43" width="1.81" height="1.79" transform="translate(-11.13 5.2) rotate(-33.09)"/><rect class="cls-2" x="3.8" y="19.44" width="1.79" height="1.79" transform="translate(-10.34 5.86) rotate(-33.09)"/><rect class="cls-2" x="5.3" y="18.46" width="1.79" height="1.79" transform="translate(-9.56 6.53) rotate(-33.09)"/><rect class="cls-2" x="6.81" y="17.48" width="1.79" height="1.79" transform="translate(-8.79 7.19) rotate(-33.09)"/><rect class="cls-2" x="8.31" y="16.5" width="1.81" height="1.79" transform="translate(-8 7.85) rotate(-33.09)"/><rect class="cls-2" x="9.83" y="15.51" width="1.79" height="1.79" transform="translate(-7.22 8.52) rotate(-33.09)"/><rect class="cls-2" x="11.33" y="14.53" width="1.79" height="1.79" transform="translate(-6.44 9.18) rotate(-33.09)"/><rect class="cls-2" x="12.83" y="13.55" width="1.79" height="1.79" transform="translate(-5.66 9.84) rotate(-33.09)"/><rect class="cls-2" x="14.34" y="12.57" width="1.81" height="1.79" transform="translate(-4.88 10.51) rotate(-33.09)"/><rect class="cls-3" x="15.85" y="11.59" width="1.79" height="1.79" transform="translate(-4.1 11.17) rotate(-33.09)"/><rect class="cls-2" x="17.36" y="10.61" width="1.79" height="1.79" transform="translate(-3.32 11.83) rotate(-33.09)"/><rect class="cls-2" x="18.86" y="9.62" width="1.81" height="1.79" transform="translate(-2.54 12.5) rotate(-33.09)"/><rect class="cls-2" x="20.38" y="8.64" width="1.79" height="1.79" transform="translate(-1.76 13.16) rotate(-33.09)"/><rect class="cls-2" x="21.88" y="7.66" width="1.79" height="1.79" transform="translate(-.98 13.82) rotate(-33.09)"/><rect class="cls-2" x="23.38" y="6.68" width="1.79" height="1.79" transform="translate(-.2 14.49) rotate(-33.09)"/><rect class="cls-2" x="24.89" y="5.7" width="1.81" height="1.79" transform="translate(.58 15.15) rotate(-33.09)"/><rect class="cls-2" x="26.4" y="4.71" width="1.79" height="1.79" transform="translate(1.37 15.82) rotate(-33.09)"/><rect class="cls-2" x="27.91" y="3.73" width="1.79" height="1.79" transform="translate(2.15 16.48) rotate(-33.09)"/><rect class="cls-2" x="29.41" y="2.75" width="1.79" height="1.79" transform="translate(2.92 17.14) rotate(-33.09)"/><rect class="cls-3" x="30.91" y="1.77" width="1.81" height="1.79" transform="translate(3.71 17.8) rotate(-33.09)"/><rect class="cls-3" x="2.82" y="17.94" width="1.79" height="1.79" transform="translate(-9.68 5.09) rotate(-33.09)"/><rect class="cls-2" x="4.32" y="16.96" width="1.79" height="1.79" transform="translate(-8.9 5.75) rotate(-33.09)"/><rect class="cls-2" x="5.83" y="15.98" width="1.79" height="1.79" transform="translate(-8.12 6.41) rotate(-33.09)"/><rect class="cls-2" x="7.33" y="14.99" width="1.81" height="1.79" transform="translate(-7.34 7.07) rotate(-33.09)"/><rect class="cls-2" x="8.85" y="14.01" width="1.79" height="1.79" transform="translate(-6.56 7.74) rotate(-33.09)"/><rect class="cls-2" x="10.35" y="13.03" width="1.79" height="1.79" transform="translate(-5.78 8.4) rotate(-33.09)"/><rect class="cls-2" x="11.85" y="12.05" width="1.79" height="1.79" transform="translate(-5 9.06) rotate(-33.09)"/><rect class="cls-3" x="13.36" y="11.07" width="1.81" height="1.79" transform="translate(-4.22 9.73) rotate(-33.09)"/><rect class="cls-2" x="14.87" y="10.08" width="1.79" height="1.79" transform="translate(-3.44 10.39) rotate(-33.09)"/><rect class="cls-2" x="16.38" y="9.1" width="1.79" height="1.79" transform="translate(-2.66 11.05) rotate(-33.09)"/><rect class="cls-2" x="17.88" y="8.12" width="1.81" height="1.79" transform="translate(-1.88 11.72) rotate(-33.09)"/><rect class="cls-2" x="19.4" y="7.14" width="1.79" height="1.79" transform="translate(-1.09 12.38) rotate(-33.09)"/><rect class="cls-2" x="20.9" y="6.16" width="1.79" height="1.79" transform="translate(-.31 13.05) rotate(-33.09)"/><rect class="cls-2" x="22.4" y="5.18" width="1.79" height="1.79" transform="translate(.46 13.71) rotate(-33.09)"/><rect class="cls-2" x="23.91" y="4.19" width="1.81" height="1.79" transform="translate(1.25 14.37) rotate(-33.09)"/><rect class="cls-2" x="25.42" y="3.21" width="1.79" height="1.79" transform="translate(2.03 15.04) rotate(-33.09)"/><rect class="cls-2" x="26.93" y="2.23" width="1.79" height="1.79" transform="translate(2.81 15.7) rotate(-33.09)"/><rect class="cls-3" x="28.43" y="1.25" width="1.79" height="1.79" transform="translate(3.59 16.36) rotate(-33.09)"/><rect class="cls-3" x="3.34" y="15.44" width="1.79" height="1.81" transform="translate(-8.24 4.97) rotate(-33.09)"/><rect class="cls-3" x="4.84" y="14.46" width="1.79" height="1.81" transform="translate(-7.46 5.63) rotate(-33.09)"/><rect class="cls-2" x="6.35" y="13.48" width="1.81" height="1.81" transform="translate(-6.68 6.29) rotate(-33.09)"/><rect class="cls-2" x="7.86" y="12.49" width="1.79" height="1.81" transform="translate(-5.89 6.96) rotate(-33.09)"/><rect class="cls-2" x="9.37" y="11.51" width="1.79" height="1.81" transform="translate(-5.12 7.62) rotate(-33.09)"/><rect class="cls-2" x="10.87" y="10.53" width="1.79" height="1.81" transform="translate(-4.34 8.28) rotate(-33.09)"/><rect class="cls-3" x="12.37" y="9.55" width="1.81" height="1.81" transform="translate(-3.55 8.95) rotate(-33.09)"/><rect class="cls-2" x="13.89" y="8.57" width="1.79" height="1.81" transform="translate(-2.77 9.61) rotate(-33.09)"/><rect class="cls-2" x="15.39" y="7.59" width="1.79" height="1.81" transform="translate(-1.99 10.27) rotate(-33.09)"/><rect class="cls-2" x="16.89" y="6.6" width="1.81" height="1.81" transform="translate(-1.21 10.94) rotate(-33.09)"/><rect class="cls-2" x="18.41" y="5.62" width="1.79" height="1.81" transform="translate(-.43 11.6) rotate(-33.09)"/><rect class="cls-2" x="19.92" y="4.64" width="1.79" height="1.81" transform="translate(.35 12.26) rotate(-33.09)"/><rect class="cls-2" x="21.42" y="3.66" width="1.79" height="1.81" transform="translate(1.13 12.93) rotate(-33.09)"/><rect class="cls-2" x="22.92" y="2.67" width="1.81" height="1.81" transform="translate(1.91 13.59) rotate(-33.09)"/><rect class="cls-3" x="24.44" y="1.69" width="1.79" height="1.81" transform="translate(2.69 14.26) rotate(-33.09)"/><rect class="cls-3" x="25.94" y=".71" width="1.79" height="1.81" transform="translate(3.47 14.92) rotate(-33.09)"/><rect class="cls-3" x="5.36" y="11.98" width="1.81" height="1.79" transform="translate(-6.01 5.51) rotate(-33.09)"/><rect class="cls-3" x="6.88" y="10.99" width="1.79" height="1.79" transform="translate(-5.23 6.17) rotate(-33.09)"/><rect class="cls-3" x="8.38" y="10.01" width="1.79" height="1.79" transform="translate(-4.45 6.84) rotate(-33.09)"/><rect class="cls-2" x="9.89" y="9.03" width="1.79" height="1.79" transform="translate(-3.67 7.5) rotate(-33.09)"/><rect class="cls-3" x="11.39" y="8.05" width="1.81" height="1.79" transform="translate(-2.89 8.16) rotate(-33.09)"/><rect class="cls-2" x="12.91" y="7.06" width="1.79" height="1.79" transform="translate(-2.11 8.83) rotate(-33.09)"/><rect class="cls-2" x="14.41" y="6.08" width="1.79" height="1.79" transform="translate(-1.33 9.49) rotate(-33.09)"/><rect class="cls-2" x="15.91" y="5.1" width="1.81" height="1.79" transform="translate(-.55 10.15) rotate(-33.09)"/><rect class="cls-2" x="17.43" y="4.12" width="1.79" height="1.79" transform="translate(.24 10.82) rotate(-33.09)"/><rect class="cls-3" x="18.93" y="3.14" width="1.79" height="1.79" transform="translate(1.01 11.48) rotate(-33.09)"/><rect class="cls-3" x="20.44" y="2.16" width="1.79" height="1.79" transform="translate(1.79 12.14) rotate(-33.09)"/><rect class="cls-3" x="21.94" y="1.17" width="1.81" height="1.79" transform="translate(2.58 12.81) rotate(-33.09)"/><rect class="cls-3" x="8.91" y="7.53" width="1.79" height="1.79" transform="translate(-3.01 6.72) rotate(-33.09)"/><rect class="cls-3" x="10.41" y="6.54" width="1.81" height="1.79" transform="translate(-2.23 7.38) rotate(-33.09)"/><rect class="cls-3" x="11.93" y="5.56" width="1.79" height="1.79" transform="translate(-1.45 8.05) rotate(-33.09)"/><rect class="cls-3" x="13.43" y="4.58" width="1.79" height="1.79" transform="translate(-.67 8.71) rotate(-33.09)"/><rect class="cls-3" x="14.93" y="3.6" width="1.81" height="1.79" transform="translate(.12 9.38) rotate(-33.09)"/><rect class="cls-3" x="16.45" y="2.61" width="1.79" height="1.79" transform="translate(.9 10.04) rotate(-33.09)"/></g></g></g></svg>