<?xml version="1.0" encoding="UTF-8"?><svg id="Calque_2" xmlns="http://www.w3.org/2000/svg" xmlns:xlink="http://www.w3.org/1999/xlink" viewBox="0 0 51.68 34.02"><defs><style>.cls-1{fill:#fff;}.cls-1,.cls-2{stroke:#fff;stroke-miterlimit:10;stroke-width:.1px;}.cls-3{filter:url(#outer-glow-1);}</style><filter id="outer-glow-1" filterUnits="userSpaceOnUse"><feOffset dx="0" dy="0"/><feGaussianBlur result="blur" stdDeviation="0"/><feFlood flood-color="#afafae" flood-opacity=".54"/><feComposite in2="blur" operator="in"/><feComposite in="SourceGraphic"/></filter></defs><g id="icone"><g id="bombe" class="cls-3"><path class="cls-2" d="M3.19,12.06c.83-1.35,1.66-2.71,2.48-4.06,.13-.21,.23-.24,.43-.1,.24,.17,.51,.31,.76,.47,.14,.09,.23,.07,.33-.08,.4-.67,.81-1.34,1.22-2.01,.15-.24,.19-.25,.43-.1,.25,.15,.5,.3,.74,.45,.15,.1,.24,.06,.33-.09,.4-.67,.81-1.32,1.21-1.99,.11-.19,.21-.19,.38-.09,.68,.42,1.37,.83,2.05,1.26,.15,.09,.23,.08,.32-.08,.16-.29,.34-.56,.51-.84,.09-.16,.17-.19,.34-.08,.65,.41,1.32,.8,1.96,1.21,.2,.13,.29,.09,.41-.11,.63-1.06,1.29-2.11,1.92-3.16,.12-.2,.21-.21,.39-.09,1.06,.65,2.12,1.3,3.18,1.94,.28,.17,.28,.17,.44-.1,.65-1.06,1.29-2.12,1.94-3.18,.16-.26,.19-.27,.45-.11,.24,.15,.48,.29,.72,.44,.16,.1,.25,.09,.35-.08,.14-.25,.29-.48,.43-.72,.16-.26,.19-.26,.45-.1,.24,.15,.49,.28,.72,.44,.18,.13,.28,.08,.38-.1,.15-.26,.32-.52,.47-.78,.08-.15,.16-.19,.32-.09,1.93,1.19,3.87,2.37,5.81,3.54,.15,.09,.17,.18,.07,.33-.16,.23-.3,.48-.44,.72-.17,.28-.17,.3,.13,.48,.64,.39,1.27,.78,1.91,1.16,.2,.12,.22,.23,.09,.42-.16,.24-.3,.49-.46,.73-.09,.14-.1,.23,.07,.33,1.07,.65,2.14,1.3,3.2,1.95,.18,.11,.28,.07,.38-.11,.14-.25,.3-.49,.44-.74,.1-.18,.2-.19,.37-.08,1.09,.67,2.19,1.34,3.28,2,.14,.09,.19,.18,.09,.33-.19,.29-.37,.58-.54,.88-.1,.17-.2,.17-.35,.07-1.07-.66-2.15-1.31-3.22-1.97-.18-.11-.28-.11-.39,.09-.14,.28-.33,.53-.48,.8-.09,.15-.18,.17-.33,.07-1.08-.67-2.17-1.33-3.26-1.99-.2-.12-.23-.24-.1-.43,.16-.25,.3-.51,.47-.76,.11-.16,.08-.25-.08-.34-.67-.4-1.32-.82-1.99-1.21-.19-.11-.2-.2-.09-.37,.18-.27,.33-.55,.51-.82,.09-.13,.09-.21-.06-.31-1.9-1.16-3.8-2.32-5.7-3.48-.15-.09-.23-.07-.32,.09-.16,.29-.34,.56-.51,.84-.08,.14-.18,.16-.32,.08-.28-.17-.56-.34-.84-.52-.15-.1-.23-.07-.32,.09-.65,1.08-1.3,2.15-1.97,3.22-.11,.18-.1,.26,.09,.37,1.06,.64,2.12,1.3,3.18,1.93,.22,.13,.22,.22,.09,.42-.66,1.05-1.29,2.12-1.95,3.17-.11,.18-.07,.26,.09,.35,.67,.4,1.33,.81,1.99,1.21,.19,.11,.25,.22,.11,.42-.16,.24-.29,.5-.46,.73-.16,.21-.09,.31,.11,.42,.66,.39,1.3,.8,1.95,1.18,.18,.11,.18,.19,.08,.35-.42,.66-.81,1.33-1.22,1.99-.1,.15-.1,.25,.08,.34,.25,.14,.49,.3,.74,.45,.3,.18,.3,.19,.11,.5-.4,.65-.79,1.3-1.19,1.95-.11,.17-.09,.26,.09,.36,.24,.13,.47,.28,.7,.42,.31,.19,.31,.2,.13,.5-1.4,2.29-2.8,4.58-4.2,6.87-.25,.4-.5,.8-.74,1.21-.11,.2-.22,.24-.42,.11-.25-.17-.52-.31-.78-.48-.15-.1-.23-.08-.32,.08-.4,.67-.81,1.34-1.22,2.01-.16,.26-.19,.26-.45,.11-.25-.15-.51-.3-.76-.47-.16-.11-.25-.07-.34,.09-.4,.67-.81,1.33-1.21,1.99-.1,.17-.18,.2-.35,.09-.65-.41-1.31-.8-1.97-1.21-.18-.11-.29-.13-.39,.09-.13,.26-.29,.5-.45,.74-.16,.25-.18,.26-.43,.11-.66-.4-1.33-.8-1.99-1.22-.19-.12-.3-.11-.41,.1-.13,.26-.3,.49-.44,.74-.1,.18-.22,.2-.39,.09-.46-.29-.93-.57-1.39-.85-2.22-1.36-4.44-2.71-6.67-4.07-.27-.16-.28-.21-.12-.47,.15-.24,.28-.48,.44-.71,.12-.17,.09-.26-.08-.36-.67-.4-1.32-.82-1.99-1.21-.18-.11-.19-.2-.08-.36,.18-.27,.32-.55,.51-.82,.12-.17,.07-.24-.08-.33-.67-.4-1.34-.82-2.01-1.22-.21-.12-.24-.22-.1-.43,.41-.63,.78-1.29,1.19-1.92,.11-.18,.09-.28-.09-.38-.25-.13-.47-.3-.72-.43-.21-.11-.21-.24-.09-.43,.42-.67,.82-1.34,1.23-2.01,.11-.17,.07-.25-.08-.35-.26-.15-.51-.33-.78-.47-.19-.1-.2-.19-.09-.37,.84-1.36,1.67-2.73,2.51-4.1Zm4.91,3c.33-.55,.66-1.1,1-1.64,.09-.14,.07-.22-.07-.31-.28-.16-.56-.34-.84-.51-.15-.09-.23-.07-.33,.08-.66,1.09-1.32,2.17-1.99,3.26-.1,.16-.06,.24,.08,.33,.28,.16,.55,.32,.82,.5,.16,.11,.24,.06,.34-.09,.32-.54,.66-1.08,.99-1.62Zm3.24-3.91h0c-.14-.09-.29-.17-.43-.27-.15-.11-.24-.07-.33,.08-.17,.29-.35,.58-.53,.86-.08,.13-.05,.2,.07,.27,.31,.18,.62,.37,.92,.56,.13,.08,.2,.05,.27-.07,.17-.28,.34-.56,.51-.84,.09-.15,.11-.25-.08-.34-.14-.07-.27-.16-.41-.25Zm-5.26,8.57h0c.14,.09,.29,.17,.43,.27,.14,.11,.24,.09,.33-.07,.17-.29,.35-.58,.53-.86,.08-.12,.07-.2-.06-.27-.32-.19-.63-.39-.95-.57-.05-.03-.19,0-.23,.05-.2,.29-.37,.6-.55,.9-.08,.12-.08,.22,.07,.29,.15,.08,.29,.17,.43,.26Zm1.93,3.73h0c.09-.14,.19-.28,.25-.43,.03-.07,0-.22-.05-.25-.28-.19-.58-.37-.88-.54-.06-.03-.21,0-.25,.06-.19,.28-.37,.58-.53,.88-.03,.06,.01,.21,.07,.25,.28,.19,.57,.36,.85,.53,.12,.07,.21,.05,.28-.07,.08-.14,.17-.29,.26-.43Z"/><path class="cls-2" d="M46.55,18.29c-.1,.16-.19,.31-.29,.47-.08,.13-.18,.15-.3,.07-.31-.19-.61-.38-.92-.57-.13-.08-.14-.17-.06-.3,.18-.28,.34-.56,.52-.84,.1-.16,.1-.26-.09-.36-.27-.14-.52-.32-.78-.47-.16-.09-.21-.2-.1-.37,.19-.28,.36-.57,.53-.86,.08-.14,.18-.16,.32-.08,.31,.19,.61,.38,.92,.56,.14,.08,.16,.18,.07,.32-.17,.27-.33,.55-.51,.82-.11,.16-.1,.26,.08,.36,.26,.14,.5,.32,.76,.46,.18,.1,.24,.19,.1,.37-.1,.13-.17,.27-.25,.41h0Z"/><path class="cls-2" d="M51.08,6.69c.19,.15,.5,.27,.55,.45,.04,.17-.19,.41-.31,.61-.08,.14-.18,.27-.25,.41-.08,.16-.17,.17-.31,.08-.28-.18-.58-.35-.86-.53-.14-.09-.22-.07-.3,.08-.16,.29-.35,.57-.52,.86-.08,.14-.17,.17-.31,.08-.3-.19-.6-.37-.9-.55-.13-.07-.17-.16-.09-.29,.19-.31,.38-.63,.57-.94,.08-.14,.19-.12,.31-.05,.26,.17,.54,.32,.8,.49,.15,.1,.25,.07,.33-.08,.16-.28,.34-.54,.5-.82,.08-.15,.17-.17,.31-.08,.15,.1,.31,.19,.47,.29v-.02Z"/><path class="cls-2" d="M37.96,13.05c-.09,.15-.19,.3-.27,.45-.08,.15-.17,.18-.32,.08-.25-.17-.52-.31-.78-.48-.17-.11-.29-.09-.39,.09-.15,.27-.33,.53-.48,.8-.08,.14-.16,.16-.29,.08-.31-.19-.63-.39-.94-.58-.12-.07-.15-.14-.07-.27,.2-.3,.38-.61,.56-.92,.07-.13,.15-.15,.27-.07,.28,.17,.57,.33,.84,.52,.17,.12,.28,.12,.39-.09,.15-.29,.34-.56,.5-.84,.08-.14,.15-.16,.29-.07,.3,.19,.61,.38,.92,.56,.13,.07,.14,.15,.06,.27-.1,.15-.19,.31-.29,.47Z"/><path class="cls-2" d="M40.04,4.19c-.09,.15-.18,.3-.27,.45-.08,.14-.19,.18-.34,.09-.3-.18-.6-.37-.9-.55-.13-.08-.16-.19-.08-.32,.18-.3,.37-.6,.55-.9,.09-.15,.2-.16,.34-.08,.29,.18,.59,.36,.88,.54,.14,.09,.17,.2,.08,.34-.09,.14-.18,.29-.26,.43Z"/><path class="cls-2" d="M43.87,7.45c-.15-.09-.3-.18-.45-.27-.13-.08-.16-.19-.08-.32,.18-.3,.37-.6,.55-.9,.09-.14,.2-.17,.34-.08,.29,.18,.59,.36,.88,.54,.14,.09,.17,.2,.08,.34-.18,.29-.36,.58-.54,.88-.09,.16-.21,.17-.36,.08-.14-.09-.29-.17-.43-.26h0Z"/><path class="cls-2" d="M47.29,12.86c-.16-.1-.33-.2-.49-.3-.11-.07-.13-.14-.06-.26,.19-.3,.38-.61,.56-.92,.08-.13,.16-.14,.27-.07,.33,.2,.65,.4,.98,.6,.12,.07,.14,.15,.06,.28-.19,.3-.38,.59-.55,.9-.08,.14-.17,.15-.29,.07-.16-.1-.33-.2-.49-.3Z"/><path class="cls-2" d="M40.36,14.51c.09-.15,.19-.3,.27-.45,.07-.14,.15-.17,.28-.08,.31,.2,.63,.39,.94,.58,.13,.08,.15,.16,.07,.29-.19,.3-.37,.6-.55,.9-.09,.15-.18,.18-.33,.08-.29-.18-.58-.36-.88-.54-.15-.09-.18-.18-.08-.33,.1-.14,.19-.3,.28-.45h0Z"/><path class="cls-2" d="M39.07,18q-.61-.37-.24-.99c.1-.16,.2-.31,.29-.47,.08-.14,.17-.17,.31-.08,.3,.19,.6,.37,.9,.55,.12,.07,.17,.16,.09,.3-.19,.31-.38,.61-.56,.92-.09,.15-.18,.15-.32,.06-.15-.1-.31-.19-.47-.29Z"/><path class="cls-2" d="M40.7,7.17c-.15-.09-.3-.19-.45-.27-.13-.07-.17-.16-.08-.29,.2-.31,.39-.62,.58-.94,.08-.13,.16-.15,.29-.06,.3,.19,.6,.37,.9,.55,.12,.07,.16,.14,.08,.27-.2,.32-.39,.64-.59,.96-.07,.12-.15,.14-.27,.06-.15-.1-.3-.18-.45-.28h0Z"/><path class="cls-2" d="M50.76,14.13c-.1,.16-.18,.32-.29,.47-.04,.05-.17,.09-.22,.06-.33-.18-.65-.39-.97-.58-.11-.07-.13-.14-.06-.25,.2-.31,.39-.63,.58-.94,.07-.12,.14-.14,.25-.06,.32,.2,.65,.39,.96,.6,.05,.03,.08,.17,.05,.23-.08,.17-.19,.33-.29,.5Z"/><path class="cls-2" d="M44.16,4.22c-.16-.1-.31-.19-.47-.29-.12-.07-.14-.15-.06-.28,.19-.3,.38-.6,.55-.9,.08-.14,.17-.15,.29-.07,.31,.2,.63,.39,.94,.58,.11,.07,.14,.14,.07,.25-.2,.31-.39,.63-.58,.94-.07,.12-.15,.13-.25,.06-.16-.1-.33-.2-.49-.3Z"/><path class="cls-1" d="M8.1,15.06c-.33,.54-.66,1.08-.99,1.62-.09,.16-.17,.2-.34,.09-.27-.18-.54-.34-.82-.5-.14-.08-.18-.17-.08-.33,.67-1.08,1.33-2.17,1.99-3.26,.09-.15,.18-.18,.33-.08,.28,.18,.56,.35,.84,.51,.14,.08,.16,.16,.07,.31-.34,.54-.67,1.09-1,1.64Z"/><path class="cls-1" d="M11.35,11.15c.14,.08,.27,.18,.41,.25,.19,.09,.17,.19,.08,.34-.18,.28-.35,.56-.51,.84-.07,.12-.14,.15-.27,.07-.3-.19-.61-.38-.92-.56-.12-.07-.15-.14-.07-.27,.18-.28,.36-.57,.53-.86,.09-.14,.17-.19,.33-.08,.13,.1,.29,.18,.43,.27h0Z"/><path class="cls-1" d="M6.09,19.72c-.14-.09-.28-.18-.43-.26-.15-.08-.15-.17-.07-.29,.18-.3,.36-.61,.55-.9,.03-.05,.17-.08,.23-.05,.32,.18,.63,.38,.95,.57,.13,.08,.13,.15,.06,.27-.18,.28-.36,.57-.53,.86-.09,.15-.18,.17-.33,.07-.13-.1-.29-.18-.43-.27h0Z"/><path class="cls-1" d="M8.01,23.45c-.09,.14-.18,.29-.26,.43-.07,.12-.16,.14-.28,.07-.29-.18-.58-.34-.85-.53-.06-.04-.1-.19-.07-.25,.16-.3,.34-.6,.53-.88,.04-.05,.19-.09,.25-.06,.3,.16,.6,.34,.88,.54,.05,.04,.08,.18,.05,.25-.06,.15-.17,.29-.25,.43h0Z"/></g></g></svg>