<?xml version="1.0" encoding="UTF-8"?><svg id="Calque_2" xmlns="http://www.w3.org/2000/svg" viewBox="0 0 48.14 47.08"><defs><style>.cls-1{fill:#fff;}.cls-2{fill:#9c9a6f;}.cls-3{fill:#f9f2aa;}.cls-4{fill:#d2bb80;}.cls-5{fill:#ffe9a8;}</style></defs><g id="icone"><g><rect class="cls-2" x="35.75" y="40.11" width="2.04" height="2.04" transform="translate(-17.47 51.22) rotate(-58.74)"/><rect class="cls-2" x="36.81" y="38.37" width="2.04" height="2.04" transform="translate(-15.47 51.29) rotate(-58.74)"/><rect class="cls-2" x="37.87" y="36.62" width="2.04" height="2.04" transform="translate(-13.47 51.35) rotate(-58.74)"/><rect class="cls-2" x="38.93" y="34.87" width="2.04" height="2.04" transform="translate(-11.46 51.42) rotate(-58.74)"/><rect class="cls-2" x="39.99" y="33.12" width="2.04" height="2.04" transform="translate(-9.46 51.49) rotate(-58.74)"/><rect class="cls-2" x="41.05" y="31.38" width="2.04" height="2.04" transform="translate(-7.45 51.55) rotate(-58.74)"/><rect class="cls-2" x="42.11" y="29.63" width="2.04" height="2.04" transform="translate(-5.45 51.62) rotate(-58.74)"/><rect class="cls-2" x="43.17" y="27.88" width="2.04" height="2.04" transform="translate(-3.45 51.68) rotate(-58.74)"/><rect class="cls-2" x="44.23" y="26.14" width="2.04" height="2.04" transform="translate(-1.44 51.75) rotate(-58.74)"/><rect class="cls-2" x="31.88" y="42.55" width="2.04" height="2.04" transform="translate(-21.41 49.09) rotate(-58.74)"/><rect class="cls-2" x="32.94" y="40.8" width="2.04" height="2.04" transform="translate(-19.41 49.15) rotate(-58.74)"/><rect class="cls-3" x="34" y="39.05" width="2.04" height="2.04" transform="translate(-17.41 49.22) rotate(-58.74)"/><rect class="cls-3" x="35.06" y="37.3" width="2.04" height="2.04" transform="translate(-15.4 49.28) rotate(-58.74)"/><rect class="cls-3" x="36.12" y="35.56" width="2.04" height="2.04" transform="translate(-13.4 49.35) rotate(-58.74)"/><rect class="cls-3" x="37.18" y="33.81" width="2.04" height="2.04" transform="translate(-11.4 49.42) rotate(-58.74)"/><rect class="cls-3" x="38.24" y="32.06" width="2.04" height="2.04" transform="translate(-9.39 49.48) rotate(-58.74)"/><rect class="cls-3" x="39.3" y="30.32" width="2.04" height="2.04" transform="translate(-7.39 49.55) rotate(-58.74)"/><rect class="cls-3" x="40.36" y="28.57" width="2.04" height="2.04" transform="translate(-5.39 49.61) rotate(-58.74)"/><rect class="cls-3" x="41.42" y="26.82" width="2.04" height="2.04" transform="translate(-3.38 49.68) rotate(-58.74)"/><rect class="cls-3" x="42.49" y="25.08" width="2.04" height="2.04" transform="translate(-1.38 49.75) rotate(-58.74)"/><rect class="cls-2" x="43.54" y="23.33" width="2.04" height="2.04" transform="translate(.62 49.81) rotate(-58.74)"/><rect class="cls-2" x="44.61" y="21.58" width="2.04" height="2.04" transform="translate(2.63 49.88) rotate(-58.74)"/><rect class="cls-2" x="45.67" y="19.83" width="2.04" height="2.04" transform="translate(4.63 49.94) rotate(-58.74)"/><rect class="cls-2" x="29.07" y="43.23" width="2.04" height="2.04" transform="translate(-23.35 47.02) rotate(-58.74)"/><rect class="cls-3" x="30.13" y="41.49" width="2.04" height="2.04" transform="translate(-21.35 47.08) rotate(-58.74)"/><rect class="cls-3" x="31.19" y="39.74" width="2.04" height="2.04" transform="translate(-19.34 47.15) rotate(-58.74)"/><rect class="cls-3" x="32.25" y="37.99" width="2.04" height="2.04" transform="translate(-17.34 47.21) rotate(-58.74)"/><rect class="cls-3" x="33.31" y="36.25" width="2.04" height="2.04" transform="translate(-15.34 47.28) rotate(-58.74)"/><rect class="cls-3" x="34.37" y="34.5" width="2.04" height="2.04" transform="translate(-13.33 47.35) rotate(-58.74)"/><rect class="cls-3" x="35.44" y="32.75" width="2.04" height="2.04" transform="translate(-11.33 47.41) rotate(-58.74)"/><rect class="cls-3" x="36.5" y="31" width="2.04" height="2.04" transform="translate(-9.33 47.48) rotate(-58.74)"/><rect class="cls-3" x="37.56" y="29.26" width="2.04" height="2.04" transform="translate(-7.32 47.54) rotate(-58.74)"/><rect class="cls-3" x="38.62" y="27.51" width="2.04" height="2.04" transform="translate(-5.32 47.61) rotate(-58.74)"/><rect class="cls-3" x="39.68" y="25.76" width="2.04" height="2.04" transform="translate(-3.32 47.68) rotate(-58.74)"/><rect class="cls-3" x="40.74" y="24.02" width="2.04" height="2.04" transform="translate(-1.31 47.74) rotate(-58.74)"/><rect class="cls-3" x="41.8" y="22.27" width="2.04" height="2.04" transform="translate(.69 47.81) rotate(-58.74)"/><rect class="cls-3" x="42.86" y="20.52" width="2.04" height="2.04" transform="translate(2.7 47.87) rotate(-58.74)"/><rect class="cls-2" x="43.92" y="18.78" width="2.04" height="2.04" transform="translate(4.7 47.94) rotate(-58.74)"/><rect class="cls-2" x="26.26" y="43.92" width="2.04" height="2.04" transform="translate(-25.29 44.95) rotate(-58.74)"/><rect class="cls-3" x="27.33" y="42.17" width="2.04" height="2.04" transform="translate(-23.29 45.01) rotate(-58.74)"/><rect class="cls-3" x="28.39" y="40.42" width="2.04" height="2.04" transform="translate(-21.28 45.08) rotate(-58.74)"/><rect class="cls-3" x="29.45" y="38.68" width="2.04" height="2.04" transform="translate(-19.28 45.14) rotate(-58.74)"/><rect class="cls-3" x="30.51" y="36.93" width="2.04" height="2.04" transform="translate(-17.28 45.21) rotate(-58.74)"/><rect class="cls-3" x="31.57" y="35.18" width="2.04" height="2.04" transform="translate(-15.27 45.28) rotate(-58.74)"/><rect class="cls-3" x="32.63" y="33.44" width="2.04" height="2.04" transform="translate(-13.27 45.34) rotate(-58.74)"/><rect class="cls-3" x="33.69" y="31.69" width="2.04" height="2.04" transform="translate(-11.26 45.41) rotate(-58.74)"/><rect class="cls-3" x="34.75" y="29.94" width="2.04" height="2.04" transform="translate(-9.26 45.48) rotate(-58.74)"/><rect class="cls-3" x="35.81" y="28.2" width="2.04" height="2.04" transform="translate(-7.26 45.54) rotate(-58.74)"/><rect class="cls-3" x="36.87" y="26.45" width="2.04" height="2.04" transform="translate(-5.25 45.61) rotate(-58.74)"/><rect class="cls-3" x="37.93" y="24.7" width="2.04" height="2.04" transform="translate(-3.25 45.67) rotate(-58.74)"/><rect class="cls-3" x="38.99" y="22.95" width="2.04" height="2.04" transform="translate(-1.25 45.74) rotate(-58.74)"/><rect class="cls-3" x="40.05" y="21.21" width="2.04" height="2.04" transform="translate(.76 45.81) rotate(-58.74)"/><rect class="cls-3" x="41.11" y="19.46" width="2.04" height="2.04" transform="translate(2.76 45.87) rotate(-58.74)"/><rect class="cls-3" x="42.17" y="17.71" width="2.04" height="2.04" transform="translate(4.76 45.94) rotate(-58.74)"/><rect class="cls-2" x="43.23" y="15.97" width="2.04" height="2.04" transform="translate(6.77 46) rotate(-58.74)"/><rect class="cls-2" x="44.29" y="14.22" width="2.04" height="2.04" transform="translate(8.77 46.07) rotate(-58.74)"/><rect class="cls-2" x="23.46" y="44.61" width="2.04" height="2.04" transform="translate(-27.23 42.88) rotate(-58.74)"/><rect class="cls-3" x="24.52" y="42.86" width="2.04" height="2.04" transform="translate(-25.22 42.94) rotate(-58.74)"/><rect class="cls-1" x="25.58" y="41.11" width="2.04" height="2.04" transform="translate(-23.22 43.01) rotate(-58.74)"/><rect class="cls-3" x="26.64" y="39.37" width="2.04" height="2.04" transform="translate(-21.22 43.08) rotate(-58.74)"/><rect class="cls-3" x="27.7" y="37.62" width="2.04" height="2.04" transform="translate(-19.21 43.14) rotate(-58.74)"/><rect class="cls-3" x="28.76" y="35.87" width="2.04" height="2.04" transform="translate(-17.21 43.21) rotate(-58.74)"/><rect class="cls-3" x="29.82" y="34.12" width="2.04" height="2.04" transform="translate(-15.21 43.27) rotate(-58.74)"/><rect class="cls-3" x="30.88" y="32.38" width="2.04" height="2.04" transform="translate(-13.2 43.34) rotate(-58.74)"/><rect class="cls-3" x="31.94" y="30.63" width="2.04" height="2.04" transform="translate(-11.2 43.41) rotate(-58.74)"/><rect class="cls-3" x="33" y="28.88" width="2.04" height="2.04" transform="translate(-9.19 43.47) rotate(-58.74)"/><rect class="cls-3" x="34.06" y="27.14" width="2.04" height="2.04" transform="translate(-7.19 43.54) rotate(-58.74)"/><rect class="cls-3" x="35.12" y="25.39" width="2.04" height="2.04" transform="translate(-5.19 43.6) rotate(-58.74)"/><rect class="cls-3" x="36.18" y="23.64" width="2.04" height="2.04" transform="translate(-3.18 43.67) rotate(-58.74)"/><rect class="cls-3" x="37.24" y="21.9" width="2.04" height="2.04" transform="translate(-1.18 43.74) rotate(-58.74)"/><rect class="cls-3" x="38.3" y="20.15" width="2.04" height="2.04" transform="translate(.82 43.8) rotate(-58.74)"/><rect class="cls-3" x="39.37" y="18.4" width="2.04" height="2.04" transform="translate(2.83 43.87) rotate(-58.74)"/><rect class="cls-3" x="40.43" y="16.65" width="2.04" height="2.04" transform="translate(4.83 43.93) rotate(-58.74)"/><rect class="cls-3" x="41.49" y="14.91" width="2.04" height="2.04" transform="translate(6.83 44) rotate(-58.74)"/><rect class="cls-2" x="42.55" y="13.16" width="2.04" height="2.04" transform="translate(8.84 44.07) rotate(-58.74)"/><rect class="cls-2" x="21.71" y="43.55" width="2.04" height="2.04" transform="translate(-27.16 40.87) rotate(-58.74)"/><rect class="cls-3" x="22.77" y="41.8" width="2.04" height="2.04" transform="translate(-25.16 40.94) rotate(-58.74)"/><rect class="cls-3" x="23.83" y="40.05" width="2.04" height="2.04" transform="translate(-23.15 41.01) rotate(-58.74)"/><rect class="cls-3" x="24.89" y="38.3" width="2.04" height="2.04" transform="translate(-21.15 41.07) rotate(-58.74)"/><rect class="cls-3" x="25.95" y="36.56" width="2.04" height="2.04" transform="translate(-19.15 41.14) rotate(-58.74)"/><rect class="cls-3" x="27.01" y="34.81" width="2.04" height="2.04" transform="translate(-17.14 41.2) rotate(-58.74)"/><rect class="cls-3" x="28.07" y="33.06" width="2.04" height="2.04" transform="translate(-15.14 41.27) rotate(-58.74)"/><rect class="cls-3" x="29.13" y="31.32" width="2.04" height="2.04" transform="translate(-13.14 41.34) rotate(-58.74)"/><rect class="cls-3" x="30.2" y="29.57" width="2.04" height="2.04" transform="translate(-11.13 41.4) rotate(-58.74)"/><rect class="cls-3" x="31.26" y="27.82" width="2.04" height="2.04" transform="translate(-9.13 41.47) rotate(-58.74)"/><rect class="cls-3" x="32.32" y="26.07" width="2.04" height="2.04" transform="translate(-7.12 41.53) rotate(-58.74)"/><rect class="cls-3" x="33.38" y="24.33" width="2.04" height="2.04" transform="translate(-5.12 41.6) rotate(-58.74)"/><rect class="cls-3" x="34.44" y="22.58" width="2.04" height="2.04" transform="translate(-3.12 41.67) rotate(-58.74)"/><rect class="cls-3" x="35.5" y="20.83" width="2.04" height="2.04" transform="translate(-1.11 41.73) rotate(-58.74)"/><rect class="cls-3" x="36.56" y="19.09" width="2.04" height="2.04" transform="translate(.89 41.8) rotate(-58.74)"/><rect class="cls-3" x="37.62" y="17.34" width="2.04" height="2.04" transform="translate(2.89 41.86) rotate(-58.74)"/><rect class="cls-3" x="38.68" y="15.59" width="2.04" height="2.04" transform="translate(4.9 41.93) rotate(-58.74)"/><rect class="cls-3" x="39.74" y="13.85" width="2.04" height="2.04" transform="translate(6.9 42) rotate(-58.74)"/><rect class="cls-2" x="40.8" y="12.1" width="2.04" height="2.04" transform="translate(8.9 42.06) rotate(-58.74)"/><rect class="cls-2" x="18.9" y="44.23" width="2.04" height="2.04" transform="translate(-29.1 38.8) rotate(-58.74)"/><rect class="cls-3" x="19.96" y="42.48" width="2.04" height="2.04" transform="translate(-27.09 38.87) rotate(-58.74)"/><rect class="cls-3" x="21.02" y="40.74" width="2.04" height="2.04" transform="translate(-25.09 38.94) rotate(-58.74)"/><rect class="cls-3" x="22.08" y="38.99" width="2.04" height="2.04" transform="translate(-23.09 39) rotate(-58.74)"/><rect class="cls-3" x="23.15" y="37.24" width="2.04" height="2.04" transform="translate(-21.08 39.07) rotate(-58.74)"/><rect class="cls-3" x="24.21" y="35.5" width="2.04" height="2.04" transform="translate(-19.08 39.13) rotate(-58.74)"/><rect class="cls-3" x="25.27" y="33.75" width="2.04" height="2.04" transform="translate(-17.08 39.2) rotate(-58.74)"/><rect class="cls-3" x="26.33" y="32" width="2.04" height="2.04" transform="translate(-15.07 39.27) rotate(-58.74)"/><rect class="cls-3" x="27.39" y="30.25" width="2.04" height="2.04" transform="translate(-13.07 39.33) rotate(-58.74)"/><rect class="cls-3" x="28.45" y="28.51" width="2.04" height="2.04" transform="translate(-11.07 39.4) rotate(-58.74)"/><rect class="cls-3" x="29.51" y="26.76" width="2.04" height="2.04" transform="translate(-9.06 39.46) rotate(-58.74)"/><rect class="cls-3" x="30.57" y="25.01" width="2.04" height="2.04" transform="translate(-7.06 39.53) rotate(-58.74)"/><rect class="cls-3" x="31.63" y="23.27" width="2.04" height="2.04" transform="translate(-5.06 39.6) rotate(-58.74)"/><rect class="cls-3" x="32.69" y="21.52" width="2.04" height="2.04" transform="translate(-3.05 39.66) rotate(-58.74)"/><rect class="cls-3" x="33.75" y="19.77" width="2.04" height="2.04" transform="translate(-1.05 39.73) rotate(-58.74)"/><rect class="cls-3" x="34.81" y="18.03" width="2.04" height="2.04" transform="translate(.95 39.79) rotate(-58.74)"/><rect class="cls-3" x="35.87" y="16.28" width="2.04" height="2.04" transform="translate(2.96 39.86) rotate(-58.74)"/><rect class="cls-3" x="36.93" y="14.53" width="2.04" height="2.04" transform="translate(4.96 39.93) rotate(-58.74)"/><rect class="cls-3" x="37.99" y="12.79" width="2.04" height="2.04" transform="translate(6.97 39.99) rotate(-58.74)"/><rect class="cls-3" x="39.05" y="11.04" width="2.04" height="2.04" transform="translate(8.97 40.06) rotate(-58.74)"/><rect class="cls-2" x="40.11" y="9.29" width="2.04" height="2.04" transform="translate(10.97 40.12) rotate(-58.74)"/><rect class="cls-2" x="17.16" y="43.17" width="2.04" height="2.04" transform="translate(-29.03 36.8) rotate(-58.74)"/><rect class="cls-3" x="18.22" y="41.42" width="2.04" height="2.04" transform="translate(-27.03 36.87) rotate(-58.74)"/><rect class="cls-3" x="19.28" y="39.68" width="2.04" height="2.04" transform="translate(-25.03 36.93) rotate(-58.74)"/><rect class="cls-3" x="20.34" y="37.93" width="2.04" height="2.04" transform="translate(-23.02 37) rotate(-58.74)"/><rect class="cls-3" x="21.4" y="36.18" width="2.04" height="2.04" transform="translate(-21.02 37.06) rotate(-58.74)"/><rect class="cls-3" x="22.46" y="34.44" width="2.04" height="2.04" transform="translate(-19.01 37.13) rotate(-58.74)"/><rect class="cls-3" x="23.52" y="32.69" width="2.04" height="2.04" transform="translate(-17.01 37.2) rotate(-58.74)"/><rect class="cls-4" x="24.58" y="30.94" width="2.04" height="2.04" transform="translate(-15.01 37.26) rotate(-58.74)"/><rect class="cls-4" x="25.64" y="29.2" width="2.04" height="2.04" transform="translate(-13 37.33) rotate(-58.74)"/><rect class="cls-4" x="26.7" y="27.45" width="2.04" height="2.04" transform="translate(-11 37.39) rotate(-58.74)"/><rect class="cls-3" x="27.76" y="25.7" width="2.04" height="2.04" transform="translate(-9 37.46) rotate(-58.74)"/><rect class="cls-4" x="28.82" y="23.95" width="2.04" height="2.04" transform="translate(-6.99 37.53) rotate(-58.74)"/><rect class="cls-4" x="29.88" y="22.21" width="2.04" height="2.04" transform="translate(-4.99 37.59) rotate(-58.74)"/><rect class="cls-4" x="30.94" y="20.46" width="2.04" height="2.04" transform="translate(-2.99 37.66) rotate(-58.74)"/><rect class="cls-3" x="32" y="18.71" width="2.04" height="2.04" transform="translate(-.98 37.73) rotate(-58.74)"/><rect class="cls-3" x="33.06" y="16.97" width="2.04" height="2.04" transform="translate(1.02 37.79) rotate(-58.74)"/><rect class="cls-3" x="34.12" y="15.22" width="2.04" height="2.04" transform="translate(3.03 37.86) rotate(-58.74)"/><rect class="cls-3" x="35.19" y="13.47" width="2.04" height="2.04" transform="translate(5.03 37.92) rotate(-58.74)"/><rect class="cls-3" x="36.24" y="11.73" width="2.04" height="2.04" transform="translate(7.03 37.99) rotate(-58.74)"/><rect class="cls-3" x="37.31" y="9.98" width="2.04" height="2.04" transform="translate(9.04 38.06) rotate(-58.74)"/><rect class="cls-2" x="38.37" y="8.23" width="2.04" height="2.04" transform="translate(11.04 38.12) rotate(-58.74)"/><rect class="cls-2" x="15.41" y="42.11" width="2.04" height="2.04" transform="translate(-28.97 34.8) rotate(-58.74)"/><rect class="cls-3" x="16.47" y="40.36" width="2.04" height="2.04" transform="translate(-26.96 34.86) rotate(-58.74)"/><rect class="cls-3" x="17.53" y="38.62" width="2.04" height="2.04" transform="translate(-24.96 34.93) rotate(-58.74)"/><rect class="cls-3" x="18.59" y="36.87" width="2.04" height="2.04" transform="translate(-22.95 35) rotate(-58.74)"/><rect class="cls-3" x="19.65" y="35.12" width="2.04" height="2.04" transform="translate(-20.95 35.06) rotate(-58.74)"/><rect class="cls-3" x="20.71" y="33.38" width="2.04" height="2.04" transform="translate(-18.95 35.13) rotate(-58.74)"/><rect class="cls-4" x="21.77" y="31.63" width="2.04" height="2.04" transform="translate(-16.94 35.19) rotate(-58.74)"/><rect class="cls-3" x="22.83" y="29.88" width="2.04" height="2.04" transform="translate(-14.94 35.26) rotate(-58.74)"/><rect class="cls-3" x="23.89" y="28.13" width="2.04" height="2.04" transform="translate(-12.94 35.33) rotate(-58.74)"/><rect class="cls-3" x="24.95" y="26.39" width="2.04" height="2.04" transform="translate(-10.93 35.39) rotate(-58.74)"/><rect class="cls-4" x="26.01" y="24.64" width="2.04" height="2.04" transform="translate(-8.93 35.46) rotate(-58.74)"/><rect class="cls-3" x="27.07" y="22.89" width="2.04" height="2.04" transform="translate(-6.93 35.52) rotate(-58.74)"/><rect class="cls-3" x="28.14" y="21.15" width="2.04" height="2.04" transform="translate(-4.92 35.59) rotate(-58.74)"/><rect class="cls-3" x="29.2" y="19.4" width="2.04" height="2.04" transform="translate(-2.92 35.66) rotate(-58.74)"/><rect class="cls-4" x="30.26" y="17.65" width="2.04" height="2.04" transform="translate(-.92 35.72) rotate(-58.74)"/><rect class="cls-3" x="31.32" y="15.91" width="2.04" height="2.04" transform="translate(1.09 35.79) rotate(-58.74)"/><rect class="cls-3" x="32.38" y="14.16" width="2.04" height="2.04" transform="translate(3.09 35.85) rotate(-58.74)"/><rect class="cls-3" x="33.44" y="12.41" width="2.04" height="2.04" transform="translate(5.09 35.92) rotate(-58.74)"/><rect class="cls-3" x="34.5" y="10.66" width="2.04" height="2.04" transform="translate(7.1 35.99) rotate(-58.74)"/><rect class="cls-3" x="35.56" y="8.92" width="2.04" height="2.04" transform="translate(9.1 36.05) rotate(-58.74)"/><rect class="cls-2" x="36.62" y="7.17" width="2.04" height="2.04" transform="translate(11.1 36.12) rotate(-58.74)"/><rect class="cls-2" x="13.66" y="41.05" width="2.04" height="2.04" transform="translate(-28.9 32.79) rotate(-58.74)"/><rect class="cls-3" x="14.72" y="39.3" width="2.04" height="2.04" transform="translate(-26.9 32.86) rotate(-58.74)"/><rect class="cls-3" x="15.78" y="37.56" width="2.04" height="2.04" transform="translate(-24.89 32.93) rotate(-58.74)"/><rect class="cls-3" x="16.84" y="35.81" width="2.04" height="2.04" transform="translate(-22.89 32.99) rotate(-58.74)"/><rect class="cls-4" x="17.91" y="34.06" width="2.04" height="2.04" transform="translate(-20.89 33.06) rotate(-58.74)"/><rect class="cls-4" x="18.96" y="32.32" width="2.04" height="2.04" transform="translate(-18.88 33.12) rotate(-58.74)"/><rect class="cls-4" x="20.03" y="30.57" width="2.04" height="2.04" transform="translate(-16.88 33.19) rotate(-58.74)"/><rect class="cls-3" x="21.09" y="28.82" width="2.04" height="2.04" transform="translate(-14.88 33.26) rotate(-58.74)"/><rect class="cls-3" x="22.15" y="27.07" width="2.04" height="2.04" transform="translate(-12.87 33.32) rotate(-58.74)"/><rect class="cls-3" x="23.21" y="25.33" width="2.04" height="2.04" transform="translate(-10.87 33.39) rotate(-58.74)"/><rect class="cls-4" x="24.27" y="23.58" width="2.04" height="2.04" transform="translate(-8.86 33.45) rotate(-58.74)"/><rect class="cls-3" x="25.33" y="21.83" width="2.04" height="2.04" transform="translate(-6.86 33.52) rotate(-58.74)"/><rect class="cls-3" x="26.39" y="20.09" width="2.04" height="2.04" transform="translate(-4.86 33.59) rotate(-58.74)"/><rect class="cls-3" x="27.45" y="18.34" width="2.04" height="2.04" transform="translate(-2.85 33.65) rotate(-58.74)"/><rect class="cls-4" x="28.51" y="16.59" width="2.04" height="2.04" transform="translate(-.85 33.72) rotate(-58.74)"/><rect class="cls-4" x="29.57" y="14.85" width="2.04" height="2.04" transform="translate(1.15 33.78) rotate(-58.74)"/><rect class="cls-4" x="30.63" y="13.1" width="2.04" height="2.04" transform="translate(3.16 33.85) rotate(-58.74)"/><rect class="cls-3" x="31.69" y="11.35" width="2.04" height="2.04" transform="translate(5.16 33.92) rotate(-58.74)"/><rect class="cls-3" x="32.75" y="9.61" width="2.04" height="2.04" transform="translate(7.16 33.98) rotate(-58.74)"/><rect class="cls-3" x="33.81" y="7.86" width="2.04" height="2.04" transform="translate(9.17 34.05) rotate(-58.74)"/><rect class="cls-2" x="34.87" y="6.11" width="2.04" height="2.04" transform="translate(11.17 34.11) rotate(-58.74)"/><rect class="cls-2" x="11.92" y="39.99" width="2.04" height="2.04" transform="translate(-28.83 30.79) rotate(-58.74)"/><rect class="cls-3" x="12.98" y="38.24" width="2.04" height="2.04" transform="translate(-26.83 30.86) rotate(-58.74)"/><rect class="cls-3" x="14.04" y="36.5" width="2.04" height="2.04" transform="translate(-24.83 30.92) rotate(-58.74)"/><rect class="cls-3" x="15.1" y="34.75" width="2.04" height="2.04" transform="translate(-22.82 30.99) rotate(-58.74)"/><rect class="cls-3" x="16.16" y="33" width="2.04" height="2.04" transform="translate(-20.82 31.05) rotate(-58.74)"/><rect class="cls-3" x="17.22" y="31.25" width="2.04" height="2.04" transform="translate(-18.82 31.12) rotate(-58.74)"/><rect class="cls-4" x="18.28" y="29.51" width="2.04" height="2.04" transform="translate(-16.81 31.19) rotate(-58.74)"/><rect class="cls-3" x="19.34" y="27.76" width="2.04" height="2.04" transform="translate(-14.81 31.25) rotate(-58.74)"/><rect class="cls-3" x="20.4" y="26.01" width="2.04" height="2.04" transform="translate(-12.81 31.32) rotate(-58.74)"/><rect class="cls-3" x="21.46" y="24.27" width="2.04" height="2.04" transform="translate(-10.8 31.38) rotate(-58.74)"/><rect class="cls-4" x="22.52" y="22.52" width="2.04" height="2.04" transform="translate(-8.8 31.45) rotate(-58.74)"/><rect class="cls-3" x="23.58" y="20.77" width="2.04" height="2.04" transform="translate(-6.79 31.52) rotate(-58.74)"/><rect class="cls-3" x="24.64" y="19.03" width="2.04" height="2.04" transform="translate(-4.79 31.58) rotate(-58.74)"/><rect class="cls-3" x="25.7" y="17.28" width="2.04" height="2.04" transform="translate(-2.79 31.65) rotate(-58.74)"/><rect class="cls-4" x="26.76" y="15.53" width="2.04" height="2.04" transform="translate(-.78 31.72) rotate(-58.74)"/><rect class="cls-3" x="27.82" y="13.79" width="2.04" height="2.04" transform="translate(1.22 31.78) rotate(-58.74)"/><rect class="cls-3" x="28.88" y="12.04" width="2.04" height="2.04" transform="translate(3.22 31.85) rotate(-58.74)"/><rect class="cls-3" x="29.94" y="10.29" width="2.04" height="2.04" transform="translate(5.23 31.91) rotate(-58.74)"/><rect class="cls-3" x="31" y="8.54" width="2.04" height="2.04" transform="translate(7.23 31.98) rotate(-58.74)"/><rect class="cls-3" x="32.07" y="6.8" width="2.04" height="2.04" transform="translate(9.23 32.05) rotate(-58.74)"/><rect class="cls-2" x="33.12" y="5.05" width="2.04" height="2.04" transform="translate(11.24 32.11) rotate(-58.74)"/><rect class="cls-2" x="10.17" y="38.93" width="2.04" height="2.04" transform="translate(-28.77 28.79) rotate(-58.74)"/><rect class="cls-3" x="11.23" y="37.18" width="2.04" height="2.04" transform="translate(-26.76 28.85) rotate(-58.74)"/><rect class="cls-3" x="12.29" y="35.44" width="2.04" height="2.04" transform="translate(-24.76 28.92) rotate(-58.74)"/><rect class="cls-3" x="13.35" y="33.69" width="2.04" height="2.04" transform="translate(-22.76 28.98) rotate(-58.74)"/><rect class="cls-4" x="14.41" y="31.94" width="2.04" height="2.04" transform="translate(-20.75 29.05) rotate(-58.74)"/><polygon class="cls-4" points="17.9 30.87 16.84 32.62 15.09 31.56 15.09 31.56 16.15 29.81 17.9 30.87"/><rect class="cls-4" x="16.53" y="28.45" width="2.04" height="2.04" transform="translate(-16.75 29.18) rotate(-58.74)"/><polygon class="cls-3" points="20.02 27.38 18.96 29.13 17.21 28.07 17.21 28.06 18.27 26.32 20.02 27.38"/><polygon class="cls-3" points="21.08 25.63 20.02 27.38 18.27 26.32 19.33 24.57 19.33 24.57 21.08 25.63"/><rect class="cls-3" x="19.71" y="23.21" width="2.04" height="2.04" transform="translate(-10.74 29.38) rotate(-58.74)"/><rect class="cls-4" x="20.77" y="21.46" width="2.04" height="2.04" transform="translate(-8.73 29.45) rotate(-58.74)"/><rect class="cls-3" x="21.83" y="19.71" width="2.04" height="2.04" transform="translate(-6.73 29.51) rotate(-58.74)"/><rect class="cls-3" x="22.89" y="17.96" width="2.04" height="2.04" transform="translate(-4.72 29.58) rotate(-58.74)"/><rect class="cls-3" x="23.95" y="16.22" width="2.04" height="2.04" transform="translate(-2.72 29.64) rotate(-58.74)"/><rect class="cls-4" x="25.02" y="14.47" width="2.04" height="2.04" transform="translate(-.72 29.71) rotate(-58.74)"/><rect class="cls-4" x="26.07" y="12.72" width="2.04" height="2.04" transform="translate(1.29 29.78) rotate(-58.74)"/><polygon class="cls-4" points="29.56 11.66 28.5 13.4 26.75 12.34 27.81 10.6 27.81 10.59 29.56 11.66"/><rect class="cls-3" x="28.2" y="9.23" width="2.04" height="2.04" transform="translate(5.29 29.91) rotate(-58.74)"/><rect class="cls-3" x="29.26" y="7.48" width="2.04" height="2.04" transform="translate(7.3 29.98) rotate(-58.74)"/><rect class="cls-3" x="30.32" y="5.74" width="2.04" height="2.04" transform="translate(9.3 30.04) rotate(-58.74)"/><polygon class="cls-2" points="33.8 4.67 32.74 6.42 31 5.36 31 5.35 32.06 3.61 33.8 4.67"/><rect class="cls-2" x="8.42" y="37.87" width="2.04" height="2.04" transform="translate(-28.7 26.78) rotate(-58.74)"/><rect class="cls-3" x="9.48" y="36.12" width="2.04" height="2.04" transform="translate(-26.7 26.85) rotate(-58.74)"/><rect class="cls-3" x="10.54" y="34.38" width="2.04" height="2.04" transform="translate(-24.7 26.91) rotate(-58.74)"/><rect class="cls-3" x="11.6" y="32.63" width="2.04" height="2.04" transform="translate(-22.69 26.98) rotate(-58.74)"/><rect class="cls-3" x="12.66" y="30.88" width="2.04" height="2.04" transform="translate(-20.69 27.05) rotate(-58.74)"/><polygon class="cls-3" points="15.09 31.56 15.09 31.56 13.34 30.5 13.34 30.5 14.4 28.75 16.15 29.81 15.09 31.56"/><rect class="cls-4" x="14.78" y="27.39" width="2.04" height="2.04" transform="translate(-16.68 27.18) rotate(-58.74)"/><polygon class="cls-4" points="17.21 28.06 17.21 28.07 15.46 27.01 15.46 27 16.52 25.26 18.27 26.32 17.21 28.06"/><polygon class="cls-4" points="19.33 24.57 18.27 26.32 16.52 25.26 17.58 23.51 17.58 23.51 19.33 24.57 19.33 24.57"/><rect class="cls-4" x="17.97" y="22.15" width="2.04" height="2.04" transform="translate(-10.67 27.38) rotate(-58.74)"/><rect class="cls-4" x="19.03" y="20.4" width="2.04" height="2.04" transform="translate(-8.67 27.44) rotate(-58.74)"/><rect class="cls-4" x="20.09" y="18.65" width="2.04" height="2.04" transform="translate(-6.66 27.51) rotate(-58.74)"/><rect class="cls-4" x="21.15" y="16.91" width="2.04" height="2.04" transform="translate(-4.66 27.58) rotate(-58.74)"/><rect class="cls-4" x="22.21" y="15.16" width="2.04" height="2.04" transform="translate(-2.66 27.64) rotate(-58.74)"/><rect class="cls-4" x="23.27" y="13.41" width="2.04" height="2.04" transform="translate(-.65 27.71) rotate(-58.74)"/><rect class="cls-3" x="24.33" y="11.66" width="2.04" height="2.04" transform="translate(1.35 27.77) rotate(-58.74)"/><polygon class="cls-3" points="27.81 10.6 26.75 12.34 25.01 11.28 26.07 9.54 26.07 9.53 27.81 10.59 27.81 10.6"/><rect class="cls-3" x="26.45" y="8.17" width="2.04" height="2.04" transform="translate(5.36 27.91) rotate(-58.74)"/><rect class="cls-3" x="27.51" y="6.42" width="2.04" height="2.04" transform="translate(7.36 27.97) rotate(-58.74)"/><rect class="cls-3" x="28.57" y="4.68" width="2.04" height="2.04" transform="translate(9.37 28.04) rotate(-58.74)"/><polygon class="cls-2" points="31 5.35 31 5.36 29.25 4.3 29.25 4.29 30.31 2.55 32.06 3.61 31 5.35"/><rect class="cls-2" x="6.67" y="36.81" width="2.04" height="2.04" transform="translate(-28.64 24.78) rotate(-58.74)"/><rect class="cls-3" x="7.74" y="35.06" width="2.04" height="2.04" transform="translate(-26.63 24.85) rotate(-58.74)"/><rect class="cls-3" x="8.8" y="33.31" width="2.04" height="2.04" transform="translate(-24.63 24.91) rotate(-58.74)"/><rect class="cls-3" x="9.86" y="31.57" width="2.04" height="2.04" transform="translate(-22.62 24.98) rotate(-58.74)"/><rect class="cls-3" x="10.92" y="29.82" width="2.04" height="2.04" transform="translate(-20.62 25.04) rotate(-58.74)"/><polygon class="cls-3" points="13.34 30.5 13.34 30.5 11.59 29.44 12.66 27.69 14.4 28.75 13.34 30.5"/><rect class="cls-4" x="13.04" y="26.33" width="2.04" height="2.04" transform="translate(-16.61 25.18) rotate(-58.74)"/><polygon class="cls-3" points="15.46 27 15.46 27.01 13.72 25.95 14.78 24.2 16.52 25.26 15.46 27"/><polygon class="cls-3" points="17.58 23.51 16.52 25.26 14.78 24.2 15.84 22.45 17.58 23.51 17.58 23.51"/><rect class="cls-3" x="16.22" y="21.09" width="2.04" height="2.04" transform="translate(-10.6 25.37) rotate(-58.74)"/><rect class="cls-3" x="17.28" y="19.34" width="2.04" height="2.04" transform="translate(-8.6 25.44) rotate(-58.74)"/><rect class="cls-3" x="18.34" y="17.59" width="2.04" height="2.04" transform="translate(-6.6 25.51) rotate(-58.74)"/><rect class="cls-3" x="19.4" y="15.84" width="2.04" height="2.04" transform="translate(-4.59 25.57) rotate(-58.74)"/><rect class="cls-3" x="20.46" y="14.1" width="2.04" height="2.04" transform="translate(-2.59 25.64) rotate(-58.74)"/><rect class="cls-4" x="21.52" y="12.35" width="2.04" height="2.04" transform="translate(-.59 25.7) rotate(-58.74)"/><rect class="cls-3" x="22.58" y="10.6" width="2.04" height="2.04" transform="translate(1.42 25.77) rotate(-58.74)"/><polygon class="cls-3" points="26.07 9.54 25.01 11.28 23.26 10.22 24.32 8.47 26.07 9.53 26.07 9.54"/><rect class="cls-3" x="24.7" y="7.11" width="2.04" height="2.04" transform="translate(5.43 25.9) rotate(-58.74)"/><rect class="cls-3" x="25.76" y="5.36" width="2.04" height="2.04" transform="translate(7.43 25.97) rotate(-58.74)"/><rect class="cls-1" x="26.82" y="3.62" width="2.04" height="2.04" transform="translate(9.43 26.03) rotate(-58.74)"/><polygon class="cls-2" points="29.25 4.29 29.25 4.3 27.5 3.23 28.56 1.49 30.31 2.55 29.25 4.29"/><rect class="cls-2" x="4.93" y="35.75" width="2.04" height="2.04" transform="translate(-28.57 22.78) rotate(-58.74)"/><rect class="cls-3" x="5.99" y="34" width="2.04" height="2.04" transform="translate(-26.57 22.84) rotate(-58.74)"/><rect class="cls-3" x="7.05" y="32.26" width="2.04" height="2.04" transform="translate(-24.56 22.91) rotate(-58.74)"/><rect class="cls-3" x="8.11" y="30.51" width="2.04" height="2.04" transform="translate(-22.56 22.97) rotate(-58.74)"/><rect class="cls-3" x="9.17" y="28.76" width="2.04" height="2.04" transform="translate(-20.56 23.04) rotate(-58.74)"/><rect class="cls-3" x="10.23" y="27.01" width="2.04" height="2.04" transform="translate(-18.55 23.11) rotate(-58.74)"/><rect class="cls-4" x="11.29" y="25.27" width="2.04" height="2.04" transform="translate(-16.55 23.17) rotate(-58.74)"/><rect class="cls-3" x="12.35" y="23.52" width="2.04" height="2.04" transform="translate(-14.55 23.24) rotate(-58.74)"/><rect class="cls-3" x="13.41" y="21.77" width="2.04" height="2.04" transform="translate(-12.54 23.3) rotate(-58.74)"/><rect class="cls-3" x="14.47" y="20.03" width="2.04" height="2.04" transform="translate(-10.54 23.37) rotate(-58.74)"/><rect class="cls-3" x="15.53" y="18.28" width="2.04" height="2.04" transform="translate(-8.53 23.44) rotate(-58.74)"/><rect class="cls-3" x="16.59" y="16.53" width="2.04" height="2.04" transform="translate(-6.53 23.5) rotate(-58.74)"/><rect class="cls-3" x="17.65" y="14.78" width="2.04" height="2.04" transform="translate(-4.53 23.57) rotate(-58.74)"/><rect class="cls-3" x="18.71" y="13.04" width="2.04" height="2.04" transform="translate(-2.52 23.63) rotate(-58.74)"/><rect class="cls-4" x="19.78" y="11.29" width="2.04" height="2.04" transform="translate(-.52 23.7) rotate(-58.74)"/><rect class="cls-3" x="20.83" y="9.54" width="2.04" height="2.04" transform="translate(1.48 23.77) rotate(-58.74)"/><rect class="cls-3" x="21.9" y="7.8" width="2.04" height="2.04" transform="translate(3.49 23.83) rotate(-58.74)"/><rect class="cls-3" x="22.96" y="6.05" width="2.04" height="2.04" transform="translate(5.49 23.9) rotate(-58.74)"/><rect class="cls-3" x="24.02" y="4.3" width="2.04" height="2.04" transform="translate(7.49 23.97) rotate(-58.74)"/><rect class="cls-1" x="25.08" y="2.56" width="2.04" height="2.04" transform="translate(9.5 24.03) rotate(-58.74)"/><rect class="cls-2" x="26.14" y=".81" width="2.04" height="2.04" transform="translate(11.5 24.1) rotate(-58.74)"/><rect class="cls-2" x="4.24" y="32.94" width="2.04" height="2.04" transform="translate(-26.5 20.84) rotate(-58.74)"/><rect class="cls-3" x="5.3" y="31.19" width="2.04" height="2.04" transform="translate(-24.5 20.9) rotate(-58.74)"/><rect class="cls-3" x="6.36" y="29.45" width="2.04" height="2.04" transform="translate(-22.49 20.97) rotate(-58.74)"/><rect class="cls-3" x="7.42" y="27.7" width="2.04" height="2.04" transform="translate(-20.49 21.04) rotate(-58.74)"/><rect class="cls-3" x="8.48" y="25.95" width="2.04" height="2.04" transform="translate(-18.49 21.1) rotate(-58.74)"/><rect class="cls-3" x="9.54" y="24.21" width="2.04" height="2.04" transform="translate(-16.48 21.17) rotate(-58.74)"/><rect class="cls-3" x="10.6" y="22.46" width="2.04" height="2.04" transform="translate(-14.48 21.23) rotate(-58.74)"/><rect class="cls-3" x="11.66" y="20.71" width="2.04" height="2.04" transform="translate(-12.47 21.3) rotate(-58.74)"/><rect class="cls-3" x="12.73" y="18.96" width="2.04" height="2.04" transform="translate(-10.47 21.37) rotate(-58.74)"/><rect class="cls-3" x="13.79" y="17.22" width="2.04" height="2.04" transform="translate(-8.47 21.43) rotate(-58.74)"/><rect class="cls-3" x="14.85" y="15.47" width="2.04" height="2.04" transform="translate(-6.46 21.5) rotate(-58.74)"/><rect class="cls-3" x="15.91" y="13.72" width="2.04" height="2.04" transform="translate(-4.46 21.57) rotate(-58.74)"/><rect class="cls-3" x="16.97" y="11.98" width="2.04" height="2.04" transform="translate(-2.46 21.63) rotate(-58.74)"/><rect class="cls-3" x="18.03" y="10.23" width="2.04" height="2.04" transform="translate(-.45 21.7) rotate(-58.74)"/><rect class="cls-1" x="19.09" y="8.48" width="2.04" height="2.04" transform="translate(1.55 21.76) rotate(-58.74)"/><rect class="cls-3" x="20.15" y="6.74" width="2.04" height="2.04" transform="translate(3.55 21.83) rotate(-58.74)"/><rect class="cls-3" x="21.21" y="4.99" width="2.04" height="2.04" transform="translate(5.56 21.9) rotate(-58.74)"/><rect class="cls-3" x="22.27" y="3.24" width="2.04" height="2.04" transform="translate(7.56 21.96) rotate(-58.74)"/><rect class="cls-2" x="23.33" y="1.49" width="2.04" height="2.04" transform="translate(9.56 22.03) rotate(-58.74)"/><rect class="cls-2" x="2.49" y="31.88" width="2.04" height="2.04" transform="translate(-26.43 18.83) rotate(-58.74)"/><rect class="cls-3" x="3.55" y="30.13" width="2.04" height="2.04" transform="translate(-24.43 18.9) rotate(-58.74)"/><rect class="cls-3" x="4.61" y="28.39" width="2.04" height="2.04" transform="translate(-22.43 18.97) rotate(-58.74)"/><rect class="cls-3" x="5.68" y="26.64" width="2.04" height="2.04" transform="translate(-20.42 19.03) rotate(-58.74)"/><rect class="cls-3" x="6.74" y="24.89" width="2.04" height="2.04" transform="translate(-18.42 19.1) rotate(-58.74)"/><rect class="cls-3" x="7.8" y="23.14" width="2.04" height="2.04" transform="translate(-16.42 19.16) rotate(-58.74)"/><rect class="cls-3" x="8.86" y="21.4" width="2.04" height="2.04" transform="translate(-14.41 19.23) rotate(-58.74)"/><rect class="cls-3" x="9.92" y="19.65" width="2.04" height="2.04" transform="translate(-12.41 19.3) rotate(-58.74)"/><rect class="cls-3" x="10.98" y="17.9" width="2.04" height="2.04" transform="translate(-10.41 19.36) rotate(-58.74)"/><rect class="cls-3" x="12.04" y="16.16" width="2.04" height="2.04" transform="translate(-8.4 19.43) rotate(-58.74)"/><rect class="cls-3" x="13.1" y="14.41" width="2.04" height="2.04" transform="translate(-6.4 19.49) rotate(-58.74)"/><rect class="cls-3" x="14.16" y="12.66" width="2.04" height="2.04" transform="translate(-4.39 19.56) rotate(-58.74)"/><rect class="cls-3" x="15.22" y="10.92" width="2.04" height="2.04" transform="translate(-2.39 19.63) rotate(-58.74)"/><rect class="cls-3" x="16.28" y="9.17" width="2.04" height="2.04" transform="translate(-.39 19.69) rotate(-58.74)"/><rect class="cls-3" x="17.34" y="7.42" width="2.04" height="2.04" transform="translate(1.62 19.76) rotate(-58.74)"/><rect class="cls-3" x="18.4" y="5.67" width="2.04" height="2.04" transform="translate(3.62 19.83) rotate(-58.74)"/><rect class="cls-3" x="19.46" y="3.93" width="2.04" height="2.04" transform="translate(5.62 19.89) rotate(-58.74)"/><rect class="cls-1" x="20.52" y="2.18" width="2.04" height="2.04" transform="translate(7.63 19.96) rotate(-58.74)"/><rect class="cls-2" x="21.58" y=".43" width="2.04" height="2.04" transform="translate(9.63 20.02) rotate(-58.74)"/><rect class="cls-2" x="1.81" y="29.07" width="2.04" height="2.04" transform="translate(-24.36 16.9) rotate(-58.74)"/><rect class="cls-3" x="2.87" y="27.33" width="2.04" height="2.04" transform="translate(-22.36 16.96) rotate(-58.74)"/><rect class="cls-3" x="3.93" y="25.58" width="2.04" height="2.04" transform="translate(-20.36 17.03) rotate(-58.74)"/><rect class="cls-3" x="4.99" y="23.83" width="2.04" height="2.04" transform="translate(-18.35 17.1) rotate(-58.74)"/><rect class="cls-3" x="6.05" y="22.09" width="2.04" height="2.04" transform="translate(-16.35 17.16) rotate(-58.74)"/><rect class="cls-3" x="7.11" y="20.34" width="2.04" height="2.04" transform="translate(-14.35 17.23) rotate(-58.74)"/><rect class="cls-3" x="8.17" y="18.59" width="2.04" height="2.04" transform="translate(-12.34 17.29) rotate(-58.74)"/><rect class="cls-3" x="9.23" y="16.84" width="2.04" height="2.04" transform="translate(-10.34 17.36) rotate(-58.74)"/><rect class="cls-3" x="10.29" y="15.1" width="2.04" height="2.04" transform="translate(-8.34 17.43) rotate(-58.74)"/><rect class="cls-3" x="11.35" y="13.35" width="2.04" height="2.04" transform="translate(-6.33 17.49) rotate(-58.74)"/><rect class="cls-3" x="12.41" y="11.6" width="2.04" height="2.04" transform="translate(-4.33 17.56) rotate(-58.74)"/><rect class="cls-3" x="13.47" y="9.86" width="2.04" height="2.04" transform="translate(-2.32 17.62) rotate(-58.74)"/><rect class="cls-3" x="14.53" y="8.11" width="2.04" height="2.04" transform="translate(-.32 17.69) rotate(-58.74)"/><rect class="cls-3" x="15.59" y="6.36" width="2.04" height="2.04" transform="translate(1.68 17.76) rotate(-58.74)"/><rect class="cls-3" x="16.65" y="4.61" width="2.04" height="2.04" transform="translate(3.69 17.82) rotate(-58.74)"/><rect class="cls-1" x="17.72" y="2.87" width="2.04" height="2.04" transform="translate(5.69 17.89) rotate(-58.74)"/><rect class="cls-2" x="18.77" y="1.12" width="2.04" height="2.04" transform="translate(7.69 17.95) rotate(-58.74)"/><rect class="cls-2" x="1.12" y="26.26" width="2.04" height="2.04" transform="translate(-22.29 14.96) rotate(-58.74)"/><rect class="cls-3" x="2.18" y="24.52" width="2.04" height="2.04" transform="translate(-20.29 15.03) rotate(-58.74)"/><rect class="cls-3" x="3.24" y="22.77" width="2.04" height="2.04" transform="translate(-18.29 15.09) rotate(-58.74)"/><rect class="cls-3" x="4.3" y="21.02" width="2.04" height="2.04" transform="translate(-16.28 15.16) rotate(-58.74)"/><rect class="cls-3" x="5.36" y="19.28" width="2.04" height="2.04" transform="translate(-14.28 15.22) rotate(-58.74)"/><rect class="cls-3" x="6.42" y="17.53" width="2.04" height="2.04" transform="translate(-12.28 15.29) rotate(-58.74)"/><rect class="cls-3" x="7.48" y="15.78" width="2.04" height="2.04" transform="translate(-10.27 15.36) rotate(-58.74)"/><rect class="cls-3" x="8.54" y="14.04" width="2.04" height="2.04" transform="translate(-8.27 15.42) rotate(-58.74)"/><rect class="cls-3" x="9.61" y="12.29" width="2.04" height="2.04" transform="translate(-6.27 15.49) rotate(-58.74)"/><rect class="cls-3" x="10.67" y="10.54" width="2.04" height="2.04" transform="translate(-4.26 15.55) rotate(-58.74)"/><rect class="cls-3" x="11.73" y="8.79" width="2.04" height="2.04" transform="translate(-2.26 15.62) rotate(-58.74)"/><rect class="cls-3" x="12.79" y="7.05" width="2.04" height="2.04" transform="translate(-.26 15.69) rotate(-58.74)"/><rect class="cls-3" x="13.85" y="5.3" width="2.04" height="2.04" transform="translate(1.75 15.75) rotate(-58.74)"/><rect class="cls-3" x="14.91" y="3.55" width="2.04" height="2.04" transform="translate(3.75 15.82) rotate(-58.74)"/><rect class="cls-2" x="15.97" y="1.81" width="2.04" height="2.04" transform="translate(5.76 15.88) rotate(-58.74)"/><rect class="cls-2" x=".44" y="23.46" width="2.04" height="2.04" transform="translate(-20.22 13.02) rotate(-58.74)"/><rect class="cls-2" x="1.5" y="21.71" width="2.04" height="2.04" transform="translate(-18.22 13.09) rotate(-58.74)"/><rect class="cls-3" x="2.56" y="19.96" width="2.04" height="2.04" transform="translate(-16.22 13.15) rotate(-58.74)"/><rect class="cls-3" x="3.62" y="18.22" width="2.04" height="2.04" transform="translate(-14.21 13.22) rotate(-58.74)"/><rect class="cls-3" x="4.68" y="16.47" width="2.04" height="2.04" transform="translate(-12.21 13.29) rotate(-58.74)"/><rect class="cls-3" x="5.74" y="14.72" width="2.04" height="2.04" transform="translate(-10.21 13.35) rotate(-58.74)"/><rect class="cls-3" x="6.8" y="12.98" width="2.04" height="2.04" transform="translate(-8.2 13.42) rotate(-58.74)"/><rect class="cls-3" x="7.86" y="11.23" width="2.04" height="2.04" transform="translate(-6.2 13.48) rotate(-58.74)"/><rect class="cls-5" x="8.92" y="9.48" width="2.04" height="2.04" transform="translate(-4.2 13.55) rotate(-58.74)"/><rect class="cls-5" x="9.98" y="7.74" width="2.04" height="2.04" transform="translate(-2.19 13.62) rotate(-58.74)"/><rect class="cls-5" x="11.04" y="5.99" width="2.04" height="2.04" transform="translate(-.19 13.68) rotate(-58.74)"/><rect class="cls-2" x="12.1" y="4.24" width="2.04" height="2.04" transform="translate(1.81 13.75) rotate(-58.74)"/><rect class="cls-2" x="13.16" y="2.49" width="2.04" height="2.04" transform="translate(3.82 13.82) rotate(-58.74)"/><rect class="cls-2" x="14.22" y=".75" width="2.04" height="2.04" transform="translate(5.82 13.88) rotate(-58.74)"/><rect class="cls-2" x=".81" y="18.9" width="2.04" height="2.04" transform="translate(-16.15 11.15) rotate(-58.74)"/><rect class="cls-2" x="1.87" y="17.16" width="2.04" height="2.04" transform="translate(-14.15 11.22) rotate(-58.74)"/><rect class="cls-2" x="2.93" y="15.41" width="2.04" height="2.04" transform="translate(-12.14 11.28) rotate(-58.74)"/><rect class="cls-2" x="3.99" y="13.66" width="2.04" height="2.04" transform="translate(-10.14 11.35) rotate(-58.74)"/><rect class="cls-2" x="5.05" y="11.92" width="2.04" height="2.04" transform="translate(-8.14 11.42) rotate(-58.74)"/><rect class="cls-2" x="6.11" y="10.17" width="2.04" height="2.04" transform="translate(-6.13 11.48) rotate(-58.74)"/><rect class="cls-2" x="7.17" y="8.42" width="2.04" height="2.04" transform="translate(-4.13 11.55) rotate(-58.74)"/><rect class="cls-2" x="8.23" y="6.67" width="2.04" height="2.04" transform="translate(-2.13 11.61) rotate(-58.74)"/><rect class="cls-2" x="9.29" y="4.93" width="2.04" height="2.04" transform="translate(-.12 11.68) rotate(-58.74)"/></g></g></svg>