<?xml version="1.0" encoding="UTF-8"?><svg id="Calque_2" xmlns="http://www.w3.org/2000/svg" xmlns:xlink="http://www.w3.org/1999/xlink" viewBox="0 0 603 847"><defs><style>.cls-1{fill:#fff;}.cls-2{fill:#f9f2aa;}.cls-3{clip-path:url(#clippath);}.cls-4{fill:none;}</style><symbol id="Nouveau_symbole" viewBox="0 0 28.2 74.2"><g><polygon class="cls-2" points="2 30 5.2 30 5.2 33.2 2 33.2 2 30"/><polygon class="cls-2" points="0 46 3.2 46 3.2 49.2 0 49.2 0 46"/><polygon class="cls-2" points="4 71 7.2 71 7.2 74.2 4 74.2 4 71"/><polygon class="cls-2" points="25 0 28.2 0 28.2 3.2 25 3.2 25 0"/></g></symbol><clipPath id="clippath"><rect class="cls-4" width="603" height="847"/></clipPath></defs><g id="pixel___etoile"><g class="cls-3"><rect class="cls-2" x="550" y="399" width="2" height="2"/><rect class="cls-2" x="551" y="276" width="1" height="32" transform="translate(-35.24 79.51) rotate(-7.99)"/><rect class="cls-2" x="41" y="451" width="1" height="13"/><rect class="cls-2" x="42.96" y="352" width="0" height="9.18"/><rect class="cls-2" x="136" y="298" width="2" height="2" rx="1" ry="1"/><rect class="cls-2" x="38.51" y="314.65" width="8.18" height=".87" transform="translate(-272.95 354.16) rotate(-89.36)"/><rect class="cls-2" x="179" y="478" width="14" height="14" transform="translate(301.38 -21.47) rotate(33.82)"/><rect class="cls-2" x="249" y="171" width="14" height="14" transform="translate(142.37 -112.36) rotate(33.82)"/><rect class="cls-2" x="551.9" y="310.9" width="2.21" height="2.21" transform="translate(465.74 -316.92) rotate(52.67)"/><rect class="cls-2" x="537" y="423" width="14" height="14" transform="translate(-98.56 169.32) rotate(-16.24)"/><rect class="cls-2" x="541.96" y="462.96" width="6.08" height="6.08" transform="translate(-108.59 171.03) rotate(-16.24)"/><rect class="cls-2" x="546.57" y="455.57" width="2.86" height="2.86" transform="translate(652.59 1162.84) rotate(-138.26)"/><rect class="cls-2" x="538.96" y="444.96" width="6.08" height="6.08" transform="translate(182 -156.05) rotate(19.63)"/><rect class="cls-2" x="535" y="472" width="14" height="14" transform="translate(-112.34 170.71) rotate(-16.24)"/><rect class="cls-2" x="178" y="289" width="3.96" height="3.18"/><rect class="cls-2" x="188" y="289" width="3" height="3"/><rect class="cls-2" x="219" y="305" width="5" height="5"/><rect class="cls-2" x="264" y="324" width="1" height="1"/><rect class="cls-2" x="337" y="319" width="1" height="1"/><rect class="cls-2" x="345" y="319" width="1" height="1"/><rect class="cls-2" x="352" y="319" width="1" height="1"/><rect class="cls-2" x="459" y="273" width="5" height="5"/><rect class="cls-2" x="472" y="273" width="5" height="5"/><rect class="cls-2" x="464.96" y="264.18" width="5" height="5"/><rect class="cls-2" x="273" y="323" width="3" height="3"/><rect class="cls-2" x="365" y="313" width="3" height="3"/><rect class="cls-2" x="359" y="313" width="3" height="3"/><rect class="cls-2" x="260" y="324" width="1" height="1"/><rect class="cls-2" x="208" y="320" width="1" height="1"/><g><use width="28.2" height="74.2" transform="translate(483.97 65.99) scale(.84)" xlink:href="#Nouveau_symbole"/><use width="28.2" height="74.2" transform="translate(511.22 3.82) scale(.84)" xlink:href="#Nouveau_symbole"/><use width="28.2" height="74.2" transform="translate(534.1 -58.16) scale(.84)" xlink:href="#Nouveau_symbole"/><use width="28.2" height="74.2" transform="translate(434.48 19.4) scale(.84)" xlink:href="#Nouveau_symbole"/><use width="28.2" height="74.2" transform="translate(460.49 -28.66) scale(.84)" xlink:href="#Nouveau_symbole"/><use width="28.2" height="74.2" transform="translate(467.08 -47.48) scale(.84)" xlink:href="#Nouveau_symbole"/><use width="28.2" height="74.2" transform="translate(376.21 12.51) scale(.84)" xlink:href="#Nouveau_symbole"/><use width="28.2" height="74.2" transform="translate(311.05 7.96) scale(.84)" xlink:href="#Nouveau_symbole"/><use width="28.2" height="74.2" transform="translate(226.07 28.91) scale(.84)" xlink:href="#Nouveau_symbole"/><use width="28.2" height="74.2" transform="translate(238.39 44.92) scale(.84)" xlink:href="#Nouveau_symbole"/><use width="28.2" height="74.2" transform="translate(264.14 -47.34) scale(.84)" xlink:href="#Nouveau_symbole"/><use width="28.2" height="74.2" transform="translate(149.33 100.69) scale(.84)" xlink:href="#Nouveau_symbole"/><use width="28.2" height="74.2" transform="translate(151.61 81.4) scale(.84)" xlink:href="#Nouveau_symbole"/><use width="28.2" height="74.2" transform="translate(194.85 -38.44) scale(.84)" xlink:href="#Nouveau_symbole"/><use width="28.2" height="74.2" transform="translate(65.96 59.23) scale(.84)" xlink:href="#Nouveau_symbole"/><use width="28.2" height="74.2" transform="translate(84.32 52.84) scale(.84)" xlink:href="#Nouveau_symbole"/><use width="28.2" height="74.2" transform="translate(119.71 -30.09) scale(.84)" xlink:href="#Nouveau_symbole"/><use width="28.2" height="74.2" transform="translate(131.16 -47.62) scale(.84)" xlink:href="#Nouveau_symbole"/></g><path class="cls-1" d="M360.3,495.69c-.52-.34-.71-.22-.89,.52l.89-.52Z"/><g><rect class="cls-1" x="111.08" y="317.88" width=".31" height="1.22"/><rect class="cls-1" x="103.68" y="317.88" width=".44" height="1.22"/></g><rect class="cls-2" x="70.39" y="180.4" width="7.23" height="7.2" transform="translate(-69.79 47.41) rotate(-24.56)"/><rect class="cls-2" x="27.39" y="387.4" width="7.23" height="7.2" transform="translate(-159.73 48.27) rotate(-24.56)"/></g></g></svg>