<?xml version="1.0" encoding="UTF-8"?><svg id="Calque_2" xmlns="http://www.w3.org/2000/svg" viewBox="0 0 59.23 70.07"><defs><style>.cls-1{fill:#fff;}</style></defs><g id="icone"><g><path class="cls-1" d="M18.15,1.84l.6-1.84L58.07,12.93c-.14,.43-.27,.89-.45,1.33-.13,.33-.04,.5,.29,.57,.02,0,.04,.01,.06,.02,.43,.16,1.11,.23,1.23,.52,.15,.35-.15,.91-.3,1.36-3.04,9.27-6.09,18.54-9.14,27.81-2,6.08-4.02,12.15-6.03,18.22-.04,.13-.1,.26-.21,.5L.47,49.12c.06-.19,.14-.42,.21-.64,1.83-5.58,3.65-11.16,5.49-16.74C9.46,21.8,12.76,11.86,16.03,1.92c.18-.54,.37-.74,.93-.49,.34,.16,.72,.25,1.2,.4Zm-5.99,30.84l-.67,1.78c.34,.11,.58,.19,.83,.27,10,3.26,20.01,6.51,30.01,9.77,1.04,.34,1.04,.33,1.42-.72,.08-.21,.17-.41,.25-.62l1.89,.49,.22-.68c1.54-4.67,3.07-9.35,4.61-14.02,1.15-3.48,2.28-6.97,3.46-10.44,.21-.6,.09-.84-.51-.96-.37-.07-.72-.23-1.13-.36,.16-.49,.26-.9,.43-1.29,.2-.46,.05-.62-.4-.77-10.22-3.33-20.44-6.68-30.65-10.04-.52-.17-.7-.05-.85,.45-.36,1.22-.39,1.24-1.55,.82-.54-.2-.76-.11-.95,.46-2.67,8.18-5.36,16.35-8.05,24.53-.07,.22-.12,.45-.2,.72l1.84,.61Zm23.15,17.66v.03c-1.45-.47-2.89-.95-4.33-1.42-1.28-.42-1.26-.41-1.69,.84-.16,.47-.08,.66,.41,.82,3.12,1,6.23,2.03,9.35,3.04,1.36,.44,1.34,.44,1.78-.89,.14-.43,.06-.6-.38-.74-1.72-.54-3.42-1.12-5.13-1.68Zm-26.81-6.68h0c-.5-.15-1-.3-1.49-.49-.35-.13-.54,.02-.54,.33,0,.52-.87,1.12-.11,1.51,.94,.48,2.02,.69,3.03,1.03,.31,.1,.49,0,.51-.3,.04-.52,.65-.97,.2-1.54-.05-.07-.19-.07-.28-.1-.44-.15-.88-.29-1.32-.43Z"/><path class="cls-1" d="M39.25,70.07c-.35-.11-.61-.2-.88-.29-12.63-4.12-25.25-8.24-37.89-12.34-.48-.16-.58-.33-.41-.81,.49-1.39,.96-2.8,1.38-4.21,.16-.54,.36-.67,.93-.49,8.79,2.89,17.59,5.75,26.39,8.61,3.89,1.27,7.77,2.54,11.67,3.79,.52,.17,.6,.36,.43,.86-.55,1.58-1.06,3.18-1.62,4.88Z"/><path d="M12.16,32.68l-1.84-.61c.07-.27,.12-.5,.2-.72,2.69-8.18,5.38-16.35,8.05-24.53,.19-.57,.41-.66,.95-.46,1.16,.42,1.19,.4,1.55-.82,.15-.5,.33-.62,.85-.45,10.21,3.36,20.43,6.7,30.65,10.04,.45,.15,.6,.31,.4,.77-.17,.38-.27,.8-.43,1.29,.41,.14,.77,.29,1.13,.36,.6,.12,.72,.35,.51,.96-1.18,3.47-2.31,6.96-3.46,10.44-1.54,4.67-3.07,9.35-4.61,14.02l-.22,.68-1.89-.49v.02c.07-.21,.12-.43,.19-.64,2.69-8.19,5.39-16.38,8.08-24.57,.08-.24,.14-.49,.2-.71L20.66,6.78l-8.52,25.91h.02Z"/><path d="M44,43.16c-.08,.21-.17,.41-.25,.62-.38,1.05-.38,1.06-1.42,.72-10-3.26-20.01-6.51-30.01-9.77-.25-.08-.49-.16-.83-.27l.67-1.78h-.02c.06,.02,.12,.03,.18,.05,10.43,3.41,20.85,6.82,31.28,10.24,.15,.05,.28,.15,.42,.22v-.02Z"/><path d="M35.31,50.34c1.71,.56,3.42,1.14,5.13,1.68,.43,.14,.52,.31,.38,.74-.44,1.33-.43,1.34-1.78,.89-3.12-1.02-6.23-2.05-9.35-3.04-.49-.16-.57-.35-.41-.82,.44-1.25,.42-1.26,1.69-.84,1.44,.47,2.88,.95,4.32,1.42v-.03Z"/><path d="M8.49,43.66c.44,.14,.88,.29,1.32,.43,.1,.03,.23,.03,.28,.1,.44,.57-.16,1.02-.2,1.54-.03,.29-.2,.41-.51,.3-1.01-.34-2.09-.55-3.03-1.03-.76-.39,.12-.99,.11-1.51,0-.31,.19-.46,.54-.33,.49,.19,.99,.33,1.49,.5h0Z"/><path class="cls-1" d="M44.01,43.18c-.14-.07-.27-.17-.42-.22-10.42-3.41-20.85-6.83-31.28-10.24-.06-.02-.12-.02-.18-.04L20.66,6.78l31.81,10.47c-.06,.22-.12,.47-.2,.71-2.69,8.19-5.39,16.38-8.08,24.57-.07,.21-.12,.43-.18,.64Zm-18.92-12.32l.74-1.86-1.89-.62c-.16,.49-.29,.95-.47,1.39-.13,.33-.02,.47,.29,.58,.45,.15,.89,.34,1.33,.51-.11,.44-.19,.9-.35,1.33-.13,.36-.03,.5,.31,.61,2.22,.71,4.43,1.43,6.63,2.17,.31,.1,.45,.04,.54-.26,.14-.46,.3-.91,.47-1.45,.51,.17,.96,.35,1.43,.45,.16,.04,.47-.05,.52-.16,.21-.47,.34-.98,.51-1.48l-1.89-.62-.58,1.76c-.29-.08-.55-.14-.79-.22-2.06-.67-4.12-1.34-6.18-2.01-.21-.07-.43-.08-.64-.12Zm3.83-4.99c-.08,.23-.13,.4-.19,.57q-.42,1.26,.85,1.68c.82,.27,1.63,.54,2.44,.8l3.64-11.07-1.82-.6-.2,.6c-.88,2.67-1.77,5.34-2.62,8.02-.17,.53-.39,.63-.87,.42-.37-.16-.76-.26-1.23-.41Zm9.32-3.12c.57,.19,1.06,.37,1.56,.5,.11,.03,.36-.06,.39-.14,.37-1.06,.73-2.14,1.05-3.22,.02-.09-.28-.36-.46-.4-.46-.09-1.1-.68-1.34-.2-.53,1.07-.8,2.26-1.19,3.46Zm-10.04-7.38c-.57-.19-1.06-.36-1.56-.5-.1-.03-.33,.08-.36,.17-.39,1.12-.75,2.24-1.13,3.39l1.85,.61,1.21-3.67Z"/><path d="M28.92,25.87c.47,.15,.86,.26,1.23,.41,.48,.2,.7,.1,.87-.42,.85-2.68,1.74-5.35,2.62-8.02l.2-.6,1.82,.6-3.64,11.07c-.8-.26-1.62-.53-2.44-.8q-1.27-.41-.85-1.68c.06-.17,.11-.34,.19-.57Z"/><path d="M25.33,30.11c.21,.05,.43,.08,.63,.15,2.06,.67,4.12,1.35,6.17,2.02,.25,.08,.5,.15,.79,.23l.35-1.06,1.89,.62c-.1,.3-.17,.61-.32,.89-.03,.07-.32,.08-.48,.04-.46-.12-.91-.29-1.43-.46-.11,.32-.21,.6-.28,.88-.05,.18-.18,.2-.48,.1-2.21-.73-4.42-1.46-6.63-2.17-.34-.11-.46-.22-.37-.43,.1-.26,.12-.54,.18-.81h-.01Z"/><path d="M38.24,22.75c.39-1.19,.66-2.39,1.19-3.46,.24-.48,.88,.11,1.34,.2,.18,.04,.49,.31,.46,.4-.32,1.08-.67,2.15-1.05,3.22-.03,.09-.27,.17-.39,.14-.5-.14-.99-.31-1.56-.5Z"/><path d="M28.19,15.37l-1.21,3.67-1.85-.61c.38-1.15,.74-2.27,1.13-3.39,.03-.09,.26-.2,.36-.17,.5,.13,.99,.31,1.56,.5Z"/><path d="M25.1,30.86c-.44-.17-.88-.36-1.33-.51-.31-.1-.42-.25-.29-.58,.17-.44,.3-.9,.47-1.39l1.89,.62c-.25,.62-.49,1.24-.74,1.86h.01Z"/></g></g></svg>