<?xml version="1.0" encoding="UTF-8"?><svg id="Calque_2" xmlns="http://www.w3.org/2000/svg" viewBox="0 0 509.01 563.98"><defs><style>.cls-1{fill:#fff;}</style></defs><g id="parapluie"><path class="cls-1" d="M256.35,0C118.16,0,5.51,98.99,0,222.97H.97v-9.53H3.01l6.95-19.92,4.07,19.24h1.08l.36,2.53h.6v4.05l2.03-2.95h18.2l7.43,13.58h16.1v-8.63h-1.12v-.48h.56v.26h1.11v-.65h-.67v-.39h1.3v-.48h9.21v-2.15h-.72v-.64h.72v-.89h-.56v-.28h.56v-.51h-.3v-.42h.3v-.07h.58v-.53h-.4v-.27h.4v-1.55h.31v1.55h.51v.27h-.51v.53h.83v-1.25h-.4v-.33h.4v-.05h0c0-.32,.31-.59,.71-.68l.3-3.24,.29,3.24c.4,.09,.7,.35,.7,.67h0v.05h.4v.33h-.4v1.25h.65v-.53h-.42v-.27h.42v-1.55h.31v1.55h.49v.27h-.49v.53h.72v.07h.34v.08h2.48v-2.47l-.37-.26v-.84h.29v-2.12h.46v-7.4l-.42-.7h-.66v-.2h.74v-.84h-.61v-.41h1.48v-3.02h-.99v-.32h1.04l.27-1.46h-.59v-.25h.66l.38-1.27v-.59h-.54v-.25h.54v-.26h.59v.26h.46v-.51h-.71v-.38h.72l.02-2.04h-.62v-.28h.79l.13-1.29h-.31v-.26h.33l.18-1.75h-.35v-.18h.36l.07-.68,.07,.68h.37v.18h-.35l.18,1.75h.65l.04-3.67h.29v-2.45h1.83l.13-1.03h-.89v-.14h.91l.14-1h-.9v-.14h.91l.12-1h-.87v-.15h.89l.13-1h-.88v-.14h.9l.13-1h-.87v-.15h.88l.13-1h-.87v-.15h.89l.13-1h-.86v-.15h.87l.12-1h-.85v-.14h.87l.12-1h-.85v-.15h.86l.13-1h-.84v-.14h.86l.12-1h-.83v-.15h.85l.13-1h-.83v-.14h.85l.13-1h-.82v-.15h.84l.12-1h-.81v-.15h.83l.13-1h-.81v-.15h.83l.13-1h-.8v-.15h.82l.12-1h-.79v-.14h.81l.13-1h-.79v-.14h.81l.13-1h-.78v-.15h.8l.13-1h-.78v-.14h.8l.13-1h-.77v-.15h.79l.12-.99h-.76v-.15h.78l.24-1.9h-.54v-.42h.73v-.59h-.55v-.59h.81l.12-2.66h-.72v-.17h.72l.03-.66h.13l.03,.66h.76v.17h-.74l.14,2.66h.81v.59h-.56v.59h.73v.42h-.46l.24,1.9h.79v.15h-.77l.13,.99h.79v.15h-.77l.12,1h.8v.14h-.78l.13,1h.81v.15h-.79l.13,1h.81v.14h-.79l.13,1h.82v.14h-.8l.13,1h.82v.15h-.8l.13,1h.83v.15h-.81l.13,1h.83v.15h-.81l.12,1h.84v.15h-.82l.13,1h.85v.14h-.83l.13,1h.85v.15h-.83l.13,1h.86v.14h-.84l.12,1h.86v.15h-.84l.13,1h.87v.14h-.85l.13,1h.88v.15h-.85l.12,1h.89v.15h-.87l.13,1h.89v.15h-.87l.13,1h.89v.14h-.87l.12,1h.9v.15h-.88l.13,1h.9v.14h-.88l.13,1h.91v.14h-.89l.13,1.03h1.84v2.45h.28l.03,3.67h.67l.17-1.75h-.35v-.18h.36l.07-.68,.07,.68h.36v.18h-.34l.17,1.75h.34v.26h-.31l.12,1.29h.78v.28h-.61l.03,2.04h.71v.38h-.71v.51h.46v-.26h.6v.26h.54v.25h-.54v.59l.37,1.27h.66v.25h-.59l.26,1.46h1.05v.32h-.99v3.02h1.48v.41h-.62v.84h.74v.2h-.66l-.41,.7v7.4h.45v2.12h.29v.84l-.38,.26v2.47h8.73v-.58h-2.14v-.93h2.14v-1.97h-1.81v-3.48l10.54-.64h14.54v-4.41l-1-.98v-.52h.36v-.48h.27v-.52l-.21-.15v-.41h.21v-.35h.5v-6.4l-1.42-1.31-.22-.15h.68v-.4h1.08v-1.04l.24-.17v-1.11h-.58v-.56h.96v-.52l-.5-.55,.1-.09,.37,.26,1.61-7.62h.43l.16-3.18h.18l.22,3.16h.3v.81l.1,.4,1.81-5.93h.14v-2.97l-.84-.88h.84v-.84h-.36v-.55h.36v-2.58l-.84-.87h.84v-.58h.08v-1.22h-.54v-.64h.62v-.44h-.25v-.1h.25v-.07h.06l.04-.32h-.35v-.1h.37l.06-.41h-.42v-.1h.44l.06-.36h-.35v-.1h.37l.05-.36h-.35v-.1h.36l.1-.68,.1,.68h.36v.1h-.35l.06,.36h.36v.1h-.35l.05,.36h.45v.1h-.43l.05,.41h.38v.1h-.36l.05,.32h.05v.07h.26v.1h-.26v.44h.62v.14c.18-.54,.6-1.01,1.18-1.34v-4.43h-.95v-.61h1.05v-.96s0-.05,0-.07c0-.56,.44-1.05,1.09-1.3v-.93h-.08c-.38,0-.68-.21-.68-.48s.3-.48,.68-.48h.31v-.91h-.38v-.25h.42l.02-.35h-.39v-.25h.41l.03-.35h-.41v-.25h.44l.02-.35h-.42v-.25h.43l.04-.35h-.43v-.25h.45l.03-.35h-.43v-.25h.45l.03-.35h-.44v-.25h.47l.02-.35h-.44v-.24h.47l.03-.36h-.47v-.25h.49l.03-.35h-.47v-.24h.49l.03-.35h-.47v-.25h.5l.03-.35h-.5v-.25h.51l.13-1.51h0c-.48,0-.87-.27-.87-.61s.39-.61,.87-.61,.86,.27,.86,.61c0,.3-.32,.55-.73,.6l.13,1.52h.51v.25h-.49l.02,.35h.51v.25h-.48l.04,.35h.49v.24h-.47l.02,.35h.48v.25h-.46l.04,.36h.46v.24h-.45l.03,.35h.47v.25h-.45l.04,.35h.45v.25h-.43l.03,.35h.45v.25h-.43l.03,.35h.44v.25h-.41l.03,.35h.42v.25h-.4l.03,.35h.41v.25h-.39l.03,.35h.4v.25h-.37v.91h.31c.38,0,.68,.22,.68,.48s-.3,.48-.68,.48h-.08v.93c.66,.25,1.1,.74,1.1,1.3,0,.02,0,.05,0,.07v.96h1.05v.61h-.94v4.43c.53,.31,.92,.73,1.12,1.2h.54v-.44h-.25v-.1h.25v-.07h.05l.04-.32h-.35v-.1h.37l.07-.41h-.44v-.1h.45l.06-.36h-.35v-.1h.36l.05-.36h-.35v-.1h.36l.1-.68,.1,.68h.36v.1h-.35l.05,.36h.37v.1h-.35l.05,.36h.45v.1h-.42l.05,.41h.37v.1h-.36l.05,.32h.05v.07h.26v.1h-.26v.44h.62v.64h-.54v1.22h.21v.58h.84l-.84,.87v2.58h.35v.55h-.35v.84h.84l-.84,.88v3.32l2.05,5.03v-.65h.31l.22-3.16h.19l.15,3.18h.43l1.6,7.62,.37-.26,.1,.09-.5,.55v.52h.96v.56h-.58v1.11l.24,.17v1.04h1.09v.4h.68l-.22,.15-1.42,1.31v6.4h.5v.35h.21v.41l-.21,.15v.52h.28v.48h.35v.52l-.99,.98v3.78h.45v-.32h.21v.32h.54v-.32h.2v.32h.54v-.32h.21v.32h.54v-.32h.2v.32h.54v-.32h.21v.32h.53v-.32h.21v.32h.54v-.32h.21v.32h.54v-.32h.21v.32h.53v-.32h.21v.32h.54v-.32h.21v.32h.54v-.32h.21v.32h.54v-.32h.2v.32h.54v-.32h.21v.32h.54v-.32h.2v.32h.54v-.32h.21v.32h.54v-.32h.2v.32h.54v-.32h.2v.32h.54v-.32h.2v.32h.54v-.32h.21v.32h.53v-.32h.21v.32h.54v-.32h.2v.32h.54v-.32h.21v.32h.64v.95l5.73,6.48h30.82v-.52h.98v-.73h-.45v-.2h.45v-1.51h.37v.81h.72s0-.01,0-.03c0-.36,.32-.66,.77-.77v-.94h.05c.02-.06,.08-.11,.18-.14,.07-.63-.49-1.03-.49-1.65,0-.43,0-.51-.61-.56-.4-.04-.93,.04-.85-.39,.29-.01,.65-.04,.92,.03,.33,.09,.41,.32,.79,.3,0-.15,.02-.31,.02-.46,.58-.12,.58,.27,.56,.55,.14,0,.34,.03,.48,0l-.24-.09c.44-.11,.93-.14,1.47-.13,0,.18-.17,.21-.41,.17,.02,.07-.04,.18-.02,.26-.42,0-.9-.08-1.11,.18-.12,.15,0,.64,0,.83,0,.21-.12,.64,0,.83,.18,.27,.95,.31,1.3,.38-.4,.02-.81-.04-1.2-.07v.9c.45,.11,.77,.41,.77,.77,0,.01,0,.02,0,.03h.64v-.81h.38v.81h.08v.18h-.08v.52h.45v.2h-.45v.71h.65v.32l3.26,.46h0c0-.57,.64-1.03,1.45-1.03h.09v-1.1c-.21-.05-.37-.19-.37-.36,0-.2,.24-.37,.52-.37h.26l.18-5.4,.17,5.4h.26c.29,0,.52,.17,.52,.37,0,.17-.16,.3-.37,.36v1.1h.1c.8,0,1.45,.46,1.45,1.03,0,.21-.09,.4-.24,.57l4.6,.64v-1.05c-.06,0-.12,0-.16,0-.06-.3-.1-.78,0-1.08,.09-.29,.43-.47,.36-.78,.57,.07,.59-1.36,.62-1.74,.07,0,.15-.01,.23-.01,.03-.29-.13-.7,.32-.78,.7-.11,.21,.49,.73,.61-.01-.4,.34-.17,.63-.31,.29-.14,.33-.45,.66-.51,.02,.18,.07,.43,.02,.61-.09,.28-.22,.22-.44,.42-.36,.34-.15,.58-.31,.97-.05,.16-.25,.13-.31,.35-.04,.12,.07,.32,.13,.44,.1,.28,.08,.86,.43,1.04h-.06c.05,.15-.01,.24-.11,.31h.11v.96h.19v-.35h.49v-1.13h.5v1.13h.49v.35h-.49v.44c.42,.04,.74,.23,.74,.47,0,.18-.21,.35-.5,.42v.97h.21c.47,0,.84,.26,.84,.59,0,.24-.2,.44-.49,.54v1.27l.83-.5,.03-2.57h.03c-.28-.12-.46-.34-.46-.59,0-.38,.44-.7,.99-.7h.31v-1.3h-.04c-.24,0-.42-.14-.42-.31s.19-.3,.42-.3h.36l.2-5.93,.2,5.93h.36c.23,0,.44,.13,.44,.3s-.2,.31-.44,.31h-.03v1.3h.31c.55,0,.99,.31,.99,.7,0,.34-.36,.63-.82,.68l.27,.02v2.19l1.67,.94v2.09h.62v.35h-.62v6.58h4.08v-2.75h-.68l4.45-4.83,3.64-.09v-4.88h-.43v-.39h1.85v-1.7h1.28c3,60.76,15.27,247.1,11.95,311.51-.73,14.22-11.1,25.87-24.66,27.7-14.92,2.03-27.81-8.71-34.46-28.71-2.02-6.09-3.12-36.52-3.33-54.27l-10.42,.13c.06,4.87,.67,47.81,3.86,57.43,8.88,26.73,26.25,36.07,41.07,36.07,1.59,0,3.16-.11,4.68-.31,18.52-2.51,32.68-18.28,33.68-37.5,3.47-67.24-9.85-270.57-12.24-318.39l4.66-1.81,6.19-.05v-.43h4.26v-.61h6.49v.61h1.29v.34l32.14-.25,5.01,.87,6.99,4.44v-.9h.99v1.53l.66,.42v-1.77h1.48v3.16l5.93,3.34-.57,.41v1.39h4.78v-8.13h.58v8.13h.82v-.64h2.31l3.21-3.19h.66c.84-.71,2.06-.87,2.06-.87,1.32-.12,2.12,.89,2.12,.89h.56l1.66-3.69h4.8v-.51h6.1v.08l8.24-6.12h.66v-.64h1.97v.64h7.83v-2.27h.9v2.27h22.81l-.05-11.95-3.9-.72v-1.01l7.1-1.52v-4.94l.81-.57v-21.58h-1.72v-1.64h.9v-1.39h3.77v-11.64l-.76-.54v-.98h2.74v-.63h1.26v-10.13h-1.17v-2.47l-.49-.35v-1.05h2.24v-5.29h.38c.63-1.93,2.35-3.5,4.6-4.24v-1.98h-1.08v-.95h.9v-1.01h1.12l1.9-11.71,1.89,11.71h1.11v1.01h.9v.95h-1.08v1.88c2.39,.7,4.24,2.33,4.9,4.34h.38v5.29h2.14v1.05l-.49,.35v2.47h-1.17v10.13h1.26v.63h2.73v.98l-.76,.54v11.64h3.77v1.39h.9v1.64h-1.7v21.58l.8,.57v4.94l5.21,.88v1.65h21.21l14.72,3.92v-1.9l11.5-2.02h15.65C487.75,82.78,382.72,0,256.35,0Z"/></g></svg>