<?xml version="1.0" encoding="UTF-8"?><svg id="Calque_2" xmlns="http://www.w3.org/2000/svg" viewBox="0 0 515.54 340.74"><defs><style>.cls-1{letter-spacing:.2em;}.cls-2,.cls-3{fill:#fff;}.cls-4{letter-spacing:-.04em;}.cls-5{letter-spacing:.01em;}.cls-6,.cls-7,.cls-8,.cls-9{fill:#f9f2aa;font-family:Reisenberg, Reisenberg;}.cls-6,.cls-9{font-size:68.78px;}.cls-7{font-size:14.91px;}.cls-10{letter-spacing:.07em;}.cls-11{letter-spacing:.15em;}.cls-12{letter-spacing:.08em;}.cls-8{font-size:34.16px;letter-spacing:.2em;}.cls-13{letter-spacing:.09em;}.cls-14{letter-spacing:.09em;}.cls-15{letter-spacing:.09em;}.cls-16{letter-spacing:.09em;}.cls-9{letter-spacing:.09em;}.cls-17{letter-spacing:.09em;}.cls-3{font-family:MyriadConceptItalic-SemiCondensedItalic, 'Myriad Variable Concept';font-size:15.75px;font-variation-settings:'wght' 400, 'wdth' 90;}.cls-18{letter-spacing:.01em;}.cls-19{letter-spacing:.01em;}.cls-20{letter-spacing:0em;}.cls-21{letter-spacing:.09em;}</style></defs><g id="Texte"><g><text class="cls-3" transform="translate(338.89 277.41)"><tspan class="cls-16" x="0" y="0">13 </tspan><tspan class="cls-14" x="21.63" y="0">r</tspan><tspan class="cls-16" x="27.79" y="0">ue de la </tspan><tspan class="cls-12" x="88.55" y="0">P</tspan><tspan class="cls-16" x="97.17" y="0">oul</tspan><tspan class="cls-15" x="120.16" y="0">a</tspan><tspan class="cls-21" x="129.21" y="0">ille</tspan><tspan class="cls-13" x="151.84" y="0">r</tspan><tspan class="cls-17" x="157.98" y="0">ie</tspan><tspan class="cls-16" x="86.3" y="18.91">69002 </tspan><tspan class="cls-18" x="134.11" y="18.91">L</tspan><tspan class="cls-10" x="140.67" y="18.91">Y</tspan><tspan class="cls-17" x="149.36" y="18.91">ON</tspan></text><g><text class="cls-6" transform="translate(278.31 56.95)"><tspan class="cls-5" x="0" y="0">R</tspan><tspan class="cls-4" x="48.82" y="0">E</tspan><tspan class="cls-5" x="86.21" y="0">T</tspan><tspan class="cls-20" x="128.92" y="0">R</tspan><tspan class="cls-19" x="177.06" y="0">O</tspan></text><text class="cls-9" transform="translate(279.29 107.77)"><tspan x="0" y="0">PIXEL</tspan></text><text class="cls-8" transform="translate(394.68 136.1)"><tspan x="0" y="0">2022</tspan></text></g><text class="cls-7" transform="translate(268.1 257.82)"><tspan class="cls-1" x="0" y="0">Du 19/09/22 </tspan><tspan class="cls-11" x="133.89" y="0">a</tspan><tspan class="cls-1" x="147.68" y="0">u 1/11/22</tspan></text><g><path class="cls-2" d="M67.31,299.49v-4.06H198.02v4.06H67.31Z"/><path class="cls-2" d="M25.81,276.65v-4.02H125.23v4.02H25.81Z"/><path class="cls-2" d="M85.27,318.26v4.09H.39v-4.09H85.27Z"/><path class="cls-2" d="M115.85,314.04c0-1.99,.01-3.92,0-5.84,0-1.01-.48-1.56-1.32-1.66-.81-.09-1.48,.4-1.71,1.29-.1,.39-.15,.8-.15,1.2-.02,1.39,0,2.79,0,4.18,0,.25,0,.51,0,.82h-2.52c0-.51,0-1.04,0-1.56,0-1.44,.02-2.89-.01-4.33-.02-.96-.44-1.46-1.22-1.58-.82-.13-1.74,.39-1.98,1.17-.14,.45-.2,.94-.2,1.42-.02,1.62,0,3.23,0,4.9h-2.49v-9.32h2.14l.14,1.25c.85-.86,1.74-1.51,2.9-1.54,1.19-.03,2.09,.52,2.65,1.66,.34-.33,.6-.63,.9-.88,1.08-.9,2.31-.99,3.57-.5,1.16,.45,1.74,1.41,1.77,2.61,.06,2.22,.02,4.45,.02,6.72h-2.47Z"/><path class="cls-2" d="M93.8,314.03c0-1.87,0-3.69,0-5.51,0-1.32-.42-1.92-1.36-1.99-.99-.07-1.79,.7-1.84,1.91-.07,1.69-.04,3.39-.06,5.09,0,.15-.02,.3-.03,.51h-2.45v-9.32h2.12l.17,1.29c.81-.88,1.64-1.64,2.85-1.57,1.14,.07,2.12,.47,2.66,1.64,.34-.32,.61-.61,.92-.86,1.11-.92,2.36-1.01,3.63-.47,1.24,.52,1.73,1.59,1.75,2.87,.03,2.12,0,4.25,0,6.43h-2.49c0-1.71,0-3.4,0-5.09,0-.4-.03-.81-.08-1.21-.08-.7-.52-1.09-1.19-1.18-.66-.09-1.28,.11-1.53,.73-.24,.59-.36,1.26-.38,1.9-.05,1.59-.02,3.18-.02,4.84h-2.69Z"/><path class="cls-2" d="M8.83,268.4h-2.5c-.01-.3-.04-.56-.04-.83,0-1.7,0-3.4,0-5.09,0-.9-.41-1.43-1.13-1.58-.83-.18-1.7,.22-1.98,1.02-.18,.51-.26,1.08-.27,1.63-.03,1.59-.01,3.19-.01,4.84H.4v-9.29H2.54l.13,1.31c.79-1.04,1.74-1.6,2.89-1.65,1.19-.05,2.07,.55,2.64,1.62,.39-.35,.72-.69,1.09-.97,1.1-.83,2.31-.85,3.52-.3,1.13,.51,1.64,1.51,1.66,2.69,.04,2.17,.01,4.35,.01,6.59h-2.43c-.01-.24-.04-.51-.04-.77,0-1.7,.02-3.4-.01-5.09-.02-.99-.47-1.53-1.26-1.64-.76-.11-1.46,.3-1.71,1.08-.14,.43-.19,.89-.2,1.34-.03,1.39-.01,2.79-.01,4.18,0,.28,0,.55,0,.92Z"/><path class="cls-2" d="M.08,337.66c.76,0,1.44-.01,2.12,0,.15,0,.34,.08,.45,.19,.85,.84,1.88,1.05,2.97,.6,.95-.4,1.43-1.22,1.42-2.47-.07,.01-.15,0-.19,.04-2.46,2.08-5.69,1.09-6.56-2.01-.38-1.33-.35-2.66,.1-3.96,1-2.89,4.3-3.72,6.57-1.67,.07,.07,.15,.13,.29,.25l.27-1.1h2.01c0,.79,0,1.54,0,2.29-.01,2.2,.04,4.41-.07,6.61-.12,2.38-1.79,4.03-4.18,4.25-1.09,.1-2.18,.09-3.2-.4-1.07-.52-1.77-1.31-1.99-2.62Zm6.95-5.41c0-1.81-.94-2.9-2.43-2.81-1.24,.07-1.94,.92-2.03,2.47-.09,1.59,.6,2.79,1.73,3,1.65,.31,2.72-.74,2.73-2.66Z"/><path class="cls-2" d="M79.2,281.87h2.06l.2,1.25c.25-.18,.47-.3,.63-.48,1.39-1.47,3.69-1.54,4.94,.64,.17-.21,.31-.41,.47-.57,1.06-1.08,2.31-1.39,3.75-.91,1.37,.46,1.95,1.54,2.01,2.85,.09,1.92,.04,3.85,.05,5.77,0,.25,0,.5,0,.79h-2.57c0-.27,0-.54,0-.81,0-1.7,0-3.39,0-5.09,0-.97-.45-1.51-1.26-1.61-.78-.1-1.48,.34-1.71,1.19-.14,.51-.2,1.05-.21,1.57-.03,1.57,0,3.13,0,4.75h-2.47c0-.73,0-1.46,0-2.18,0-1.24,.02-2.48-.01-3.72-.03-.94-.46-1.46-1.22-1.6-.78-.14-1.55,.3-1.82,1.15-.21,.68-.37,1.4-.4,2.11-.06,1.39-.02,2.78-.02,4.23h-2.43v-9.34Z"/><path class="cls-2" d="M42.65,291.23h-2.44v-9.33h2.07l.2,1.14c3.07-1.97,4.03-1.94,5.6,.23,.17-.21,.3-.41,.47-.59,1.09-1.11,2.38-1.38,3.83-.85,1.39,.51,1.81,1.66,1.95,2.99,.02,.23,.01,.46,.01,.68,0,1.87,0,3.75,0,5.69h-2.57c0-1.6,0-3.19,0-4.78,0-.43,0-.86,0-1.29-.03-.74-.39-1.24-1.14-1.41-.68-.15-1.45,.17-1.69,.84-.21,.58-.32,1.23-.33,1.85-.05,1.59-.02,3.18-.02,4.81h-2.48c0-1.74,0-3.46,0-5.17,0-.38,0-.76-.06-1.13-.09-.64-.45-1.07-1.11-1.19-.68-.12-1.23,.12-1.67,.66-.48,.6-.63,1.28-.63,2.03,.01,1.59,0,3.18,0,4.8Z"/><path class="cls-2" d="M28.12,305.27v-4.43h2.61v13.25c-.66,0-1.29,.06-1.91-.03-.24-.03-.43-.38-.7-.64-.7,.59-1.59,1.02-2.67,.91-1.69-.17-2.81-1.06-3.36-2.65-.49-1.43-.5-2.89-.09-4.33,.78-2.7,3.73-3.8,6.11-2.08Zm.04,4.3c-.12-.68-.15-1.22-.33-1.71-.31-.85-1.1-1.3-1.97-1.22-.74,.07-1.39,.59-1.46,1.5-.08,.96-.01,1.95,.16,2.89,.12,.65,.67,1.04,1.38,1.1,.73,.06,1.33-.21,1.65-.84,.28-.57,.41-1.22,.57-1.72Z"/><path class="cls-2" d="M8.95,291.24h-2.04l-.28-.76c-1.07,1.01-2.34,1.24-3.68,.88-1.86-.5-2.71-1.94-2.87-3.7-.1-1.15-.02-2.41,.34-3.5,.82-2.47,3.56-3.31,5.77-1.92,.08,.05,.17,.08,.35,.17v-4.43h2.4v13.26Zm-2.35-4.67l-.09-.03c-.04-.38-.04-.76-.12-1.13-.2-.94-.96-1.59-1.85-1.61-1.01-.03-1.71,.38-1.85,1.39-.13,.95-.07,1.95,.09,2.9,.12,.71,.69,1.14,1.46,1.21,.81,.07,1.48-.22,1.82-.95,.26-.55,.36-1.19,.52-1.78Z"/><path class="cls-2" d="M29.45,327.54h2.3l.18,.83c.73-.36,1.4-.86,2.14-1.02,1.74-.36,3.28,.58,3.98,2.31,.65,1.61,.68,3.27,.1,4.89-.96,2.66-3.58,3.33-6.15,1.53v3.98h-2.56v-12.51Zm2.49,4.68l.1,.04c.03,.35,.04,.71,.11,1.05,.18,.93,.94,1.63,1.81,1.68,.9,.06,1.75-.48,1.89-1.5,.13-.94,.06-1.95-.12-2.89-.14-.73-.77-1.17-1.57-1.21-.76-.03-1.36,.32-1.67,.97-.27,.58-.37,1.24-.55,1.86Z"/><path class="cls-2" d="M62.1,340.04v-3.94c-.19,.11-.31,.16-.41,.24-1.53,1.23-3.56,1.09-4.93-.31-1.76-1.8-1.84-4.2-1.03-6.11,.63-1.47,1.74-2.58,3.55-2.64,1.13-.04,2,.42,2.83,1.32l.24-1.05h2.18v12.5h-2.42Zm-.05-7.56c-.04-.55-.04-.91-.1-1.25-.19-1.05-1.01-1.82-1.93-1.84-.95-.02-1.75,.57-1.91,1.69-.12,.87-.06,1.81,.13,2.67,.18,.79,.86,1.22,1.71,1.25,.77,.03,1.54-.46,1.83-1.24,.17-.46,.21-.98,.27-1.28Z"/><path class="cls-2" d="M56.55,281.88h2.17l.21,.97c.14-.11,.26-.18,.35-.27,1.7-1.56,4.25-1.25,5.39,.76,1.16,2.02,1.19,4.19,.1,6.24-1.13,2.15-3.49,2.47-5.77,.84v3.7h-2.47v-12.24Zm2.36,4.65l.12,.04c.02,.33,0,.66,.06,.98,.16,1.01,.96,1.75,1.89,1.77,.94,.02,1.76-.57,1.87-1.62,.1-.93,.01-1.9-.17-2.82-.14-.71-.78-1.11-1.53-1.17-.72-.05-1.32,.29-1.63,.91-.29,.59-.41,1.27-.61,1.91Z"/><path class="cls-2" d="M40.32,323.66h2.45v4.66c.29-.15,.47-.22,.62-.33,1.17-.86,2.43-.94,3.73-.37,1.25,.56,1.66,1.67,1.68,2.92,.04,2.1,.01,4.19,.01,6.33h-2.54v-.79c0-1.65,0-3.29,0-4.94,0-1.07-.4-1.61-1.21-1.73-.87-.13-1.63,.33-1.9,1.26-.19,.64-.31,1.31-.33,1.97-.05,1.39-.01,2.78-.01,4.22h-2.49v-13.2Z"/><path class="cls-2" d="M58.09,313.03c-1.14,1-2.43,1.52-3.97,1.23-1.23-.23-2.06-1.07-2.21-2.19-.19-1.35,.26-2.49,1.47-2.94,1.19-.43,2.49-.56,3.75-.81,.22-.04,.44-.04,.66-.06,.13-.94-.16-1.52-.83-1.76-1.18-.41-2.24,.1-3.23,1.6l-1.79-1.06c.81-1.83,2.62-2.79,4.83-2.63,2.13,.15,3.72,1.36,3.54,3.82-.06,.88-.01,1.77,0,2.66,0,1.22,.03,1.25,1.23,1.11,0,1.53-.2,1.99-1.02,2.21-1.11,.3-1.72,0-2.41-1.18Zm-.27-3.17c-.37,.04-.69,.08-1.01,.12-.25,.04-.51,.06-.74,.14-.47,.16-.99,.27-1.38,.55-.59,.42-.45,1.3,.22,1.52,.77,.25,1.51,.04,2.14-.45,.59-.46,.91-1.06,.76-1.88Z"/><path class="cls-2" d="M158,308.16l-1.85-1.1c.74-1.81,2.64-2.83,4.84-2.62,.52,.05,1.06,.16,1.54,.35,1.25,.5,1.93,1.43,1.94,2.8,.01,1.11,0,2.23,0,3.34,0,1.15,.11,1.24,1.21,1.06,.17,1.08-.19,1.97-.87,2.19-1.16,.37-1.93,.02-2.37-.95-1.01,.37-1.98,.93-3.01,1.07-2.32,.34-3.97-1.66-3.19-3.75,.46-1.24,1.54-1.69,2.72-1.92,.84-.16,1.7-.26,2.56-.3,.55-.03,.64-.25,.55-.72-.16-.81-.77-1.26-1.67-1.19-1.13,.08-1.97,.59-2.39,1.73Zm4,1.62c-.95,.22-1.88,.36-2.74,.67-.32,.11-.63,.6-.68,.95-.03,.24,.34,.73,.62,.8,1.48,.4,3.13-.87,2.81-2.42Z"/><path class="cls-2" d="M24.17,330.99c.1-.72-.13-1.32-.87-1.63-1.08-.44-2.09,.08-3.11,1.58l-1.81-1.07c.63-1.41,1.71-2.22,3.15-2.48,.76-.14,1.58-.14,2.34-.02,1.75,.28,2.72,1.51,2.74,3.29,0,1.04,0,2.08,0,3.12,0,1.17,.08,1.24,1.2,1.04,.13,1.27-.2,2.01-.99,2.22-1.15,.31-1.84-.03-2.31-1.04-.85,.37-1.67,.85-2.55,1.08-1.59,.41-3.14-.46-3.53-1.85-.46-1.59,.28-3.01,2.01-3.53,1.17-.35,2.42-.47,3.73-.71Zm0,1.57c-1,.27-1.92,.47-2.81,.78-.46,.16-.73,.65-.48,1.11,.16,.29,.57,.58,.9,.61,1.35,.14,2.41-.91,2.39-2.51Z"/><path class="cls-2" d="M44.99,264.29h-6.24c-.08,1.06,.4,1.86,1.21,2.16,.88,.33,1.93,.1,2.44-.71,.38-.6,.74-.59,1.29-.34,.43,.2,.89,.33,1.34,.49-.81,1.99-2.51,2.93-4.88,2.75-1.9-.15-3.54-1.49-3.84-3.42-.17-1.09-.16-2.3,.12-3.36,.69-2.59,3.48-3.81,5.94-2.76,1.99,.85,2.99,2.77,2.62,5.19Zm-2.67-1.88c-.26-1.18-.93-1.71-1.94-1.6-.91,.09-1.47,.67-1.5,1.6h3.44Z"/><path class="cls-2" d="M126.03,287.12h-6.31c-.09,1.37,.57,1.84,1.31,2.14,1.06,.43,1.9,.09,2.98-1.24l1.97,.68c-.52,1.61-1.92,2.63-3.79,2.79-2.25,.19-4.1-.95-4.79-2.94-.82-2.38-.1-5.16,1.74-6.26,1.61-.96,3.35-1.06,4.96,0,1.69,1.1,2.07,2.82,1.93,4.84Zm-6.2-1.85h3.58c-.06-1.02-.66-1.6-1.63-1.63-1.13-.03-1.82,.52-1.94,1.63Z"/><path class="cls-2" d="M19.67,288.72c-.99,2.17-2.84,3.09-5.29,2.7-1.88-.3-3.36-1.86-3.53-3.92-.08-.96-.04-1.99,.22-2.91,.57-2.03,2.5-3.22,4.55-3,2.26,.24,3.77,1.66,4.03,3.84,.06,.52,0,1.05,0,1.69h-6.32c0,1.18,.49,1.92,1.38,2.2,1.02,.32,2.07-.14,2.88-1.29,.33,.11,.68,.21,1.03,.33,.33,.11,.66,.23,1.04,.37Zm-2.77-3.44c-.08-1.13-.75-1.7-1.83-1.64-.96,.05-1.59,.72-1.55,1.64h3.38Z"/><path class="cls-2" d="M6.89,310.84l1.95,.68c-.43,1.77-2.35,2.84-4.15,2.83-2.72-.02-4.56-1.82-4.68-4.54-.06-1.41,.15-2.74,1.07-3.85,1.26-1.52,2.95-1.81,4.76-1.38,1.73,.42,2.65,1.69,3,3.37,.42,2.02,.39,2.02-1.67,2.02-1.49,0-2.99,0-4.47,0-.2,.85,.21,1.69,.98,2.06,1.15,.54,2.18,.17,3.21-1.2Zm-4.19-2.74h3.59c-.07-1.02-.62-1.58-1.56-1.63-1.2-.06-1.83,.42-2.04,1.63Z"/><path class="cls-2" d="M79.47,332.8c-.04,1.08,.38,1.8,1.19,2.13,.89,.37,2.02,.18,2.54-.61,.43-.65,.83-.63,1.42-.35,.34,.16,.71,.26,1.14,.41-.55,1.4-1.53,2.27-2.93,2.64-3.16,.83-5.81-1.11-5.96-4.36-.03-.67,.02-1.38,.17-2.03,.53-2.26,2.26-3.47,4.66-3.35,2.15,.1,3.67,1.52,4.02,3.74q.28,1.78-1.49,1.78c-1.59,0-3.19,0-4.78,0Zm.06-1.86h3.58c.02-.92-.52-1.54-1.4-1.64-1.21-.13-1.91,.37-2.18,1.64Z"/><path class="cls-2" d="M55.12,264.3h-6.14c-.12,1,.36,1.82,1.17,2.14,1.04,.41,1.98,.02,2.91-1.26l2.03,.71c-.79,1.99-2.49,2.94-4.78,2.75-1.88-.16-3.49-1.53-3.8-3.47-.16-1.02-.16-2.14,.08-3.14,.52-2.22,2.45-3.48,4.66-3.26,2.15,.22,3.7,1.86,3.88,4.11,.03,.42,0,.85,0,1.43Zm-2.62-1.9c-.13-1.09-.84-1.68-1.85-1.61-.93,.07-1.54,.7-1.55,1.61h3.39Z"/><path class="cls-2" d="M41.27,309.99h-6.15c-.1,.94,.32,1.73,1.09,2.08,.85,.39,1.97,.24,2.47-.55,.45-.73,.89-.63,1.49-.35,.34,.16,.71,.26,1.06,.38-.63,1.79-2.41,2.93-4.35,2.81-2.21-.13-3.89-1.46-4.22-3.56-.16-1.02-.14-2.13,.1-3.14,.52-2.19,2.43-3.44,4.59-3.22,2.2,.23,3.73,1.78,3.92,4.03,.04,.45,0,.9,0,1.52Zm-6.04-1.89h3.42c-.09-1.06-.71-1.63-1.72-1.63-1,0-1.64,.61-1.71,1.63Z"/><path class="cls-2" d="M97.68,287.16c.05,1.22,.51,1.89,1.42,2.16,1.05,.31,1.81-.04,2.71-1.29,.33,.1,.68,.21,1.03,.33,.33,.11,.66,.24,.98,.36-.57,1.67-2.09,2.72-3.99,2.79-1.93,.08-3.61-.92-4.3-2.64-.61-1.51-.62-3.07-.02-4.59,.72-1.84,2.55-2.9,4.49-2.68,1.99,.22,3.43,1.57,3.81,3.56,.37,1.95,.33,2.01-1.66,2.01-1.49,0-2.98,0-4.47,0Zm3.51-1.9c.05-.91-.5-1.53-1.41-1.62-1.11-.1-1.82,.46-1.97,1.62h3.37Z"/><path class="cls-2" d="M19.05,259.09c0,1.93-.01,3.83,0,5.72,0,.89,.41,1.41,1.14,1.57,.72,.16,1.48-.18,1.82-.91,.19-.4,.3-.87,.33-1.31,.05-.91,.02-1.82,.02-2.73,0-.76,0-1.52,0-2.34h2.48v9.3h-2.22l-.21-.99c-1.7,1.88-4.01,1.52-5.37-.16-.4-.49-.61-1.24-.63-1.88-.08-2.07-.03-4.14-.03-6.28h2.67Z"/><path class="cls-2" d="M178.65,309.62c-.14-4.33,3.37-6.21,6.96-4.67,1.64,.7,2.6,2.84,2.34,4.96-.04,.35-.1,.7-.19,1.04-.65,2.45-2.43,3.49-4.9,3.37-2.44-.12-3.95-1.69-4.17-4.1-.02-.2-.04-.4-.05-.61Zm6.99-.29c-.34-.76-.55-1.52-.97-2.13-.75-1.1-2.32-1.01-2.98,.15-.74,1.3-.73,2.68-.04,3.99,.63,1.18,2.31,1.27,3.04,.16,.41-.62,.61-1.38,.94-2.16Z"/><path class="cls-2" d="M120.28,304.71h2.71c0,1.22,0,2.4,0,3.59,0,.73,0,1.47,0,2.2,.01,.87,.35,1.36,1.06,1.55,.66,.18,1.47-.12,1.8-.8,.22-.46,.35-1.01,.37-1.52,.05-1.42,.02-2.83,.02-4.25,0-.25,.02-.49,.04-.77h2.46v9.33h-2.19l-.24-1.03c-.77,.98-1.71,1.39-2.93,1.29-1.71-.13-3.02-1.78-3.08-3.22-.08-2.1-.02-4.2-.02-6.37Z"/><path class="cls-2" d="M130.93,314.09v-9.36h2.1l.33,1.13c.17-.13,.31-.19,.39-.29,.98-1.12,2.19-1.38,3.57-.95,1.33,.42,2,1.43,2.06,2.72,.1,2.22,.03,4.44,.03,6.7h-2.55c0-.24,0-.48,0-.72,0-1.72,0-3.44,0-5.16,0-.85-.38-1.38-1.06-1.55-.76-.19-1.52,.1-1.83,.85-.23,.54-.33,1.16-.35,1.76-.05,1.34-.05,2.68,0,4.02,.02,.69-.23,.9-.88,.85-.57-.04-1.15,0-1.8,0Z"/><path class="cls-2" d="M81.58,314.36c-2.86,0-4.62-1.87-4.65-4.94-.03-3.01,1.85-5.01,4.69-5,2.84,0,4.69,1.96,4.67,4.94-.02,3.05-1.87,5-4.71,5Zm2.3-4.99c-.2-.67-.29-1.37-.6-1.95-.73-1.37-2.62-1.35-3.34,.02-.66,1.24-.63,2.53-.04,3.8,.32,.68,.9,1,1.65,1.02,.77,.01,1.43-.26,1.75-.98,.26-.59,.38-1.24,.58-1.91Z"/><path class="cls-2" d="M66.69,327.53h2.58c0,1.57,0,3.11,0,4.64,0,.41,0,.81,0,1.22,.02,.69,.28,1.25,.98,1.47,.74,.23,1.44,.01,1.78-.64,.31-.57,.47-1.28,.5-1.94,.07-1.56,.02-3.13,.02-4.74h2.48v9.33h-2.2l-.21-1.01c-1,1.24-2.21,1.51-3.63,1.15-1.3-.34-2.19-1.18-2.27-2.45-.14-2.31-.04-4.64-.04-7.03Z"/><path class="cls-2" d="M189.75,304.67c.32,0,.57,0,.82,0q1.2,0,1.59,1.16c.85-1.03,1.87-1.58,3.24-1.34,1.41,.25,2.51,1.14,2.59,2.57,.12,2.31,.03,4.64,.03,7h-2.46c-.02-.26-.04-.52-.04-.79,0-1.65,0-3.29,0-4.94,0-1.09-.38-1.6-1.2-1.74-.88-.14-1.62,.36-1.9,1.36-.11,.38-.15,.8-.15,1.2-.02,1.62,0,3.23,0,4.9h-2.51v-9.37Z"/><path class="cls-2" d="M26.34,266.13l1.78-1.33c.61,1.03,1.45,1.7,2.66,1.76,.35,.02,.74,.03,1.04-.12,.27-.13,.57-.47,.6-.74,.02-.2-.33-.55-.59-.65-.54-.2-1.14-.24-1.69-.41-.67-.2-1.38-.37-1.98-.71-1.83-1.04-1.82-3.43-.02-4.53,2.05-1.25,5.1-.66,6.56,1.26l-1.54,1.41c-.63-.83-1.57-1.37-2.82-1.22-.49,.06-1.03,.09-1.1,.7-.07,.62,.49,.68,.92,.79,.66,.17,1.33,.32,1.99,.47,1.94,.44,2.76,1.28,2.75,2.79-.02,1.49-1.08,2.66-2.85,2.96-1.8,.3-3.49-.01-4.87-1.32-.32-.3-.54-.7-.84-1.1Z"/><path class="cls-2" d="M73.92,310.57l1.87,1c-.96,2.51-3.84,3.41-6.34,2.25-2.91-1.35-3.19-6.18-1.03-8.1,2.53-2.25,6.3-1.52,7.35,1.45,.02,.07,.02,.14,.03,.28l-2.06,.77c-.11-.22-.2-.39-.29-.57-.36-.71-.94-1.15-1.74-1.14-.85,0-1.43,.49-1.75,1.25-.41,.99-.42,2.02-.08,3.04,.28,.86,.89,1.35,1.78,1.42,.83,.07,1.45-.34,1.89-1.04,.12-.19,.23-.39,.37-.62Z"/><path class="cls-2" d="M152.79,310.56l1.87,1.01c-.81,2.08-2.83,3.11-5.14,2.66-1.99-.39-3.74-2.5-3.68-4.99,.06-2.33,2.06-4.53,4-4.76,2.34-.27,4.13,.73,4.86,2.95l-2.1,.79c-.13-.25-.22-.45-.33-.65-.37-.67-.94-1.08-1.72-1.06-.81,.02-1.38,.45-1.7,1.19-.45,1.05-.45,2.12-.08,3.18,.27,.78,.86,1.25,1.69,1.33,.8,.08,1.42-.28,1.88-.92,.16-.22,.29-.47,.45-.74Z"/><path class="cls-2" d="M54.69,251.44l.04,.68H.43c-.15-.41-.16-.72,.44-.68,.15,0,.3,0,.46,0,17.5,0,35,0,52.49,0h.87Z"/><path class="cls-2" d="M167.85,306.78h-1.58v-2.07l1.58-.07c-.45-2.03,1.44-2.52,2.46-3.9v3.93c.57,0,1.06,0,1.56,0,.42-.01,.56,.17,.58,.59,.07,1.51,.08,1.51-1.4,1.52-.2,0-.4,0-.68,0,0,1.63-.03,3.22,.04,4.8,0,.21,.5,.51,.81,.56,.38,.06,.79-.1,1.18-.17,.19,1.23-.49,2.14-1.71,2.34-1.42,.23-2.63-.51-2.74-1.82-.11-1.33-.06-2.68-.08-4.02,0-.53,0-1.05,0-1.69Z"/><path class="cls-2" d="M13.85,304.66h1.94v2.12h-1.87c0,1.62-.02,3.16,.01,4.69,0,.52,.36,.76,.88,.7,.35-.04,.69-.11,1.14-.18-.12,.57-.21,1.1-.34,1.62-.03,.13-.12,.3-.23,.36-.9,.44-1.84,.57-2.78,.12-.82-.39-1.14-1.12-1.15-1.99-.02-1.49,0-2.99-.01-4.48,0-.25,0-.49,0-.81h-1.61v-2.1h1.57c.1-.82-.11-1.61,.68-2.19,.6-.43,1-1.13,1.49-1.71l.28,.19v3.68Z"/><path class="cls-2" d="M50.06,314.07h-2.48v-13.25h2.48v13.25Z"/><path class="cls-2" d="M25.86,277.97h2.42v13.27h-2.42v-13.27Z"/><path class="cls-2" d="M54.82,250.01c-.18,.14-.34,.31-.54,.39-.15,.06-.35,.01-.53,.01-17.45,0-34.9,0-52.36-.01-.35,0-.92,.32-.99-.36,0-.07,.64-.29,.98-.29,17.43-.01,34.85-.01,52.28-.01,.33,0,.65,0,.98,0l.18,.27Z"/><path class="cls-2" d="M.28,253.62c.18-.15,.35-.32,.56-.42,.12-.06,.3-.01,.45-.01,17.52,0,35.04,0,52.56,0,.37,0,.99-.23,.86,.63H.48l-.2-.2Z"/><path class="cls-2" d="M67.31,291.22v-9.33h2.08l.34,1.39c.28-.38,.49-.69,.74-.98,.47-.55,1.08-.75,1.78-.58,.95,.23,1.18,.79,.69,1.62-.25,.41-.49,.82-.74,1.23-1.09-.86-1.97-.53-2.13,.87-.14,1.25-.1,2.52-.13,3.79-.01,.65,0,1.31,0,2h-2.62Z"/><path class="cls-2" d="M108.26,291.24h-2.59v-9.35h2.06l.34,1.38c.29-.39,.5-.69,.74-.98,.45-.52,1.02-.73,1.7-.59,1,.2,1.26,.79,.76,1.64-.24,.41-.49,.82-.74,1.23-1.06-.86-1.94-.56-2.11,.79-.16,1.22-.12,2.47-.15,3.71-.02,.7,0,1.41,0,2.17Z"/><path class="cls-2" d="M14.16,336.88h-2.52v-9.27c1.53-.41,1.84-.23,2.31,1.32,.18-.25,.33-.48,.49-.69,.76-1.01,1.64-1.2,2.72-.56,.44,.26,.68,.59,.27,1.1-.38,.46-.72,.95-1.07,1.43-1.04-.8-1.74-.58-2.05,.72-.14,.58-.13,1.2-.14,1.81-.02,1.36,0,2.72,0,4.15Z"/><path class="cls-2" d="M50.95,327.53h2.45v9.32h-2.45v-9.32Z"/><path class="cls-2" d="M176.76,314.06h-2.42v-9.35h2.42v9.35Z"/><path class="cls-2" d="M35.52,281.89h2.4v9.32h-2.4v-9.32Z"/><path class="cls-2" d="M141.59,304.7h2.39v9.35h-2.39v-9.35Z"/><path class="cls-2" d="M115.23,291.23h-2.42v-9.32h2.42v9.32Z"/><path class="cls-2" d="M74.49,281.89h2.41v9.32h-2.41v-9.32Z"/><path class="cls-2" d="M.43,274.96c-.19-.53,0-.7,.51-.7,6.03,0,12.06,0,18.09,0,.5,0,.72,.14,.53,.7H.43Z"/><path class="cls-2" d="M.4,272.6H19.51c.12,.65,.12,.66-.54,.67-1.93,0-3.85,0-5.78,0-4.03,0-8.06,0-12.09,0-.4,0-.89,.1-.69-.67Z"/><path class="cls-2" d="M41.07,295.43c.14,.52-.02,.69-.51,.69-5.98-.01-11.97-.01-17.95,0-.51,0-.62-.21-.48-.69h18.94Z"/><path class="cls-2" d="M41.05,297.8H22.16c-.1-.67-.1-.68,.55-.68,2.31,0,4.61,0,6.92,0,3.6,0,7.2,0,10.8,0,.45,0,.85,0,.62,.69Z"/><path class="cls-2" d="M.41,295.43H15.76c.1,.68,.1,.69-.52,.69-4.74,0-9.48,0-14.23,0-.49,0-.8-.08-.6-.7Z"/><path class="cls-2" d="M15.8,297.8H.44c-.07-.67-.07-.68,.66-.68,4.15,0,8.3,0,12.46,0,.58,0,1.17,.02,1.75,0,.5-.03,.65,.17,.5,.69Z"/><path class="cls-2" d="M9.99,276.03c2.94,0,5.89,0,8.83,0,.2,0,.42-.02,.6,.04,.09,.03,.17,.22,.18,.34,0,.08-.11,.24-.19,.26-.22,.04-.45,.03-.68,.03-5.83,0-11.67,0-17.5,0-.2,0-.41,.03-.61-.02-.11-.03-.26-.2-.25-.28,.02-.13,.15-.31,.27-.35,.18-.06,.4-.02,.6-.02,2.92,0,5.83,0,8.75,0Z"/><path class="cls-2" d="M22.14,298.9h18.9c.19,.5,0,.65-.47,.65-1.11-.02-2.23,0-3.34,0-4.81,0-9.63,0-14.44,0-.39,0-.88,.09-.64-.64Z"/><path class="cls-2" d="M33.33,277.97c0,.99,.09,1.96-.02,2.9-.16,1.3-1.23,2.16-2.88,2.45-.14-.66-.28-1.23,.64-1.49,.35-.1,.59-.54,.93-.86-.52-.29-1.14-.44-1.19-.7-.14-.72-.05-1.49-.05-2.29h2.57Z"/><path class="cls-2" d="M47.56,296.12l-.03-.69h14.03c.08,.4,.12,.7-.45,.7-4.48,0-8.97,0-13.55,0Z"/><path class="cls-2" d="M61.52,297.79h-13.9c-.12-.65-.12-.67,.44-.67,4.34,0,8.67,0,13.01,0,.51,0,.62,.21,.45,.68Z"/><path class="cls-2" d="M15.77,298.87c.25,.76-.23,.68-.62,.68-3.85,0-7.7,0-11.54,0-.84,0-1.67,.02-2.51-.01-.27,0-.76,.21-.71-.35,.01-.12,.44-.3,.68-.3,4.38-.02,8.76-.01,13.14-.01h1.56Z"/><path class="cls-2" d="M47.59,298.87c.3,0,.57,0,.85,0,4.16,0,8.32,0,12.47,.01,.23,0,.46,.21,.68,.33-.23,.11-.47,.32-.7,.32-4.23,.02-8.47,.01-12.7,.01-.38,0-.83,.07-.6-.68Z"/><path class="cls-2" d="M44.09,255.09c-.98,1.02-1.76,1.98-2.7,2.74-.34,.28-1.05,.13-1.72,.19,.44-.98,.81-1.83,1.22-2.66,.07-.15,.35-.26,.54-.26,.81-.03,1.62-.01,2.66-.01Z"/><path class="cls-2" d="M141.61,300.82h2.35v2.29h-2.35v-2.29Z"/><path class="cls-2" d="M115.22,277.99v2.28h-2.37v-2.28h2.37Z"/><path class="cls-2" d="M74.49,277.97h2.36v2.31h-2.36v-2.31Z"/><path class="cls-2" d="M37.9,278v2.28h-2.36v-2.28h2.36Z"/><path class="cls-2" d="M174.36,300.82h2.37v2.28h-2.37v-2.28Z"/><path class="cls-2" d="M50.97,323.68h2.4v2.26h-2.4v-2.26Z"/></g></g></g></svg>